<svg width="32" height="32" viewBox="0 0 32 32" fill="none" xmlns="http://www.w3.org/2000/svg">
<path d="M16.0007 28.6667C22.9962 28.6667 28.6673 22.9956 28.6673 16C28.6673 9.00444 22.9962 3.33337 16.0007 3.33337C9.00505 3.33337 3.33398 9.00444 3.33398 16C3.33398 22.9956 9.00505 28.6667 16.0007 28.6667Z" stroke="#292929" stroke-width="1.5625" stroke-linecap="round" stroke-linejoin="round"/>
<path d="M8.49805 26.2036C9.20933 24.8276 10.2854 23.6738 11.6084 22.8683C12.9315 22.0628 14.4506 21.6368 15.9995 21.6368C17.5484 21.6368 19.0675 22.0628 20.3906 22.8683C21.7138 23.6738 22.7896 24.8276 23.501 26.2036" stroke="#292929" stroke-width="1.5625" stroke-linecap="round" stroke-linejoin="round"/>
<path d="M16.0006 17.4075C18.5035 17.4075 20.5324 15.3785 20.5324 12.8756C20.5324 10.3727 18.5035 8.34375 16.0006 8.34375C13.4976 8.34375 11.4688 10.3727 11.4688 12.8756C11.4688 15.3785 13.4976 17.4075 16.0006 17.4075Z" stroke="#292929" stroke-width="1.5625" stroke-linecap="round" stroke-linejoin="round"/>
</svg>
