<svg width="60" height="60" viewBox="0 0 60 60" fill="none" xmlns="http://www.w3.org/2000/svg">
<g filter="url(#filter0_bi_208_3)">
<path d="M27 1.73205C28.8564 0.660254 31.1436 0.660254 33 1.73205L52.9808 13.2679C54.8372 14.3397 55.9808 16.3205 55.9808 18.4641V41.5359C55.9808 43.6795 54.8372 45.6603 52.9808 46.7321L33 58.2679C31.1436 59.3397 28.8564 59.3397 27 58.2679L7.01924 46.7321C5.16283 45.6603 4.01924 43.6795 4.01924 41.5359V18.4641C4.01924 16.3205 5.16283 14.3397 7.01924 13.2679L27 1.73205Z" fill="url(#paint0_linear_208_3)" fill-opacity="0.5"/>
<path d="M27.25 2.16506C28.9517 1.18258 31.0483 1.18258 32.75 2.16506L52.7308 13.701C54.4325 14.6834 55.4808 16.4991 55.4808 18.4641V41.5359C55.4808 43.5009 54.4325 45.3166 52.7308 46.299L32.75 57.8349C31.0483 58.8174 28.9517 58.8174 27.25 57.8349L7.26924 46.299C5.56753 45.3166 4.51924 43.5009 4.51924 41.5359V18.4641C4.51924 16.4991 5.56753 14.6834 7.26924 13.701L27.25 2.16506Z" stroke="white" stroke-opacity="0.12"/>
</g>
<path d="M23.4362 37.192C22.2042 37.192 21.1562 36.976 20.2922 36.544C19.4282 36.096 18.7322 35.472 18.2042 34.672C17.6762 33.872 17.2842 32.952 17.0282 31.912C16.7882 30.872 16.6682 29.752 16.6682 28.552C16.6682 27.336 16.7882 26.2 17.0282 25.144C17.2842 24.088 17.6762 23.168 18.2042 22.384C18.7482 21.584 19.4522 20.96 20.3162 20.512C21.1802 20.048 22.2282 19.816 23.4602 19.816C24.7242 19.816 25.7882 20.056 26.6522 20.536C27.5322 21.016 28.2282 21.664 28.7402 22.48C29.2682 23.296 29.6442 24.224 29.8682 25.264C30.1082 26.304 30.2282 27.392 30.2282 28.528C30.2282 29.648 30.1082 30.728 29.8682 31.768C29.6442 32.808 29.2682 33.736 28.7402 34.552C28.2122 35.368 27.5082 36.016 26.6282 36.496C25.7642 36.96 24.7002 37.192 23.4362 37.192ZM23.4362 34.456C24.2522 34.456 24.9082 34.264 25.4042 33.88C25.9162 33.496 26.3002 33.008 26.5562 32.416C26.8122 31.808 26.9802 31.16 27.0602 30.472C27.1562 29.784 27.2042 29.136 27.2042 28.528C27.2042 27.92 27.1642 27.28 27.0842 26.608C27.0042 25.92 26.8362 25.272 26.5802 24.664C26.3242 24.056 25.9482 23.56 25.4522 23.176C24.9562 22.792 24.2922 22.6 23.4602 22.6C22.6282 22.6 21.9562 22.792 21.4442 23.176C20.9482 23.56 20.5722 24.056 20.3162 24.664C20.0602 25.256 19.8842 25.896 19.7882 26.584C19.7082 27.272 19.6682 27.92 19.6682 28.528C19.6682 29.136 19.7082 29.784 19.7882 30.472C19.8682 31.144 20.0282 31.784 20.2682 32.392C20.5242 33 20.9002 33.496 21.3962 33.88C21.9082 34.264 22.5882 34.456 23.4362 34.456ZM31.6073 37V34.528L36.3353 30.544C36.7193 30.224 37.1433 29.872 37.6073 29.488C38.0713 29.104 38.5113 28.688 38.9273 28.24C39.3593 27.776 39.7193 27.296 40.0073 26.8C40.2953 26.304 40.4393 25.784 40.4393 25.24C40.4393 24.424 40.1913 23.784 39.6953 23.32C39.2153 22.856 38.5273 22.624 37.6313 22.624C36.8473 22.624 36.2073 22.792 35.7113 23.128C35.2153 23.464 34.9033 23.92 34.7753 24.496H31.8232C31.9353 23.424 32.2793 22.552 32.8553 21.88C33.4473 21.192 34.1753 20.68 35.0393 20.344C35.9033 19.992 36.8073 19.816 37.7513 19.816C38.8233 19.816 39.7833 20.016 40.6313 20.416C41.4793 20.8 42.1513 21.376 42.6473 22.144C43.1593 22.896 43.4153 23.816 43.4153 24.904C43.4153 25.88 43.2233 26.76 42.8393 27.544C42.4713 28.328 41.9673 29.048 41.3273 29.704C40.7033 30.344 40.0153 30.976 39.2633 31.6L36.0233 34.264H43.4633V37H31.6073Z" fill="#F9FF38"/>
<defs>
<filter id="filter0_bi_208_3" x="-2.68047" y="-5.77178" width="65.3609" height="71.5436" filterUnits="userSpaceOnUse" color-interpolation-filters="sRGB">
<feFlood flood-opacity="0" result="BackgroundImageFix"/>
<feGaussianBlur in="BackgroundImageFix" stdDeviation="3.35"/>
<feComposite in2="SourceAlpha" operator="in" result="effect1_backgroundBlur_208_3"/>
<feBlend mode="normal" in="SourceGraphic" in2="effect1_backgroundBlur_208_3" result="shape"/>
<feColorMatrix in="SourceAlpha" type="matrix" values="0 0 0 0 0 0 0 0 0 0 0 0 0 0 0 0 0 0 127 0" result="hardAlpha"/>
<feOffset dy="0.666667"/>
<feGaussianBlur stdDeviation="0.333333"/>
<feComposite in2="hardAlpha" operator="arithmetic" k2="-1" k3="1"/>
<feColorMatrix type="matrix" values="0 0 0 0 1 0 0 0 0 1 0 0 0 0 1 0 0 0 0.12 0"/>
<feBlend mode="normal" in2="shape" result="effect2_innerShadow_208_3"/>
</filter>
<linearGradient id="paint0_linear_208_3" x1="30" y1="0" x2="30" y2="60" gradientUnits="userSpaceOnUse">
<stop stop-color="#1A2228"/>
<stop offset="1" stop-color="#2D3E4E"/>
</linearGradient>
</defs>
</svg>
