<svg width="61" height="60" viewBox="0 0 61 60" fill="none" xmlns="http://www.w3.org/2000/svg">
<g filter="url(#filter0_bi_206_2)">
<path d="M27.0742 1.73205C28.9306 0.660254 31.2178 0.660254 33.0742 1.73205L53.055 13.2679C54.9114 14.3397 56.055 16.3205 56.055 18.4641V41.5359C56.055 43.6795 54.9114 45.6603 53.055 46.7321L33.0742 58.2679C31.2178 59.3397 28.9306 59.3397 27.0742 58.2679L7.09346 46.7321C5.23705 45.6603 4.09346 43.6795 4.09346 41.5359V18.4641C4.09346 16.3205 5.23705 14.3397 7.09346 13.2679L27.0742 1.73205Z" fill="url(#paint0_linear_206_2)" fill-opacity="0.5"/>
<path d="M27.3242 2.16506C29.0259 1.18258 31.1225 1.18258 32.8242 2.16506L52.805 13.701C54.5067 14.6834 55.555 16.4991 55.555 18.4641V41.5359C55.555 43.5009 54.5067 45.3166 52.805 46.299L32.8242 57.8349C31.1225 58.8174 29.0259 58.8174 27.3242 57.8349L7.34346 46.299C5.64175 45.3166 4.59346 43.5009 4.59346 41.5359V18.4641C4.59346 16.4991 5.64175 14.6834 7.34346 13.701L27.3242 2.16506Z" stroke="white" stroke-opacity="0.12"/>
</g>
<path d="M25.5026 37.192C24.2706 37.192 23.2226 36.976 22.3586 36.544C21.4946 36.096 20.7986 35.472 20.2706 34.672C19.7426 33.872 19.3506 32.952 19.0946 31.912C18.8546 30.872 18.7346 29.752 18.7346 28.552C18.7346 27.336 18.8546 26.2 19.0946 25.144C19.3506 24.088 19.7426 23.168 20.2706 22.384C20.8146 21.584 21.5186 20.96 22.3826 20.512C23.2466 20.048 24.2946 19.816 25.5266 19.816C26.7906 19.816 27.8546 20.056 28.7186 20.536C29.5986 21.016 30.2946 21.664 30.8066 22.48C31.3346 23.296 31.7106 24.224 31.9346 25.264C32.1746 26.304 32.2946 27.392 32.2946 28.528C32.2946 29.648 32.1746 30.728 31.9346 31.768C31.7106 32.808 31.3346 33.736 30.8066 34.552C30.2786 35.368 29.5746 36.016 28.6946 36.496C27.8306 36.96 26.7666 37.192 25.5026 37.192ZM25.5026 34.456C26.3186 34.456 26.9746 34.264 27.4706 33.88C27.9826 33.496 28.3666 33.008 28.6226 32.416C28.8786 31.808 29.0466 31.16 29.1266 30.472C29.2226 29.784 29.2706 29.136 29.2706 28.528C29.2706 27.92 29.2306 27.28 29.1506 26.608C29.0706 25.92 28.9026 25.272 28.6466 24.664C28.3906 24.056 28.0146 23.56 27.5186 23.176C27.0226 22.792 26.3586 22.6 25.5266 22.6C24.6946 22.6 24.0226 22.792 23.5106 23.176C23.0146 23.56 22.6386 24.056 22.3826 24.664C22.1266 25.256 21.9506 25.896 21.8546 26.584C21.7746 27.272 21.7346 27.92 21.7346 28.528C21.7346 29.136 21.7746 29.784 21.8546 30.472C21.9346 31.144 22.0946 31.784 22.3346 32.392C22.5906 33 22.9666 33.496 23.4626 33.88C23.9746 34.264 24.6546 34.456 25.5026 34.456ZM37.2172 37V24.16H33.8572V21.976C34.5132 21.944 35.0972 21.872 35.6092 21.76C36.1212 21.648 36.5772 21.456 36.9772 21.184C37.3932 20.912 37.7612 20.528 38.0812 20.032H40.2172V37H37.2172Z" fill="#F9FF38"/>
<defs>
<filter id="filter0_bi_206_2" x="-2.60625" y="-5.77178" width="65.3609" height="71.5436" filterUnits="userSpaceOnUse" color-interpolation-filters="sRGB">
<feFlood flood-opacity="0" result="BackgroundImageFix"/>
<feGaussianBlur in="BackgroundImageFix" stdDeviation="3.35"/>
<feComposite in2="SourceAlpha" operator="in" result="effect1_backgroundBlur_206_2"/>
<feBlend mode="normal" in="SourceGraphic" in2="effect1_backgroundBlur_206_2" result="shape"/>
<feColorMatrix in="SourceAlpha" type="matrix" values="0 0 0 0 0 0 0 0 0 0 0 0 0 0 0 0 0 0 127 0" result="hardAlpha"/>
<feOffset dy="0.666667"/>
<feGaussianBlur stdDeviation="0.333333"/>
<feComposite in2="hardAlpha" operator="arithmetic" k2="-1" k3="1"/>
<feColorMatrix type="matrix" values="0 0 0 0 1 0 0 0 0 1 0 0 0 0 1 0 0 0 0.12 0"/>
<feBlend mode="normal" in2="shape" result="effect2_innerShadow_206_2"/>
</filter>
<linearGradient id="paint0_linear_206_2" x1="30.0742" y1="0" x2="30.0742" y2="60" gradientUnits="userSpaceOnUse">
<stop stop-color="#1A2228"/>
<stop offset="1" stop-color="#2D3E4E"/>
</linearGradient>
</defs>
</svg>
