<svg width="32" height="32" viewBox="0 0 32 32" fill="none" xmlns="http://www.w3.org/2000/svg">
<path d="M21.3327 17.3333C17.6508 17.3333 14.666 15.8409 14.666 14C14.666 12.159 17.6508 10.6666 21.3327 10.6666C25.0145 10.6666 27.9993 12.159 27.9993 14C27.9993 15.8409 25.0145 17.3333 21.3327 17.3333Z" stroke="#1E1E1E" stroke-width="1.5" stroke-linecap="round" stroke-linejoin="round"/>
<path d="M14.666 19.3334C14.666 21.1743 17.6508 22.6667 21.3327 22.6667C25.0145 22.6667 27.9993 21.1743 27.9993 19.3334" stroke="#1E1E1E" stroke-width="1.5" stroke-linecap="round" stroke-linejoin="round"/>
<path d="M4 12.6666C4 14.5076 6.98477 16 10.6667 16C12.1678 16 13.5529 15.752 14.6673 15.3333" stroke="#1E1E1E" stroke-width="1.5" stroke-linecap="round" stroke-linejoin="round"/>
<path d="M4 17.3334C4 19.1743 6.98477 20.6667 10.6667 20.6667C12.1675 20.6667 13.5524 20.4187 14.6667 20.0003" stroke="#1E1E1E" stroke-width="1.5" stroke-linecap="round" stroke-linejoin="round"/>
<path d="M4 7.33337V22C4 23.841 6.98477 25.3334 10.6667 25.3334C12.1675 25.3334 13.5524 25.0852 14.6667 24.6667" stroke="#1E1E1E" stroke-width="1.5" stroke-linecap="round" stroke-linejoin="round"/>
<path d="M17.334 11.3334V7.33337" stroke="#1E1E1E" stroke-width="1.5" stroke-linecap="round" stroke-linejoin="round"/>
<path d="M14.666 14V24.6667C14.666 26.5076 17.6508 28 21.3327 28C25.0145 28 27.9993 26.5076 27.9993 24.6667V14" stroke="#1E1E1E" stroke-width="1.5" stroke-linecap="round" stroke-linejoin="round"/>
<path d="M10.6667 10.6667C6.98477 10.6667 4 9.17428 4 7.33333C4 5.49239 6.98477 4 10.6667 4C14.3485 4 17.3333 5.49239 17.3333 7.33333C17.3333 9.17428 14.3485 10.6667 10.6667 10.6667Z" stroke="#1E1E1E" stroke-width="1.5" stroke-linecap="round" stroke-linejoin="round"/>
</svg>
