<svg width="61" height="60" viewBox="0 0 61 60" fill="none" xmlns="http://www.w3.org/2000/svg">
<g filter="url(#filter0_bi_0_1599)">
<path d="M27.0742 1.73205C28.9306 0.660254 31.2178 0.660254 33.0742 1.73205L53.055 13.2679C54.9114 14.3397 56.055 16.3205 56.055 18.4641V41.5359C56.055 43.6795 54.9114 45.6603 53.055 46.7321L33.0742 58.2679C31.2178 59.3397 28.9306 59.3397 27.0742 58.2679L7.09346 46.7321C5.23705 45.6603 4.09346 43.6795 4.09346 41.5359V18.4641C4.09346 16.3205 5.23705 14.3397 7.09346 13.2679L27.0742 1.73205Z" fill="url(#paint0_linear_0_1599)" fill-opacity="0.5"/>
<path d="M27.3242 2.16506C29.0259 1.18258 31.1225 1.18258 32.8242 2.16506L52.805 13.701C54.5067 14.6834 55.555 16.4991 55.555 18.4641V41.5359C55.555 43.5009 54.5067 45.3166 52.805 46.299L32.8242 57.8349C31.1225 58.8174 29.0259 58.8174 27.3242 57.8349L7.34346 46.299C5.64175 45.3166 4.59346 43.5009 4.59346 41.5359V18.4641C4.59346 16.4991 5.64175 14.6834 7.34346 13.701L27.3242 2.16506Z" stroke="white" stroke-opacity="0.12"/>
</g>
<path d="M23.2721 37.192C22.0401 37.192 20.9921 36.976 20.1281 36.544C19.2641 36.096 18.5681 35.472 18.0401 34.672C17.5121 33.872 17.1201 32.952 16.8641 31.912C16.6241 30.872 16.5041 29.752 16.5041 28.552C16.5041 27.336 16.6241 26.2 16.8641 25.144C17.1201 24.088 17.5121 23.168 18.0401 22.384C18.5841 21.584 19.2881 20.96 20.1521 20.512C21.0161 20.048 22.0641 19.816 23.2961 19.816C24.5601 19.816 25.6241 20.056 26.4881 20.536C27.3681 21.016 28.0641 21.664 28.5761 22.48C29.1041 23.296 29.4801 24.224 29.7041 25.264C29.9441 26.304 30.0641 27.392 30.0641 28.528C30.0641 29.648 29.9441 30.728 29.7041 31.768C29.4801 32.808 29.1041 33.736 28.5761 34.552C28.0481 35.368 27.3441 36.016 26.4641 36.496C25.6001 36.96 24.5361 37.192 23.2721 37.192ZM23.2721 34.456C24.0881 34.456 24.7441 34.264 25.2401 33.88C25.7521 33.496 26.1361 33.008 26.3921 32.416C26.6481 31.808 26.8161 31.16 26.8961 30.472C26.9921 29.784 27.0401 29.136 27.0401 28.528C27.0401 27.92 27.0001 27.28 26.9201 26.608C26.8401 25.92 26.6721 25.272 26.4161 24.664C26.1601 24.056 25.7841 23.56 25.2881 23.176C24.7921 22.792 24.1281 22.6 23.2961 22.6C22.4641 22.6 21.7921 22.792 21.2801 23.176C20.7841 23.56 20.4081 24.056 20.1521 24.664C19.8961 25.256 19.7201 25.896 19.6241 26.584C19.5441 27.272 19.5041 27.92 19.5041 28.528C19.5041 29.136 19.5441 29.784 19.6241 30.472C19.7041 31.144 19.8641 31.784 20.1041 32.392C20.3601 33 20.7361 33.496 21.2321 33.88C21.7441 34.264 22.4241 34.456 23.2721 34.456ZM38.3708 37.192C37.6188 37.192 36.8748 37.104 36.1388 36.928C35.4028 36.752 34.7308 36.48 34.1228 36.112C33.5148 35.728 33.0028 35.232 32.5868 34.624C32.1868 34.016 31.9308 33.28 31.8188 32.416H34.7948C34.9388 32.912 35.1948 33.304 35.5628 33.592C35.9468 33.88 36.3868 34.096 36.8828 34.24C37.3788 34.368 37.8828 34.432 38.3948 34.432C38.7628 34.432 39.1308 34.4 39.4988 34.336C39.8668 34.272 40.2108 34.152 40.5308 33.976C40.8508 33.8 41.1068 33.552 41.2988 33.232C41.4908 32.912 41.5868 32.496 41.5868 31.984C41.5868 31.52 41.4988 31.136 41.3228 30.832C41.1628 30.528 40.9308 30.296 40.6268 30.136C40.3388 29.96 40.0028 29.84 39.6188 29.776C39.2508 29.696 38.8588 29.656 38.4428 29.656H36.5708V27.088H37.7948C38.2588 27.088 38.6828 27.04 39.0668 26.944C39.4508 26.848 39.7868 26.712 40.0748 26.536C40.3628 26.344 40.5788 26.104 40.7228 25.816C40.8828 25.528 40.9628 25.184 40.9628 24.784C40.9628 24.208 40.8348 23.76 40.5788 23.44C40.3388 23.12 40.0108 22.896 39.5948 22.768C39.1788 22.624 38.7228 22.552 38.2268 22.552C37.7788 22.552 37.3468 22.624 36.9308 22.768C36.5148 22.896 36.1548 23.096 35.8508 23.368C35.5468 23.64 35.3548 23.984 35.2748 24.4H32.3468C32.4428 23.6 32.6748 22.912 33.0428 22.336C33.4108 21.76 33.8668 21.288 34.4108 20.92C34.9708 20.536 35.5948 20.256 36.2828 20.08C36.9708 19.904 37.6828 19.816 38.4188 19.816C39.1388 19.816 39.8268 19.896 40.4828 20.056C41.1548 20.216 41.7468 20.48 42.2588 20.848C42.7708 21.2 43.1788 21.664 43.4828 22.24C43.7868 22.816 43.9388 23.52 43.9388 24.352C43.9388 24.88 43.8508 25.376 43.6748 25.84C43.4988 26.304 43.2428 26.712 42.9068 27.064C42.5868 27.416 42.1948 27.704 41.7308 27.928C42.3708 28.104 42.9068 28.392 43.3387 28.792C43.7708 29.176 44.0908 29.64 44.2988 30.184C44.5228 30.728 44.6348 31.328 44.6348 31.984C44.6348 33.008 44.4428 33.864 44.0588 34.552C43.6908 35.224 43.1948 35.752 42.5708 36.136C41.9628 36.52 41.2908 36.792 40.5548 36.952C39.8188 37.112 39.0908 37.192 38.3708 37.192Z" fill="#F9FF38"/>
<defs>
<filter id="filter0_bi_0_1599" x="-2.60625" y="-5.77178" width="65.3609" height="71.5436" filterUnits="userSpaceOnUse" color-interpolation-filters="sRGB">
<feFlood flood-opacity="0" result="BackgroundImageFix"/>
<feGaussianBlur in="BackgroundImageFix" stdDeviation="3.35"/>
<feComposite in2="SourceAlpha" operator="in" result="effect1_backgroundBlur_0_1599"/>
<feBlend mode="normal" in="SourceGraphic" in2="effect1_backgroundBlur_0_1599" result="shape"/>
<feColorMatrix in="SourceAlpha" type="matrix" values="0 0 0 0 0 0 0 0 0 0 0 0 0 0 0 0 0 0 127 0" result="hardAlpha"/>
<feOffset dy="0.666667"/>
<feGaussianBlur stdDeviation="0.333333"/>
<feComposite in2="hardAlpha" operator="arithmetic" k2="-1" k3="1"/>
<feColorMatrix type="matrix" values="0 0 0 0 1 0 0 0 0 1 0 0 0 0 1 0 0 0 0.12 0"/>
<feBlend mode="normal" in2="shape" result="effect2_innerShadow_0_1599"/>
</filter>
<linearGradient id="paint0_linear_0_1599" x1="30.0742" y1="0" x2="30.0742" y2="60" gradientUnits="userSpaceOnUse">
<stop stop-color="#1A2228"/>
<stop offset="1" stop-color="#2D3E4E"/>
</linearGradient>
</defs>
</svg>
