<svg width="61" height="60" viewBox="0 0 61 60" fill="none" xmlns="http://www.w3.org/2000/svg">
<g filter="url(#filter0_bi_0_1692)">
<path d="M27.0742 1.73205C28.9306 0.660254 31.2178 0.660254 33.0742 1.73205L53.055 13.2679C54.9114 14.3397 56.055 16.3205 56.055 18.4641V41.5359C56.055 43.6795 54.9114 45.6603 53.055 46.7321L33.0742 58.2679C31.2178 59.3397 28.9306 59.3397 27.0742 58.2679L7.09346 46.7321C5.23705 45.6603 4.09346 43.6795 4.09346 41.5359V18.4641C4.09346 16.3205 5.23705 14.3397 7.09346 13.2679L27.0742 1.73205Z" fill="url(#paint0_linear_0_1692)" fill-opacity="0.5"/>
<path d="M27.3242 2.16506C29.0259 1.18258 31.1225 1.18258 32.8242 2.16506L52.805 13.701C54.5067 14.6834 55.555 16.4991 55.555 18.4641V41.5359C55.555 43.5009 54.5067 45.3166 52.805 46.299L32.8242 57.8349C31.1225 58.8174 29.0259 58.8174 27.3242 57.8349L7.34346 46.299C5.64175 45.3166 4.59346 43.5009 4.59346 41.5359V18.4641C4.59346 16.4991 5.64175 14.6834 7.34346 13.701L27.3242 2.16506Z" stroke="white" stroke-opacity="0.12"/>
</g>
<path d="M22.4557 37.192C21.2237 37.192 20.1757 36.976 19.3117 36.544C18.4477 36.096 17.7517 35.472 17.2237 34.672C16.6957 33.872 16.3037 32.952 16.0477 31.912C15.8077 30.872 15.6877 29.752 15.6877 28.552C15.6877 27.336 15.8077 26.2 16.0477 25.144C16.3037 24.088 16.6957 23.168 17.2237 22.384C17.7677 21.584 18.4717 20.96 19.3357 20.512C20.1997 20.048 21.2477 19.816 22.4797 19.816C23.7437 19.816 24.8077 20.056 25.6717 20.536C26.5517 21.016 27.2477 21.664 27.7597 22.48C28.2877 23.296 28.6637 24.224 28.8877 25.264C29.1277 26.304 29.2477 27.392 29.2477 28.528C29.2477 29.648 29.1277 30.728 28.8877 31.768C28.6637 32.808 28.2877 33.736 27.7597 34.552C27.2317 35.368 26.5277 36.016 25.6477 36.496C24.7837 36.96 23.7197 37.192 22.4557 37.192ZM22.4557 34.456C23.2717 34.456 23.9277 34.264 24.4237 33.88C24.9357 33.496 25.3197 33.008 25.5757 32.416C25.8317 31.808 25.9997 31.16 26.0797 30.472C26.1757 29.784 26.2237 29.136 26.2237 28.528C26.2237 27.92 26.1837 27.28 26.1037 26.608C26.0237 25.92 25.8557 25.272 25.5997 24.664C25.3437 24.056 24.9677 23.56 24.4717 23.176C23.9757 22.792 23.3117 22.6 22.4797 22.6C21.6477 22.6 20.9757 22.792 20.4637 23.176C19.9677 23.56 19.5917 24.056 19.3357 24.664C19.0797 25.256 18.9037 25.896 18.8077 26.584C18.7277 27.272 18.6877 27.92 18.6877 28.528C18.6877 29.136 18.7277 29.784 18.8077 30.472C18.8877 31.144 19.0477 31.784 19.2877 32.392C19.5437 33 19.9197 33.496 20.4157 33.88C20.9277 34.264 21.6077 34.456 22.4557 34.456ZM40.0503 37V33.784H31.2183V31.528L39.2343 20.032H43.0023V31.072H44.9463V33.784H43.0023V37H40.0503ZM34.6743 31.072H40.0503V23.176L34.6743 31.072Z" fill="#F9FF38"/>
<defs>
<filter id="filter0_bi_0_1692" x="-2.60625" y="-5.77178" width="65.3609" height="71.5436" filterUnits="userSpaceOnUse" color-interpolation-filters="sRGB">
<feFlood flood-opacity="0" result="BackgroundImageFix"/>
<feGaussianBlur in="BackgroundImageFix" stdDeviation="3.35"/>
<feComposite in2="SourceAlpha" operator="in" result="effect1_backgroundBlur_0_1692"/>
<feBlend mode="normal" in="SourceGraphic" in2="effect1_backgroundBlur_0_1692" result="shape"/>
<feColorMatrix in="SourceAlpha" type="matrix" values="0 0 0 0 0 0 0 0 0 0 0 0 0 0 0 0 0 0 127 0" result="hardAlpha"/>
<feOffset dy="0.666667"/>
<feGaussianBlur stdDeviation="0.333333"/>
<feComposite in2="hardAlpha" operator="arithmetic" k2="-1" k3="1"/>
<feColorMatrix type="matrix" values="0 0 0 0 1 0 0 0 0 1 0 0 0 0 1 0 0 0 0.12 0"/>
<feBlend mode="normal" in2="shape" result="effect2_innerShadow_0_1692"/>
</filter>
<linearGradient id="paint0_linear_0_1692" x1="30.0742" y1="0" x2="30.0742" y2="60" gradientUnits="userSpaceOnUse">
<stop stop-color="#1A2228"/>
<stop offset="1" stop-color="#2D3E4E"/>
</linearGradient>
</defs>
</svg>
