<svg width="32" height="32" viewBox="0 0 32 32" fill="none" xmlns="http://www.w3.org/2000/svg">
<path d="M25.3333 26.6667H6.66667C5.19391 26.6667 4 25.4728 4 24V12C4 10.5273 5.19391 9.33337 6.66667 9.33337H25.3333C26.8061 9.33337 28 10.5273 28 12V24C28 25.4728 26.8061 26.6667 25.3333 26.6667Z" stroke="black" stroke-width="2"/>
<path d="M22.0007 18.6667C21.6325 18.6667 21.334 18.3682 21.334 18C21.334 17.6319 21.6325 17.3334 22.0007 17.3334C22.3688 17.3334 22.6673 17.6319 22.6673 18C22.6673 18.3682 22.3688 18.6667 22.0007 18.6667Z" fill="black" stroke="black" stroke-width="2" stroke-linecap="round" stroke-linejoin="round"/>
<path d="M24 9.33335V7.47098C24 5.7189 22.3392 4.44291 20.6463 4.89435L5.97956 8.80547C4.81223 9.11676 4 10.174 4 11.3821V12" stroke="black" stroke-width="2"/>
</svg>
