<svg width="137" height="31" viewBox="0 0 137 31" fill="none" xmlns="http://www.w3.org/2000/svg">
<path fill-rule="evenodd" clip-rule="evenodd" d="M9.11011 14.0801H7.15551V14.0801H1.67538C0.750091 14.0801 0 14.8302 0 15.7555V16.4893C0 16.8513 0.117243 17.2035 0.334177 17.4933L4.17452 22.6233C4.49086 23.0459 4.98785 23.2946 5.51571 23.2946H7.43448C8.35976 23.2946 9.10986 22.5446 9.10986 21.6193V15.8253H9.11011V14.0801Z" fill="#F9FF38"/>
<path d="M4.54073 8.25093L15.3432 22.1584C15.6606 22.567 16.149 22.806 16.6664 22.806H18.5339C19.4592 22.806 20.2093 22.0559 20.2093 21.1306V14.4791C20.2093 14.1073 20.0856 13.7461 19.8577 13.4524L13.8363 5.68864C13.5189 5.27947 13.0302 5.04004 12.5124 5.04004H5.86385C4.93857 5.04004 4.18848 5.79013 4.18848 6.71541V7.2232C4.18848 7.59539 4.31241 7.95699 4.54073 8.25093Z" fill="#F9FF38"/>
<path d="M19.9648 13.3955V7.16568C19.9648 6.66901 20.1232 6.18529 20.4169 5.78478C20.8568 5.18495 21.5561 4.83057 22.3 4.83057H23.1476C23.891 4.83057 24.5914 5.17884 25.0401 5.77155L35.2603 19.2735C35.5724 19.6858 35.7413 20.1888 35.7413 20.7059V20.7802C35.7413 21.3421 35.5297 21.8834 35.1485 22.2963C34.7254 22.7547 34.13 23.0154 33.5061 23.0154H28.0607C27.3344 23.0154 26.6481 22.6828 26.198 22.1129L20.4756 14.8664C20.1448 14.4475 19.9648 13.9293 19.9648 13.3955Z" fill="#F9FF38"/>
<path d="M42.214 24V6.94394H49.0798C49.931 6.94394 50.742 7.03228 51.5129 7.20894C52.2999 7.36954 53.0065 7.6506 53.6329 8.05211C54.2592 8.45361 54.7491 9.01573 55.1024 9.73844C55.4718 10.4451 55.6565 11.3525 55.6565 12.4607C55.6565 13.2797 55.52 14.0185 55.247 14.677C54.9739 15.3355 54.5724 15.8976 54.0424 16.3633C53.5124 16.8291 52.8781 17.1904 52.1393 17.4474L55.9215 24H52.0429L48.7184 18.0015H45.6589V24H42.214ZM45.6589 14.942H48.8389C49.3368 14.942 49.7865 14.9018 50.188 14.8215C50.6055 14.7252 50.9589 14.5806 51.2479 14.3879C51.5531 14.1952 51.786 13.9382 51.9466 13.617C52.1232 13.2958 52.2116 12.9023 52.2116 12.4366C52.2276 11.8423 52.0991 11.3846 51.8261 11.0634C51.5691 10.7261 51.1998 10.4933 50.7179 10.3648C50.2522 10.2202 49.6981 10.148 49.0557 10.148H45.6589V14.942ZM63.912 24.1686C62.579 24.1686 61.4467 23.9036 60.5152 23.3736C59.5837 22.8437 58.8691 22.0969 58.3712 21.1332C57.8733 20.1536 57.6244 19.0133 57.6244 17.7124C57.6244 16.3954 57.8814 15.2471 58.3953 14.2674C58.9092 13.2717 59.6319 12.4928 60.5634 11.9307C61.511 11.3686 62.6272 11.0875 63.912 11.0875C64.8756 11.0875 65.7188 11.2481 66.4415 11.5693C67.1803 11.8905 67.7986 12.3402 68.2965 12.9184C68.8104 13.4966 69.1878 14.1711 69.4287 14.942C69.6857 15.6968 69.8061 16.5159 69.7901 17.3992C69.7901 17.6241 69.782 17.8409 69.766 18.0497C69.7499 18.2584 69.7178 18.4672 69.6696 18.676H60.973C61.0211 19.1578 61.1577 19.5995 61.3825 20.001C61.6073 20.4025 61.9205 20.7237 62.322 20.9646C62.7396 21.1894 63.2535 21.3019 63.8638 21.3019C64.2653 21.3019 64.6347 21.2617 64.972 21.1814C65.3092 21.0851 65.5983 20.9405 65.8392 20.7478C66.0801 20.5551 66.2488 20.3302 66.3451 20.0733H69.6696C69.4608 21.0208 69.0674 21.7997 68.4892 22.41C67.9271 23.0203 67.2445 23.47 66.4415 23.7591C65.6385 24.0321 64.7953 24.1686 63.912 24.1686ZM61.0452 16.3151H66.562C66.5459 15.8815 66.4335 15.48 66.2247 15.1106C66.032 14.7252 65.7348 14.42 65.3333 14.1952C64.9479 13.9543 64.45 13.8338 63.8397 13.8338C63.2294 13.8338 62.7155 13.9543 62.2979 14.1952C61.8964 14.4361 61.5913 14.7493 61.3825 15.1347C61.1898 15.5041 61.0774 15.8976 61.0452 16.3151ZM71.9629 24V11.3043H74.9983L75.2874 12.7257C75.6086 12.276 75.9619 11.9387 76.3474 11.7139C76.7489 11.473 77.1504 11.3123 77.5519 11.232C77.9534 11.1517 78.3228 11.1116 78.6601 11.1116C79.4149 11.1116 80.0814 11.2561 80.6596 11.5452C81.2378 11.8343 81.7035 12.3001 82.0568 12.9425C82.3941 12.4767 82.7635 12.1154 83.165 11.8584C83.5665 11.5854 83.9921 11.3927 84.4418 11.2802C84.8915 11.1678 85.3492 11.1116 85.8149 11.1116C86.7946 11.1116 87.5816 11.3204 88.1758 11.7379C88.7861 12.1395 89.2278 12.7016 89.5008 13.4243C89.7899 14.147 89.9344 14.9902 89.9344 15.9538V24H86.5618V16.8451C86.5618 16.556 86.5457 16.2589 86.5136 15.9538C86.4814 15.6486 86.4011 15.3596 86.2727 15.0865C86.1602 14.8135 85.9836 14.5887 85.7427 14.412C85.5178 14.2353 85.1966 14.147 84.7791 14.147C84.3775 14.147 84.0403 14.2353 83.7673 14.412C83.4942 14.5887 83.2774 14.8296 83.1168 15.1347C82.9562 15.4238 82.8358 15.745 82.7555 16.0983C82.6912 16.4356 82.6591 16.7809 82.6591 17.1342V24H79.2864V16.821C79.2864 16.548 79.2704 16.2589 79.2382 15.9538C79.2061 15.6486 79.1339 15.3596 79.0214 15.0865C78.909 14.8135 78.7243 14.5887 78.4674 14.412C78.2264 14.2353 77.8892 14.147 77.4556 14.147C76.8613 14.147 76.4036 14.3237 76.0824 14.677C75.7772 15.0143 75.5765 15.4238 75.4801 15.9056C75.3838 16.3713 75.3356 16.805 75.3356 17.2065V24H71.9629ZM92.4775 24V11.3043H95.8501V24H92.4775ZM94.1638 10.0275C93.5374 10.0275 93.0315 9.84283 92.6461 9.47344C92.2607 9.088 92.0679 8.59816 92.0679 8.00392C92.0679 7.37757 92.2687 6.87167 92.6702 6.48622C93.0717 6.10078 93.5776 5.90805 94.1879 5.90805C94.75 5.90805 95.2318 6.10078 95.6333 6.48622C96.0509 6.85561 96.2597 7.35348 96.2597 7.97983C96.2597 8.59013 96.0589 9.088 95.6574 9.47344C95.272 9.84283 94.7741 10.0275 94.1638 10.0275ZM103.703 24.1686C102.274 24.1686 101.214 23.7671 100.523 22.9641C99.8486 22.1611 99.5113 21.061 99.5113 19.6637V14.3156H97.6082V11.3043H99.5113V7.88347H102.884V11.3043H106.738V14.3156H102.884V18.9651C102.884 19.3827 102.932 19.744 103.029 20.0492C103.141 20.3543 103.318 20.5952 103.559 20.7719C103.815 20.9325 104.161 21.0128 104.594 21.0128C104.98 21.0128 105.301 20.9566 105.558 20.8441C105.831 20.7157 106.056 20.5792 106.233 20.4346L107.293 23.0364C106.955 23.3094 106.578 23.5343 106.16 23.7109C105.759 23.8715 105.349 23.9839 104.932 24.0482C104.514 24.1285 104.105 24.1686 103.703 24.1686ZM114.444 24C113.384 24 112.493 23.8715 111.77 23.6146C111.064 23.3576 110.526 22.924 110.156 22.3137C109.803 21.6873 109.626 20.8361 109.626 19.7601V14.3156H107.747V11.3043H109.626V7.90756H112.999V11.3043H115.769V14.3156H112.999V19.2783C112.999 19.8083 113.095 20.2258 113.288 20.531C113.481 20.8361 113.914 20.9887 114.589 20.9887H115.649V24H114.444ZM117.509 24V11.3043H120.882V24H117.509ZM119.195 10.0275C118.569 10.0275 118.063 9.84283 117.678 9.47344C117.292 9.088 117.099 8.59816 117.099 8.00392C117.099 7.37757 117.3 6.87167 117.702 6.48622C118.103 6.10078 118.609 5.90805 119.219 5.90805C119.782 5.90805 120.263 6.10078 120.665 6.48622C121.082 6.85561 121.291 7.35348 121.291 7.97983C121.291 8.59013 121.09 9.088 120.689 9.47344C120.303 9.84283 119.806 10.0275 119.195 10.0275ZM122.375 24L126.807 17.5197L122.591 11.3043H126.518L129.024 15.3033L131.481 11.3043H135.287L131.047 17.5919L135.576 24H131.65L128.879 19.8323L126.133 24H122.375Z" fill="#F1F7F7"/>
</svg>
