<svg width="20" height="20" viewBox="0 0 20 20" fill="none" xmlns="http://www.w3.org/2000/svg">
<path fill-rule="evenodd" clip-rule="evenodd" d="M5.23658 1H5.14591C4.4316 0.999982 3.82963 0.999966 3.34533 1.05721C2.8342 1.11763 2.35677 1.25068 1.94631 1.58753C1.81526 1.69508 1.69508 1.81526 1.58753 1.94631C1.25068 2.35677 1.11763 2.8342 1.05721 3.34533C0.999966 3.82963 0.999982 4.43156 1 5.14587V5.23658C0.999982 5.9509 0.999966 6.55287 1.05721 7.03717C1.11763 7.5483 1.25068 8.02573 1.58753 8.43619C1.69508 8.56724 1.81526 8.68742 1.94631 8.79497C2.35677 9.13182 2.8342 9.26487 3.34533 9.32529C3.82963 9.38254 4.43156 9.38252 5.14587 9.3825H5.23659C5.9509 9.38252 6.55287 9.38254 7.03716 9.32529C7.5483 9.26487 8.02573 9.13182 8.43618 8.79497C8.56724 8.68742 8.68741 8.56724 8.79497 8.43619C9.13182 8.02573 9.26486 7.5483 9.32528 7.03717C9.38253 6.55287 9.38251 5.95094 9.38249 5.23663V5.14591C9.38251 4.4316 9.38253 3.82963 9.32528 3.34533C9.26486 2.8342 9.13182 2.35677 8.79497 1.94631C8.68741 1.81526 8.56724 1.69508 8.43618 1.58753C8.02573 1.25068 7.5483 1.11763 7.03716 1.05721C6.55287 0.999966 5.95089 0.999982 5.23658 1ZM3.52292 2.5596C3.90792 2.51409 4.41987 2.51285 5.19125 2.51285C5.96262 2.51285 6.47457 2.51409 6.85957 2.5596C7.22787 2.60313 7.38019 2.67799 7.47644 2.75697C7.5309 2.80167 7.58083 2.8516 7.62552 2.90605C7.70451 3.0023 7.77936 3.15463 7.82289 3.52292C7.8684 3.90793 7.86964 4.41988 7.86964 5.19125C7.86964 5.96263 7.8684 6.47457 7.82289 6.85958C7.77936 7.22787 7.70451 7.3802 7.62552 7.47645C7.58083 7.5309 7.5309 7.58083 7.47644 7.62553C7.38019 7.70451 7.22787 7.77937 6.85957 7.8229C6.47457 7.86841 5.96262 7.86965 5.19125 7.86965C4.41987 7.86965 3.90792 7.86841 3.52292 7.8229C3.15463 7.77937 3.0023 7.70451 2.90605 7.62553C2.8516 7.58083 2.80166 7.5309 2.75697 7.47645C2.67798 7.3802 2.60313 7.22787 2.5596 6.85958C2.51409 6.47457 2.51285 5.96263 2.51285 5.19125C2.51285 4.41988 2.51409 3.90793 2.5596 3.52292C2.60313 3.15463 2.67798 3.0023 2.75697 2.90605C2.80166 2.8516 2.8516 2.80167 2.90605 2.75697C3.0023 2.67799 3.15463 2.60313 3.52292 2.5596Z" fill="white"/>
<path fill-rule="evenodd" clip-rule="evenodd" d="M14.6189 1H14.5282C13.8139 0.999982 13.2119 0.999966 12.7276 1.05721C12.2165 1.11763 11.7391 1.25068 11.3286 1.58753C11.1975 1.69508 11.0774 1.81526 10.9698 1.94631C10.633 2.35677 10.4999 2.8342 10.4395 3.34533C10.3823 3.82963 10.3823 4.43157 10.3823 5.14589V5.23659C10.3823 5.95091 10.3823 6.55287 10.4395 7.03717C10.4999 7.5483 10.633 8.02573 10.9698 8.43619C11.0774 8.56724 11.1975 8.68742 11.3286 8.79497C11.7391 9.13182 12.2165 9.26487 12.7276 9.32529C13.2119 9.38254 13.8139 9.38252 14.5282 9.3825H14.6189C15.3332 9.38252 15.9352 9.38254 16.4195 9.32529C16.9306 9.26487 17.408 9.13182 17.8185 8.79497C17.9495 8.68742 18.0697 8.56724 18.1773 8.43619C18.5141 8.02573 18.6472 7.5483 18.7076 7.03717C18.7648 6.55285 18.7648 5.9509 18.7648 5.23655V5.14595C18.7648 4.4316 18.7648 3.82965 18.7076 3.34533C18.6472 2.8342 18.5141 2.35677 18.1773 1.94631C18.0697 1.81526 17.9495 1.69508 17.8185 1.58753C17.408 1.25068 16.9306 1.11763 16.4195 1.05721C15.9352 0.999966 15.3332 0.999982 14.6189 1ZM12.9052 2.5596C13.2902 2.51409 13.8022 2.51285 14.5735 2.51285C15.3449 2.51285 15.8569 2.51409 16.2419 2.5596C16.6102 2.60313 16.7625 2.67799 16.8587 2.75697C16.9132 2.80167 16.9631 2.8516 17.0078 2.90605C17.0868 3.0023 17.1617 3.15463 17.2052 3.52292C17.2507 3.90793 17.2519 4.41988 17.2519 5.19125C17.2519 5.96263 17.2507 6.47457 17.2052 6.85958C17.1617 7.22787 17.0868 7.3802 17.0078 7.47645C16.9631 7.5309 16.9132 7.58083 16.8587 7.62553C16.7625 7.70451 16.6102 7.77937 16.2419 7.8229C15.8569 7.86841 15.3449 7.86965 14.5735 7.86965C13.8022 7.86965 13.2902 7.86841 12.9052 7.8229C12.5369 7.77937 12.3846 7.70451 12.2883 7.62553C12.2339 7.58083 12.184 7.5309 12.1393 7.47645C12.0603 7.3802 11.9854 7.22787 11.9419 6.85958C11.8964 6.47457 11.8951 5.96263 11.8951 5.19125C11.8951 4.41988 11.8964 3.90793 11.9419 3.52292C11.9854 3.15463 12.0603 3.0023 12.1393 2.90605C12.184 2.8516 12.2339 2.80167 12.2883 2.75697C12.3846 2.67799 12.5369 2.60313 12.9052 2.5596Z" fill="white"/>
<path fill-rule="evenodd" clip-rule="evenodd" d="M5.23659 10.3823H5.14591C4.43159 10.3823 3.82963 10.3823 3.34533 10.4395C2.8342 10.4999 2.35677 10.633 1.94631 10.9698C1.81526 11.0774 1.69508 11.1976 1.58753 11.3286C1.25068 11.7391 1.11763 12.2165 1.05721 12.7276C0.999966 13.2119 0.999982 13.8139 1 14.5282V14.6189C0.999982 15.3332 0.999966 15.9352 1.05721 16.4195C1.11763 16.9306 1.25068 17.408 1.58753 17.8185C1.69508 17.9495 1.81526 18.0697 1.94631 18.1773C2.35677 18.5141 2.8342 18.6472 3.34533 18.7076C3.82964 18.7648 4.4316 18.7648 5.14594 18.7648H5.23655C5.95089 18.7648 6.55285 18.7648 7.03716 18.7076C7.5483 18.6472 8.02573 18.5141 8.43618 18.1773C8.56724 18.0697 8.68741 17.9495 8.79497 17.8185C9.13182 17.408 9.26486 16.9306 9.32528 16.4195C9.38253 15.9352 9.38251 15.3332 9.38249 14.6189V14.5282C9.38251 13.8139 9.38253 13.2119 9.32528 12.7276C9.26486 12.2165 9.13182 11.7391 8.79497 11.3286C8.68741 11.1976 8.56724 11.0774 8.43618 10.9698C8.02573 10.633 7.5483 10.4999 7.03716 10.4395C6.55286 10.3823 5.95091 10.3823 5.23659 10.3823ZM3.52292 11.9419C3.90792 11.8964 4.41987 11.8952 5.19125 11.8952C5.96262 11.8952 6.47457 11.8964 6.85957 11.9419C7.22787 11.9854 7.38019 12.0603 7.47644 12.1393C7.5309 12.184 7.58083 12.2339 7.62552 12.2884C7.70451 12.3846 7.77936 12.5369 7.82289 12.9052C7.8684 13.2902 7.86964 13.8022 7.86964 14.5736C7.86964 15.3449 7.8684 15.8569 7.82289 16.2419C7.77936 16.6102 7.70451 16.7625 7.62552 16.8587C7.58083 16.9132 7.5309 16.9631 7.47644 17.0078C7.38019 17.0868 7.22787 17.1617 6.85957 17.2052C6.47457 17.2507 5.96262 17.252 5.19125 17.252C4.41987 17.252 3.90792 17.2507 3.52292 17.2052C3.15463 17.1617 3.0023 17.0868 2.90605 17.0078C2.8516 16.9631 2.80166 16.9132 2.75697 16.8587C2.67798 16.7625 2.60313 16.6102 2.5596 16.2419C2.51409 15.8569 2.51285 15.3449 2.51285 14.5736C2.51285 13.8022 2.51409 13.2902 2.5596 12.9052C2.60313 12.5369 2.67798 12.3846 2.75697 12.2884C2.80166 12.2339 2.8516 12.184 2.90605 12.1393C3.0023 12.0603 3.15463 11.9854 3.52292 11.9419Z" fill="white"/>
<path fill-rule="evenodd" clip-rule="evenodd" d="M14.6194 10.3823H14.5287C13.8144 10.3823 13.2124 10.3823 12.7281 10.4395C12.217 10.4999 11.7396 10.633 11.3291 10.9698C11.1981 11.0774 11.0779 11.1976 10.9703 11.3286C10.6335 11.7391 10.5004 12.2165 10.44 12.7276C10.3828 13.2119 10.3828 13.8139 10.3828 14.5282V14.6189C10.3828 15.3332 10.3828 15.9352 10.44 16.4195C10.5004 16.9306 10.6335 17.408 10.9703 17.8185C11.0779 17.9495 11.1981 18.0697 11.3291 18.1773C11.7396 18.5141 12.217 18.6472 12.7281 18.7076C13.2125 18.7648 13.8144 18.7648 14.5288 18.7648H14.6194C15.3337 18.7648 15.9357 18.7648 16.42 18.7076C16.9311 18.6472 17.4085 18.5141 17.819 18.1773C17.95 18.0697 18.0702 17.9495 18.1778 17.8185C18.5146 17.408 18.6477 16.9306 18.7081 16.4195C18.7653 15.9352 18.7653 15.3332 18.7653 14.6189V14.5282C18.7653 13.8139 18.7653 13.212 18.7081 12.7276C18.6477 12.2165 18.5146 11.7391 18.1778 11.3286C18.0702 11.1976 17.95 11.0774 17.819 10.9698C17.4085 10.633 16.9311 10.4999 16.42 10.4395C15.9357 10.3823 15.3337 10.3823 14.6194 10.3823ZM12.9057 11.9419C13.2907 11.8964 13.8027 11.8952 14.5741 11.8952C15.3454 11.8952 15.8574 11.8964 16.2424 11.9419C16.6107 11.9854 16.763 12.0603 16.8592 12.1393C16.9137 12.184 16.9636 12.2339 17.0083 12.2884C17.0873 12.3846 17.1622 12.5369 17.2057 12.9052C17.2512 13.2902 17.2525 13.8022 17.2525 14.5736C17.2525 15.3449 17.2512 15.8569 17.2057 16.2419C17.1622 16.6102 17.0873 16.7625 17.0083 16.8587C16.9636 16.9132 16.9137 16.9631 16.8592 17.0078C16.763 17.0868 16.6107 17.1617 16.2424 17.2052C15.8574 17.2507 15.3454 17.252 14.5741 17.252C13.8027 17.252 13.2907 17.2507 12.9057 17.2052C12.5374 17.1617 12.3851 17.0868 12.2889 17.0078C12.2344 16.9631 12.1845 16.9132 12.1398 16.8587C12.0608 16.7625 11.9859 16.6102 11.9424 16.2419C11.8969 15.8569 11.8957 15.3449 11.8957 14.5736C11.8957 13.8022 11.8969 13.2902 11.9424 12.9052C11.9859 12.5369 12.0608 12.3846 12.1398 12.2884C12.1845 12.2339 12.2344 12.184 12.2889 12.1393C12.3851 12.0603 12.5374 11.9854 12.9057 11.9419Z" fill="white"/>
</svg>
