<svg width="20" height="20" viewBox="0 0 20 20" fill="none" xmlns="http://www.w3.org/2000/svg">
<path fill-rule="evenodd" clip-rule="evenodd" d="M4.70112 8.15332L4.7057 8.16016C3.81854 9.29839 3.29004 10.7299 3.29004 12.2848C3.29004 15.9935 6.2966 19 10.0054 19C13.7142 19 16.7207 15.9935 16.7207 12.2848C16.7207 10.73 16.1923 9.29856 15.3052 8.16036L15.3098 8.15353C14.9946 7.74943 14.6343 7.38228 14.2363 7.05967L14.2319 7.06619C13.3945 6.3871 12.3903 5.90553 11.2904 5.69239L11.2951 5.68534C10.8777 5.60425 10.4465 5.56177 10.0054 5.56177C9.56124 5.56177 9.12717 5.60483 8.70711 5.68701L8.71187 5.69405C7.61541 5.90799 6.61439 6.38873 5.77914 7.06592L5.77477 7.0594C5.37677 7.38202 5.01636 7.74919 4.70112 8.15332ZM10.0054 7.07054C7.12557 7.07054 4.79102 9.40504 4.79102 12.2848C4.79102 15.1645 7.12557 17.499 10.0054 17.499C12.8852 17.499 15.2197 15.1645 15.2197 12.2848C15.2197 9.40504 12.8852 7.07054 10.0054 7.07054Z" fill="white"/>
<path d="M15.8926 7.28513L18.3088 3.68643C18.5152 3.37926 18.7145 3.08251 18.8361 2.82716C18.9634 2.56003 19.1133 2.11907 18.8699 1.66241C18.6265 1.20576 18.1768 1.08445 17.8841 1.0412C17.6042 0.999847 17.2468 0.999924 16.8767 1.00001H15.1301C14.6347 0.999996 14.2126 0.999983 13.8607 1.03274C13.4857 1.06765 13.137 1.14326 12.7977 1.32447C12.4584 1.50568 12.2016 1.75339 11.964 2.04564C11.7411 2.31986 11.5063 2.67069 11.2308 3.08241L10.2388 4.56457C10.8074 4.58147 11.3606 4.65982 11.8919 4.7932L12.46 3.94433C12.7587 3.49811 12.955 3.20608 13.1287 2.99247C13.2925 2.79089 13.4022 2.70321 13.5048 2.64845C13.6073 2.59369 13.7412 2.55132 13.9998 2.52724C14.2739 2.50172 14.6258 2.50097 15.1628 2.50097H16.8276C17.0155 2.50097 17.1674 2.50134 17.292 2.50357C17.2244 2.60823 17.14 2.73456 17.0353 2.89057L14.7959 6.22592C15.1954 6.54221 15.5628 6.89716 15.8926 7.28513Z" fill="white"/>
<path d="M9.76028 4.56489L8.21722 2.28198C7.7125 1.48753 6.8364 1.00586 5.89454 1.00586H2.25292C1.25542 1.00586 0.659227 2.11623 1.2103 2.94768L4.1184 7.28442C4.44827 6.89646 4.81581 6.54152 5.21536 6.22526L2.72188 2.50681H5.89454C6.3247 2.50681 6.72468 2.72785 6.95358 3.09205C6.95801 3.0991 6.96255 3.10608 6.96722 3.11297L8.10517 4.79654C8.63704 4.662 9.1909 4.58263 9.76028 4.56489Z" fill="white"/>
<path fill-rule="evenodd" clip-rule="evenodd" d="M10.0053 10.0129C8.75058 10.0129 7.7334 11.0301 7.7334 12.2849C7.7334 13.5396 8.75058 14.5568 10.0053 14.5568C11.2601 14.5568 12.2773 13.5396 12.2773 12.2849C12.2773 11.0301 11.2601 10.0129 10.0053 10.0129ZM6.2334 12.2849C6.2334 10.2017 7.92218 8.51294 10.0053 8.51294C12.0885 8.51294 13.7773 10.2017 13.7773 12.2849C13.7773 14.368 12.0885 16.0568 10.0053 16.0568C7.92218 16.0568 6.2334 14.368 6.2334 12.2849Z" fill="white"/>
</svg>
