<svg width="20" height="20" viewBox="0 0 20 20" fill="none" xmlns="http://www.w3.org/2000/svg">
<g clip-path="url(#clip0_0_4170)">
<path d="M14.1406 0H5.85938C2.62344 0 0 2.62344 0 5.85938V14.1406C0 17.3766 2.62344 20 5.85938 20H14.1406C17.3766 20 20 17.3766 20 14.1406V5.85938C20 2.62344 17.3766 0 14.1406 0ZM15.6641 10C15.6641 10.5395 15.227 10.9766 14.6875 10.9766H10.9766V14.6875C10.9766 15.227 10.5395 15.6641 10 15.6641C9.46055 15.6641 9.02344 15.227 9.02344 14.6875V10.9766H5.3125C4.77305 10.9766 4.33594 10.5395 4.33594 10C4.33594 9.46055 4.77305 9.02344 5.3125 9.02344H9.02344V5.3125C9.02344 4.77305 9.46055 4.33594 10 4.33594C10.5395 4.33594 10.9766 4.77305 10.9766 5.3125V9.02344H14.6875C15.227 9.02344 15.6641 9.46055 15.6641 10Z" fill="white"/>
</g>
<defs>
<clipPath id="clip0_0_4170">
<rect width="20" height="20" fill="white"/>
</clipPath>
</defs>
</svg>
