<svg width="52" height="54" viewBox="0 0 52 54" fill="none" xmlns="http://www.w3.org/2000/svg">
<g filter="url(#filter0_d_0_2748)">
<path fill-rule="evenodd" clip-rule="evenodd" d="M26 26C25.7836 26 25.5731 25.9298 25.4 25.8C25.1387 25.604 19 20.9432 19 16C19 14.1435 19.7375 12.363 21.0503 11.0503C22.363 9.7375 24.1435 9 26 9C27.8565 9 29.637 9.7375 30.9497 11.0503C32.2625 12.363 33 14.1435 33 16C33 20.9432 26.8613 25.604 26.6 25.8C26.4269 25.9298 26.2164 26 26 26ZM27.6667 13.5056C27.1734 13.1759 26.5933 13 26 13C25.2046 13.0009 24.4421 13.3173 23.8797 13.8797C23.3173 14.4421 23.0009 15.2046 23 16C23 16.5933 23.1759 17.1734 23.5056 17.6667C23.8352 18.1601 24.3038 18.5446 24.8519 18.7716C25.4001 18.9987 26.0033 19.0581 26.5853 18.9424C27.1672 18.8266 27.7018 18.5409 28.1213 18.1213C28.5409 17.7018 28.8266 17.1672 28.9424 16.5853C29.0581 16.0033 28.9987 15.4001 28.7716 14.8519C28.5446 14.3038 28.1601 13.8352 27.6667 13.5056ZM24 30V34C24.0012 35.0605 24.423 36.0772 25.1729 36.8271C25.9228 37.577 26.9395 37.9988 28 38H35V40C35 40.2652 34.8946 40.5196 34.7071 40.7071C34.5196 40.8946 34.2652 41 34 41H20C18.6744 40.9985 17.4035 40.4712 16.4661 39.5339C15.5288 38.5965 15.0015 37.3256 15 36V27.9999C15.0015 26.6743 15.5288 25.4034 16.4661 24.4661C17.4035 23.5287 18.6744 23.0014 20 22.9999H21.0622C21.1551 23.1116 21.2493 23.2233 21.3464 23.3353C22.3882 24.5336 23.545 25.6271 24.8 26.6C24.9948 26.746 25.2147 26.855 25.4489 26.9217C24.9956 27.2964 24.6307 27.7667 24.3802 28.2988C24.1297 28.831 23.9999 29.4119 24 30ZM27.9441 26.0014C28.9135 25.1826 29.8193 24.2914 30.6536 23.3353C30.7507 23.2233 30.8448 23.1116 30.9375 23H34C34.2652 23 34.5196 23.1054 34.7071 23.2929C34.8947 23.4804 35 23.7348 35 24V26H28C27.9907 26 27.9814 26.0004 27.9721 26.0007C27.9628 26.0011 27.9535 26.0014 27.9441 26.0014ZM36 27H28C27.2046 27.0009 26.4421 27.3173 25.8797 27.8797C25.3173 28.4421 25.0009 29.2046 25 30V34C25.0009 34.7954 25.3173 35.5579 25.8797 36.1203C26.4421 36.6827 27.2046 36.9991 28 37H36C36.2652 37 36.5196 36.8946 36.7071 36.7071C36.8946 36.5196 37 36.2652 37 36V28C37 27.7348 36.8946 27.4804 36.7071 27.2929C36.5196 27.1054 36.2652 27 36 27ZM31 33C30.8022 33 30.6089 32.9414 30.4444 32.8315C30.28 32.7216 30.1518 32.5654 30.0761 32.3827C30.0004 32.2 29.9806 31.9989 30.0192 31.8049C30.0578 31.6109 30.153 31.4327 30.2929 31.2929C30.4327 31.153 30.6109 31.0578 30.8049 31.0192C30.9989 30.9806 31.2 31.0004 31.3827 31.0761C31.5654 31.1518 31.7216 31.28 31.8315 31.4444C31.9414 31.6089 32 31.8022 32 32C32 32.2652 31.8946 32.5196 31.7071 32.7071C31.5196 32.8946 31.2652 33 31 33ZM17.9484 20.025C17.3246 18.775 16.9999 17.397 16.9999 16C16.9999 14.603 17.3246 13.225 17.9484 11.975L16.1603 11.0793C15.3972 12.6074 15 14.292 15 16C15 17.708 15.3972 19.3926 16.1603 20.9207L17.9484 20.025ZM11.0001 16C10.9937 13.6703 11.5356 11.3717 12.5821 9.29019L14.3702 10.186C13.4637 11.9897 12.9943 13.9813 13.0001 16C12.9943 18.0187 13.4637 20.0103 14.3702 21.814L12.5821 22.7098C11.5356 20.6283 10.9937 18.3298 11.0001 16ZM39.418 9.29019L37.6299 10.186C38.5364 11.9897 39.0058 13.9813 39.0001 16C39.0058 18.0187 38.5364 20.0103 37.6299 21.814L39.418 22.7098C40.4645 20.6283 41.0065 18.3298 41.0001 16C41.0065 13.6703 40.4645 11.3717 39.418 9.29019ZM35 16C35 14.603 34.6753 13.225 34.0515 11.975L35.8396 11.0794C36.6027 12.6075 37 14.2921 37 16.0001C37 17.7081 36.6027 19.3927 35.8396 20.9208L34.0515 20.025C34.6753 18.775 35 17.397 35 16Z" fill="url(#paint0_linear_0_2748)"/>
</g>
<defs>
<filter id="filter0_d_0_2748" x="0.5" y="0.5" width="51.0002" height="53" filterUnits="userSpaceOnUse" color-interpolation-filters="sRGB">
<feFlood flood-opacity="0" result="BackgroundImageFix"/>
<feColorMatrix in="SourceAlpha" type="matrix" values="0 0 0 0 0 0 0 0 0 0 0 0 0 0 0 0 0 0 127 0" result="hardAlpha"/>
<feOffset dy="2"/>
<feGaussianBlur stdDeviation="5.25"/>
<feComposite in2="hardAlpha" operator="out"/>
<feColorMatrix type="matrix" values="0 0 0 0 0.976471 0 0 0 0 1 0 0 0 0 0.219608 0 0 0 0.5 0"/>
<feBlend mode="normal" in2="BackgroundImageFix" result="effect1_dropShadow_0_2748"/>
<feBlend mode="normal" in="SourceGraphic" in2="effect1_dropShadow_0_2748" result="shape"/>
</filter>
<linearGradient id="paint0_linear_0_2748" x1="26.0001" y1="20.5555" x2="26.0001" y2="41" gradientUnits="userSpaceOnUse">
<stop stop-color="white"/>
<stop offset="1" stop-color="#F9FF38"/>
</linearGradient>
</defs>
</svg>
