<svg width="50" height="54" viewBox="0 0 50 54" fill="none" xmlns="http://www.w3.org/2000/svg">
<g filter="url(#filter0_d_0_2764)">
<path fill-rule="evenodd" clip-rule="evenodd" d="M25 9C17.3882 9 11.2178 11.8584 11.2178 15.3845V16.0096C11.9794 18.5739 17.3188 21.1023 24.9998 21.1023C32.6806 21.1023 38.0201 18.574 38.7821 16.0099V15.3845C38.7821 11.8584 32.6116 9 25 9ZM11.2178 18.424C13.6268 20.8156 18.8289 22.4355 24.9998 22.4355C31.171 22.4355 36.3731 20.8156 38.7821 18.424V22.5711C38.0201 25.1352 32.6806 27.6634 24.9998 27.6634C17.3188 27.6634 11.9794 25.135 11.2178 22.5708V18.424ZM11.2178 24.9852C13.6268 27.3768 18.8289 28.9967 24.9998 28.9967C31.171 28.9967 36.3731 27.3768 38.7821 24.9852V28.9082C38.0201 31.4721 32.6806 34.0004 24.9998 34.0004C17.3188 34.0004 11.9794 31.472 11.2178 28.9081V24.9852ZM11.2178 31.3223C13.6268 33.7139 18.8289 35.3337 24.9998 35.3337C31.171 35.3337 36.3731 33.7139 38.7821 31.3224V34.6157C38.7821 38.1417 32.6117 41.0001 25 41.0001C17.3882 41.0001 11.2178 38.1416 11.2178 34.6157V31.3223Z" fill="url(#paint0_linear_0_2764)"/>
</g>
<defs>
<filter id="filter0_d_0_2764" x="0.717773" y="0.5" width="48.5645" height="53" filterUnits="userSpaceOnUse" color-interpolation-filters="sRGB">
<feFlood flood-opacity="0" result="BackgroundImageFix"/>
<feColorMatrix in="SourceAlpha" type="matrix" values="0 0 0 0 0 0 0 0 0 0 0 0 0 0 0 0 0 0 127 0" result="hardAlpha"/>
<feOffset dy="2"/>
<feGaussianBlur stdDeviation="5.25"/>
<feComposite in2="hardAlpha" operator="out"/>
<feColorMatrix type="matrix" values="0 0 0 0 0.976471 0 0 0 0 1 0 0 0 0 0.219608 0 0 0 0.5 0"/>
<feBlend mode="normal" in2="BackgroundImageFix" result="effect1_dropShadow_0_2764"/>
<feBlend mode="normal" in="SourceGraphic" in2="effect1_dropShadow_0_2764" result="shape"/>
</filter>
<linearGradient id="paint0_linear_0_2764" x1="24.9999" y1="20.5556" x2="24.9999" y2="41.0001" gradientUnits="userSpaceOnUse">
<stop stop-color="white"/>
<stop offset="1" stop-color="#F9FF38"/>
</linearGradient>
</defs>
</svg>
