<svg width="50" height="50" viewBox="0 0 50 50" fill="none" xmlns="http://www.w3.org/2000/svg">
<g filter="url(#filter0_d_0_2777)">
<path fill-rule="evenodd" clip-rule="evenodd" d="M16.1013 8.6001H32.3847C32.9964 8.6001 33.4924 9.09603 33.4924 9.70779C33.4924 10.3196 32.9964 10.8155 32.3847 10.8155H16.1386C15.4353 10.8155 14.9632 10.8161 14.5977 10.841C14.2422 10.8653 14.0691 10.9088 13.9551 10.956C13.5028 11.1434 13.1434 11.5028 12.956 11.9551C12.9088 12.0691 12.8653 12.2422 12.841 12.5977C12.8322 12.727 12.8264 12.8695 12.8226 13.0309H27.2878C29.6542 13.0308 31.5289 13.0308 33.0121 13.2061C34.5347 13.3861 35.7881 13.764 36.8353 14.6233C37.1905 14.9148 37.5161 15.2405 37.8076 15.5957C38.667 16.6428 39.0449 17.8963 39.2247 19.4189C39.4001 20.9021 39.4001 22.7768 39.4001 25.1431V25.2878C39.4001 27.6542 39.4001 29.5289 39.2247 31.0121C39.0449 32.5347 38.667 33.7881 37.8076 34.8353C37.5161 35.1905 37.1905 35.5161 36.8353 35.8076C35.7881 36.667 34.5347 37.0449 33.0121 37.2247C31.5289 37.4001 29.6542 37.4001 27.2878 37.4001H23.4397C20.7256 37.4001 18.5757 37.4001 16.8932 37.1739C15.1617 36.9411 13.7601 36.4507 12.6549 35.3454C11.5496 34.2401 11.0591 32.8385 10.8263 31.107C10.6001 29.4244 10.6001 27.2747 10.6001 24.5604V14.1012C10.6001 13.4448 10.6001 12.8968 10.6308 12.4469C10.6627 11.9786 10.7316 11.5362 10.9093 11.1074C11.3215 10.1122 12.1122 9.32149 13.1074 8.90927C13.5362 8.73162 13.9786 8.66272 14.4469 8.63077C14.8968 8.60008 15.4449 8.60009 16.1013 8.6001ZM33.0001 27.8001C33.8838 27.8001 34.6001 27.0838 34.6001 26.2001C34.6001 25.3164 33.8838 24.6001 33.0001 24.6001C32.1164 24.6001 31.4001 25.3164 31.4001 26.2001C31.4001 27.0838 32.1164 27.8001 33.0001 27.8001Z" fill="url(#paint0_linear_0_2777)"/>
</g>
<defs>
<filter id="filter0_d_0_2777" x="0.100098" y="0.100098" width="49.8" height="49.7998" filterUnits="userSpaceOnUse" color-interpolation-filters="sRGB">
<feFlood flood-opacity="0" result="BackgroundImageFix"/>
<feColorMatrix in="SourceAlpha" type="matrix" values="0 0 0 0 0 0 0 0 0 0 0 0 0 0 0 0 0 0 127 0" result="hardAlpha"/>
<feOffset dy="2"/>
<feGaussianBlur stdDeviation="5.25"/>
<feComposite in2="hardAlpha" operator="out"/>
<feColorMatrix type="matrix" values="0 0 0 0 0.976471 0 0 0 0 1 0 0 0 0 0.219608 0 0 0 0.5 0"/>
<feBlend mode="normal" in2="BackgroundImageFix" result="effect1_dropShadow_0_2777"/>
<feBlend mode="normal" in="SourceGraphic" in2="effect1_dropShadow_0_2777" result="shape"/>
</filter>
<linearGradient id="paint0_linear_0_2777" x1="25.0001" y1="19.0001" x2="25.0001" y2="37.4001" gradientUnits="userSpaceOnUse">
<stop stop-color="white"/>
<stop offset="1" stop-color="#F9FF38"/>
</linearGradient>
</defs>
</svg>
