<svg width="20" height="20" viewBox="0 0 20 20" fill="none" xmlns="http://www.w3.org/2000/svg">
<path fill-rule="evenodd" clip-rule="evenodd" d="M4.701 8.15307L4.70558 8.15991C3.81842 9.29814 3.28992 10.7297 3.28992 12.2846C3.28992 15.9933 6.29648 18.9998 10.0053 18.9998C13.7141 18.9998 16.7206 15.9933 16.7206 12.2846C16.7206 10.7298 16.1922 9.29831 15.3051 8.16011L15.3097 8.15328C14.9945 7.74918 14.6342 7.38203 14.2362 7.05942L14.2318 7.06594C13.3944 6.38685 12.3902 5.90528 11.2903 5.69214L11.295 5.68509C10.8776 5.604 10.4464 5.56152 10.0053 5.56152C9.56112 5.56152 9.12705 5.60458 8.70699 5.68676L8.71175 5.6938C7.61529 5.90774 6.61427 6.38848 5.77902 7.06567L5.77465 7.05915C5.37665 7.38177 5.01624 7.74894 4.701 8.15307ZM10.0053 7.07029C7.12545 7.07029 4.7909 9.40479 4.7909 12.2846C4.7909 15.1643 7.12545 17.4988 10.0053 17.4988C12.8851 17.4988 15.2196 15.1643 15.2196 12.2846C15.2196 9.40479 12.8851 7.07029 10.0053 7.07029Z" fill="#F9FF38"/>
<path d="M15.8927 7.28513L18.3089 3.68643C18.5153 3.37926 18.7146 3.08251 18.8362 2.82716C18.9635 2.56003 19.1134 2.11907 18.87 1.66241C18.6266 1.20576 18.1769 1.08445 17.8842 1.0412C17.6043 0.999847 17.2469 0.999924 16.8768 1.00001H15.1302C14.6348 0.999996 14.2127 0.999983 13.8608 1.03274C13.4858 1.06765 13.1371 1.14326 12.7978 1.32447C12.4585 1.50568 12.2017 1.75339 11.9641 2.04564C11.7412 2.31986 11.5064 2.67069 11.2309 3.08241L10.2389 4.56457C10.8075 4.58147 11.3607 4.65982 11.892 4.7932L12.4601 3.94433C12.7588 3.49811 12.9551 3.20608 13.1288 2.99247C13.2926 2.79089 13.4023 2.70321 13.5049 2.64845C13.6074 2.59369 13.7413 2.55132 13.9999 2.52724C14.274 2.50172 14.6259 2.50097 15.1629 2.50097H16.8277C17.0156 2.50097 17.1675 2.50134 17.2921 2.50357C17.2245 2.60823 17.1401 2.73456 17.0354 2.89057L14.796 6.22592C15.1955 6.54221 15.5629 6.89716 15.8927 7.28513Z" fill="#F9FF38"/>
<path d="M9.76028 4.56489L8.21722 2.28198C7.7125 1.48753 6.8364 1.00586 5.89454 1.00586H2.25292C1.25542 1.00586 0.659227 2.11623 1.2103 2.94768L4.1184 7.28442C4.44827 6.89646 4.81581 6.54152 5.21536 6.22526L2.72188 2.50681H5.89454C6.3247 2.50681 6.72468 2.72785 6.95358 3.09205C6.95801 3.0991 6.96255 3.10608 6.96722 3.11297L8.10517 4.79654C8.63704 4.662 9.1909 4.58263 9.76028 4.56489Z" fill="#F9FF38"/>
<path fill-rule="evenodd" clip-rule="evenodd" d="M10.0052 10.0131C8.75046 10.0131 7.73328 11.0303 7.73328 12.2851C7.73328 13.5398 8.75046 14.557 10.0052 14.557C11.26 14.557 12.2772 13.5398 12.2772 12.2851C12.2772 11.0303 11.26 10.0131 10.0052 10.0131ZM6.23328 12.2851C6.23328 10.2019 7.92206 8.51318 10.0052 8.51318C12.0884 8.51318 13.7772 10.2019 13.7772 12.2851C13.7772 14.3682 12.0884 16.057 10.0052 16.057C7.92206 16.057 6.23328 14.3682 6.23328 12.2851Z" fill="#F9FF38"/>
</svg>
