<svg width="20" height="20" viewBox="0 0 20 20" fill="none" xmlns="http://www.w3.org/2000/svg">
<g clip-path="url(#clip0_0_5236)">
<path fill-rule="evenodd" clip-rule="evenodd" d="M2.98145 7.48786C2.98145 7.07388 3.31723 6.73828 3.73145 6.73828H6.18754C6.60175 6.73828 6.93754 7.07388 6.93754 7.48786C6.93754 7.90184 6.60175 8.23744 6.18754 8.23744H3.73145C3.31723 8.23744 2.98145 7.90184 2.98145 7.48786Z" fill="white"/>
<path fill-rule="evenodd" clip-rule="evenodd" d="M15.5392 3.63883C14.5115 3.50074 13.1569 3.49915 11.2501 3.49915H8.42686C9.27453 4.37884 9.79578 5.57492 9.79578 6.89268V16.5008H13.25C14.6855 16.5008 15.6866 16.4993 16.4419 16.3978C17.1757 16.2992 17.5643 16.1188 17.841 15.8422C18.1178 15.5656 18.2982 15.1773 18.3969 14.4439C18.4985 13.689 18.5 12.6884 18.5 11.2538V10.745C18.5 8.83931 18.4985 7.48541 18.3603 6.45832C18.225 5.4528 17.9714 4.87349 17.5481 4.45052C17.1249 4.02755 16.5453 3.77402 15.5392 3.63883ZM8.29578 16.5008V6.89268C8.29578 5.01848 6.77558 3.49915 4.90033 3.49915C3.02508 3.49915 1.50488 5.01848 1.50488 6.89267V11.8126C1.50488 12.9734 1.50595 13.7828 1.57437 14.4037C1.6412 15.0101 1.7647 15.3456 1.94886 15.5933C2.08004 15.7697 2.2364 15.926 2.41295 16.0571C2.6608 16.2412 2.99646 16.3646 3.60322 16.4314C4.22446 16.4998 5.03429 16.5008 6.19578 16.5008H8.29578ZM4.90033 2H11.3065C13.1442 1.99998 14.5999 1.99997 15.7391 2.15305C16.9115 2.31059 17.8604 2.64252 18.6088 3.39046C19.3572 4.1384 19.6893 5.08681 19.8469 6.25857C20.0001 7.39714 20.0001 8.85195 20 10.6887V11.3087C20.0001 12.6755 20.0001 13.7772 19.8835 14.6437C19.7625 15.5433 19.5036 16.3007 18.9017 16.9023C18.2998 17.5038 17.5419 17.7626 16.6418 17.8835C15.7748 18 14.6725 18 13.3049 18H6.15172C5.04465 18 4.15199 18 3.439 17.9215C2.70211 17.8404 2.06717 17.668 1.51833 17.2605C1.22408 17.0419 0.963481 16.7815 0.744844 16.4874C0.337037 15.9389 0.16455 15.3043 0.0833878 14.5678C0.00485843 13.8552 0.00486952 12.9631 0.00488317 11.8566L0.00488353 6.89267C0.00488353 4.19053 2.19665 2 4.90033 2Z" fill="white"/>
<path d="M13.3643 9.2235V8.23745H11.9038C11.4896 8.23745 11.1538 7.90186 11.1538 7.48788C11.1538 7.0739 11.4896 6.7383 11.9038 6.7383L15.1361 6.73829C15.3412 6.73821 15.563 6.73813 15.7502 6.76328C15.9695 6.79275 16.2497 6.86854 16.4855 7.10421C16.7213 7.33987 16.7972 7.6199 16.8266 7.83909C16.8518 8.02621 16.8517 8.24787 16.8516 8.45287V9.22347L16.8517 9.24213C16.8518 9.31732 16.852 9.43601 16.8376 9.54268C16.8191 9.68024 16.7653 9.90298 16.5734 10.0948C16.3815 10.2865 16.1587 10.3404 16.021 10.3589C15.9143 10.3732 15.7955 10.373 15.7203 10.3729H15.7016H14.5143H14.4957C14.4204 10.373 14.3017 10.3732 14.195 10.3589C14.0573 10.3404 13.8345 10.2865 13.6426 10.0948C13.4507 9.90299 13.3969 9.68025 13.3784 9.5427C13.364 9.43603 13.3642 9.31734 13.3643 9.24215V9.2235Z" fill="white"/>
</g>
<defs>
<clipPath id="clip0_0_5236">
<rect width="20" height="20" fill="white"/>
</clipPath>
</defs>
</svg>
