<svg width="82" height="97" viewBox="0 0 82 97" fill="none" xmlns="http://www.w3.org/2000/svg">
<g opacity="0.35">
<path d="M41.1109 0.740234L3.12891 22.6702V74.9912L41.1109 96.9202L79.0929 74.9912V22.6702L41.1109 0.740234Z" fill="url(#paint0_linear_0_2839)"/>
<path d="M9.99707 71.0254V26.6354L41.1111 8.67236L72.2251 26.6354V71.0254L41.1111 88.9884L9.99707 71.0254Z" fill="url(#paint1_linear_0_2839)"/>
<path d="M12.2869 69.7034V27.9574L41.1109 11.3164L69.9349 27.9574V69.7034L41.1109 86.3444L12.2869 69.7034Z" fill="#736FA8"/>
<path opacity="0.5" d="M4.07702 22.8091C3.60802 24.2151 7.64403 25.9441 10.488 25.3281C13.332 24.7111 40.063 9.02512 40.711 7.62212C40.892 7.23112 40.921 1.74512 40.711 1.74512C39.77 1.74412 4.30602 22.1221 4.07702 22.8091Z" fill="white"/>
<path opacity="0.5" d="M77.9621 22.8091C78.4311 24.2151 74.395 25.9441 71.551 25.3281C68.707 24.7111 42.2291 8.87812 41.3281 7.62212C40.8631 6.97312 40.7101 1.74512 41.3281 1.74512C42.2691 1.74412 77.7331 22.1221 77.9621 22.8091Z" fill="white"/>
<path opacity="0.5" d="M4.04001 52.5653C3.78501 54.1303 3.16301 73.9353 4.04001 74.0873C4.91701 74.2403 9.038 71.4163 9.267 70.1183C9.496 68.8213 9.572 55.2363 9.267 53.9383C8.961 52.6413 4.46401 49.9583 4.04001 52.5653Z" fill="url(#paint2_linear_0_2839)"/>
<path opacity="0.5" d="M78.035 52.5653C78.29 54.1303 78.912 73.9353 78.035 74.0873C77.158 74.2403 73.0369 71.4163 72.8079 70.1183C72.5789 68.8213 72.5029 55.2363 72.8079 53.9383C73.1129 52.6413 77.61 49.9583 78.035 52.5653Z" fill="url(#paint3_linear_0_2839)"/>
<path opacity="0.5" d="M4.99293 74.6273C5.45293 75.3043 39.6599 95.5293 40.1749 95.5293C40.4339 95.5293 40.7769 90.5033 40.7769 89.9423C40.7769 88.3793 10.5259 72.3143 9.99693 72.1653C9.21593 71.9453 4.52693 73.9403 4.99293 74.6273Z" fill="url(#paint4_linear_0_2839)"/>
<path opacity="0.5" d="M77.2908 75.1554C76.8308 75.8324 41.9828 95.9904 41.4678 95.9904C41.3558 95.9904 41.3498 89.7354 41.5818 89.5034C42.6868 88.3984 71.5368 72.3144 72.0658 72.1654C72.8468 71.9454 77.7568 74.4694 77.2908 75.1554Z" fill="url(#paint5_linear_0_2839)"/>
<path opacity="0.5" d="M13.607 68.592C11.568 57.025 12.705 56.2961 27.053 51.4101C41.401 46.524 65.674 33.926 67.804 39.396C69.935 44.866 69.204 68.138 68.72 69.411C68.236 70.684 43.18 85.082 41.111 85.116C39.042 85.15 13.836 69.891 13.607 68.592Z" fill="url(#paint6_linear_0_2839)"/>
<path opacity="0.3" d="M69.3139 28.2463C68.8079 28.1243 42.7599 13.0693 41.2899 13.1813C39.8949 13.2873 21.7449 21.7753 14.3039 28.1893C12.3199 29.8993 13.0449 55.4393 14.8759 54.9683C16.7079 54.4983 18.0719 44.1773 38.2299 38.3773C58.0789 32.6673 66.7129 37.6073 68.8669 38.4923C69.4749 38.7423 70.4669 28.5253 69.3139 28.2463Z" fill="white"/>
<path opacity="0.5" d="M9.99707 71.0254V26.6354L41.1111 8.67236L72.2251 26.6354V71.0254L69.9351 69.7034C69.9351 69.7034 70.0741 31.1174 69.244 29.9064C66.284 25.5884 43.2671 15.0894 39.4901 16.2584C35.6251 17.4544 15.1591 26.1674 12.8701 29.8304C12.0991 31.0644 12.2881 69.7034 12.2881 69.7034L9.99707 71.0254Z" fill="url(#paint7_linear_0_2839)"/>
<path opacity="0.2" d="M46.9249 32.695C54.6769 36.229 66.354 36.29 67.423 35.617C68.491 34.943 69.202 29.969 67.523 29.129C65.844 28.29 52.54 21.206 49.03 21.969C45.519 22.732 45.5549 32.071 46.9249 32.695Z" fill="white"/>
<path d="M3.12891 38.6092C3.12891 38.4922 3.4569 23.8532 4.0769 22.8082C4.6969 21.7642 40.2929 2.02422 41.3279 1.74422C42.3629 1.46322 55.6969 9.16222 55.6969 9.16222L41.1109 0.741211L3.12891 22.6702V38.6092Z" fill="url(#paint8_linear_0_2839)"/>
<path d="M54.7061 16.521C54.7061 16.521 71.3911 26.014 71.6201 27.083C71.8491 28.151 72.2241 56.839 72.2241 56.839C72.2241 56.839 72.3821 27.859 72.2241 26.636C72.0671 25.412 54.7061 16.521 54.7061 16.521Z" fill="white"/>
<path d="M9.99706 50.9624C9.99706 50.9624 9.44305 26.9644 9.72405 26.1864C10.0051 25.4074 41.11 8.67236 41.11 8.67236C41.11 8.67236 11.0751 25.8424 10.4571 26.9304C9.83905 28.0174 9.99706 50.9624 9.99706 50.9624Z" fill="white"/>
<path d="M3.12894 74.9911L41.1109 96.9201L79.0929 74.9911V63.0741C79.0929 63.0741 78.7749 73.4781 77.9989 74.7741C77.2229 76.0701 43.2 95.8571 41.4669 95.9911C39.7339 96.1251 4.94994 75.4611 4.03894 74.0871C3.12794 72.7131 3.12793 48.3291 3.12793 48.3291V74.9911H3.12894Z" fill="url(#paint9_linear_0_2839)"/>
<path d="M9.99689 59.6621C9.99689 59.6621 9.88888 69.9001 10.4569 70.7591C11.0249 71.6181 25.7839 80.1391 25.7839 80.1391C25.7839 80.1391 9.79387 71.8731 9.64487 71.3391C9.49587 70.8051 9.99689 59.6621 9.99689 59.6621Z" fill="white"/>
<path opacity="0.5" d="M22.848 80.3462C21.727 80.3492 18.585 81.6072 19.264 82.3502C19.812 82.9492 38.64 94.3662 40.776 95.1512C41.473 95.4072 41.406 90.9562 40.471 89.5182C40.071 88.9032 26.322 80.3372 22.848 80.3462Z" fill="white"/>
<path d="M54.487 9.37637C53.576 9.62237 56.624 13.4594 58.074 13.8034C59.524 14.1464 61.508 13.1154 60.821 12.4104C60.134 11.7044 55.899 8.99537 54.487 9.37637Z" fill="white"/>
<path d="M61.2421 13.181C59.8601 13.551 62.4091 19.613 63.5001 20.691C64.5911 21.769 74.2851 23.659 74.0621 21.912C73.8401 20.165 63.1831 12.661 61.2421 13.181Z" fill="white"/>
<path opacity="0.5" d="M58.6269 80.4484C57.8089 84.0214 57.9399 86.1274 58.3979 86.1494C58.8559 86.1724 75.4649 76.1754 75.9179 75.7364C76.3709 75.2964 73.2549 72.4274 71.9729 72.6244C70.6909 72.8214 58.9329 79.1134 58.6269 80.4484Z" fill="url(#paint10_linear_0_2839)"/>
<path opacity="0.5" d="M12.0139 27.6553C11.6129 26.4523 10.3849 26.4593 10.2729 27.8003C10.1609 29.1423 9.9689 54.0143 10.4569 54.0533C10.9449 54.0913 11.9749 52.8703 12.0139 52.2983C12.0519 51.7253 12.2049 28.2273 12.0139 27.6553Z" fill="url(#paint11_linear_0_2839)"/>
<path opacity="0.5" d="M70.2078 27.8071C70.1428 28.2811 69.9028 51.7631 70.2078 51.7631C70.5128 51.7631 71.8868 50.6561 71.8868 50.0841C71.8868 49.5121 71.5438 27.3111 71.3908 27.1971C71.2388 27.0831 70.2618 27.4241 70.2078 27.8071Z" fill="url(#paint12_linear_0_2839)"/>
<path opacity="0.5" d="M41.1109 10.931C41.1109 11.393 27.7269 19.031 27.4119 19.031C27.0969 19.031 27.2119 16.97 27.6409 16.684C28.0699 16.398 41.0149 8.61302 41.1109 8.87102C41.2069 9.12802 41.1109 10.547 41.1109 10.931Z" fill="url(#paint13_linear_0_2839)"/>
<path d="M68.737 72.8071C67.883 72.7741 64.995 74.4531 65.214 75.2741C65.433 76.0951 67.2 76.9811 67.67 76.5061C68.139 76.0311 69.296 72.8281 68.737 72.8071Z" fill="#394773"/>
<path d="M69.8369 73.3833C69.5429 73.6543 68.9029 74.6163 69.5129 75.0863C70.1229 75.5563 71.9169 74.3163 71.6519 73.9523C71.3859 73.5883 70.2169 73.0333 69.8369 73.3833Z" fill="#394773"/>
<path opacity="0.5" d="M65.6377 74.4493C64.9257 75.4133 67.8458 76.0543 68.2258 75.2423C68.6058 74.4313 69.2157 72.7213 68.7367 72.8063C68.2577 72.8913 66.0257 73.9233 65.6377 74.4493Z" fill="url(#paint14_linear_0_2839)"/>
<path d="M65.2269 75.0371C65.2269 75.0371 65.4649 75.8581 66.3309 76.3661C67.0109 76.7651 67.5969 76.6751 67.7699 76.3801C67.7699 76.3801 67.2389 77.0731 66.3539 76.6601C64.9679 76.0131 65.2269 75.0371 65.2269 75.0371Z" fill="#DAE1EF"/>
<path opacity="0.5" d="M70.1619 73.4095C69.5029 74.1195 70.0149 75.1445 70.3849 75.0865C70.7549 75.0285 71.8589 74.2995 71.6509 73.9535C71.4429 73.6075 70.3059 73.2535 70.1619 73.4095Z" fill="url(#paint15_linear_0_2839)"/>
<path d="M69.8371 73.3833C69.8371 73.3833 69.2311 74.2163 69.4741 74.6963C69.7171 75.1763 70.0611 75.1743 70.0611 75.1743C70.0611 75.1743 69.2771 75.6303 69.1331 75.0953C68.8831 74.1703 69.8371 73.3833 69.8371 73.3833Z" fill="#DAE1EF"/>
<path d="M37.2009 10.6711C35.1549 10.1301 33.5009 11.4561 32.6039 12.4741C31.7069 13.4921 32.2069 14.0981 33.3349 13.8971C34.4629 13.6981 38.0629 10.8991 37.2009 10.6711Z" fill="#394773"/>
<path opacity="0.5" d="M37.2008 10.6712C35.8168 10.1992 34.0658 11.1162 33.5158 11.6042C32.9658 12.0922 34.0468 13.4752 34.7918 13.1802C35.5368 12.8862 37.8308 10.8872 37.2008 10.6712Z" fill="url(#paint16_linear_0_2839)"/>
<path d="M33.1179 11.9473C33.1179 11.9473 30.8059 13.4613 31.0649 14.2123C31.3239 14.9633 34.0959 13.5943 34.0959 13.5943C34.0959 13.5943 32.6589 14.0633 32.3329 13.4253C32.0079 12.7863 33.1179 11.9473 33.1179 11.9473Z" fill="white"/>
<path d="M11.3219 71.3302C10.2329 71.6022 13.4599 73.8182 14.2229 73.9332C14.9859 74.0472 14.2339 72.1042 13.8639 71.7692C13.5929 71.5232 11.9329 71.1772 11.3219 71.3302Z" fill="white"/>
<path d="M41.081 73.4661L1.87201 50.5991C0.356009 54.0541 0 57.2971 0 57.2971L2.55798 61.6211L41.081 83.9951L79.604 61.6211L81.924 57.2971C81.924 57.2971 81.929 54.0541 80.52 50.5991L41.081 73.4661Z" fill="url(#paint17_linear_0_2839)"/>
<path d="M2.55899 61.6209L0 57.2959L41.081 81.3619L81.924 57.2959L79.604 61.6209L41.081 83.9939L2.55899 61.6209Z" fill="url(#paint18_linear_0_2839)"/>
<path opacity="0.5" d="M0 57.2959L2.55798 61.6199L3.142 61.9799L3.129 63.2679C3.129 63.2679 5.32699 64.3879 9.64499 66.7729C9.79099 66.8539 12.358 69.5649 12.358 69.5649C12.358 69.5649 40.109 86.3449 41.111 86.3449C42.406 86.3449 69.937 69.1939 69.937 69.1939C69.937 69.1939 72.081 67.3929 72.295 67.2679L79.094 63.7079V61.9179L79.604 61.6219L81.924 57.2979L41.082 81.3609L0 57.2959Z" fill="url(#paint19_linear_0_2839)"/>
<path opacity="0.5" d="M41.0811 73.4661V81.3631L81.9231 57.2971C81.9231 57.2971 81.7601 53.3381 80.5191 50.5991L41.0811 73.4661Z" fill="url(#paint20_linear_0_2839)"/>
<path opacity="0.5" d="M3.89006 52.334C3.14006 52.334 3.75507 58.974 6.03307 60.5C9.65207 62.925 31.4741 75.787 32.9041 75.802C33.8911 75.813 33.8401 70.172 33.5431 69.735C32.9811 68.906 5.00906 52.333 3.89006 52.334Z" fill="white"/>
<path opacity="0.5" d="M53.2079 66.644C52.7339 67.134 52.7989 73.339 53.6089 73.154C54.4189 72.969 66.7529 66.383 72.5699 62.113C78.3859 57.843 79.2069 52.212 77.8979 52.336C77.8979 52.336 54.1809 65.639 53.2079 66.644Z" fill="white"/>
<path d="M21.104 69.6602C21.104 69.6602 39.878 80.9182 41.081 80.9182C42.283 80.9182 57.272 71.8212 57.272 71.8212C57.272 71.8212 41.539 81.7962 41.111 81.7962C40.778 81.7952 21.104 69.6602 21.104 69.6602Z" fill="white"/>
</g>
<path fill-rule="evenodd" clip-rule="evenodd" d="M32.1854 43.2544H30.0185V43.2544H23.9433C22.9175 43.2544 22.0859 44.086 22.0859 45.1118V45.9253C22.0859 46.3266 22.2159 46.7172 22.4564 47.0384L26.7139 52.7257C27.0646 53.1942 27.6156 53.47 28.2008 53.47H30.328C31.3538 53.47 32.1854 52.6384 32.1854 51.6126V45.1118C32.1854 45.1098 32.1854 45.1078 32.1854 45.1058V43.2544Z" fill="#848BA1"/>
<path d="M27.1198 36.7916L39.0958 52.2098C39.4476 52.6628 39.989 52.9278 40.5626 52.9278H42.633C43.6588 52.9278 44.4904 52.0963 44.4904 51.0705V43.6964C44.4904 43.2842 44.3533 42.8838 44.1007 42.5581L37.4251 33.951C37.0733 33.4974 36.5315 33.2319 35.9574 33.2319H28.5866C27.5608 33.2319 26.7292 34.0635 26.7292 35.0893V35.6523C26.7292 36.0649 26.8666 36.4658 27.1198 36.7916Z" fill="#848BA1"/>
<path d="M44.2197 42.4954V35.5888C44.2197 35.0382 44.3953 34.5019 44.7209 34.0579C45.2086 33.3929 45.9839 33 46.8085 33H47.7483C48.5724 33 49.3489 33.3861 49.8463 34.0432L61.1767 49.0119C61.5227 49.469 61.71 50.0266 61.71 50.5999V50.6823C61.71 51.3052 61.4754 51.9053 61.0529 52.363C60.5838 52.8712 59.9236 53.1602 59.232 53.1602H53.195C52.3898 53.1602 51.629 52.7916 51.13 52.1597L44.786 44.1261C44.4192 43.6617 44.2197 43.0871 44.2197 42.4954Z" fill="#848BA1"/>
<defs>
<linearGradient id="paint0_linear_0_2839" x1="41.111" y1="98.5719" x2="41.111" y2="16.098" gradientUnits="userSpaceOnUse">
<stop offset="0.2103" stop-color="#98ABD2"/>
<stop offset="0.4881" stop-color="#72719D"/>
<stop offset="1" stop-color="#DAE1EF"/>
</linearGradient>
<linearGradient id="paint1_linear_0_2839" x1="41.1112" y1="13.6397" x2="41.1112" y2="88.7744" gradientUnits="userSpaceOnUse">
<stop offset="0.2103" stop-color="#98ABD2"/>
<stop offset="0.4881" stop-color="#72719D"/>
<stop offset="1" stop-color="#DAE1EF"/>
</linearGradient>
<linearGradient id="paint2_linear_0_2839" x1="6.52741" y1="83.9325" x2="6.52741" y2="38.4631" gradientUnits="userSpaceOnUse">
<stop stop-color="#705AB8"/>
<stop offset="1" stop-color="white"/>
</linearGradient>
<linearGradient id="paint3_linear_0_2839" x1="75.5469" y1="83.9325" x2="75.5469" y2="38.4631" gradientUnits="userSpaceOnUse">
<stop stop-color="#705AB8"/>
<stop offset="1" stop-color="white"/>
</linearGradient>
<linearGradient id="paint4_linear_0_2839" x1="13.456" y1="66.965" x2="31.8366" y2="96.7769" gradientUnits="userSpaceOnUse">
<stop stop-color="#705AB8"/>
<stop offset="1" stop-color="white"/>
</linearGradient>
<linearGradient id="paint5_linear_0_2839" x1="54.4086" y1="70.723" x2="67.5738" y2="109.761" gradientUnits="userSpaceOnUse">
<stop stop-color="#705AB8"/>
<stop offset="1" stop-color="white"/>
</linearGradient>
<linearGradient id="paint6_linear_0_2839" x1="41.0353" y1="91.5139" x2="41.0353" y2="28.6526" gradientUnits="userSpaceOnUse">
<stop stop-color="#705AB8"/>
<stop offset="1" stop-color="white"/>
</linearGradient>
<linearGradient id="paint7_linear_0_2839" x1="9.99757" y1="39.8488" x2="72.2248" y2="39.8488" gradientUnits="userSpaceOnUse">
<stop stop-color="#8980EB"/>
<stop offset="1" stop-color="#705AB8"/>
</linearGradient>
<linearGradient id="paint8_linear_0_2839" x1="3.12851" y1="19.6751" x2="55.6973" y2="19.6751" gradientUnits="userSpaceOnUse">
<stop stop-color="#728EE3"/>
<stop offset="1" stop-color="#836888"/>
</linearGradient>
<linearGradient id="paint9_linear_0_2839" x1="3.12853" y1="72.6244" x2="79.0934" y2="72.6244" gradientUnits="userSpaceOnUse">
<stop stop-color="#728EE3"/>
<stop offset="1" stop-color="#836888"/>
</linearGradient>
<linearGradient id="paint10_linear_0_2839" x1="58.0332" y1="79.3826" x2="75.9629" y2="79.3826" gradientUnits="userSpaceOnUse">
<stop stop-color="#8980EB"/>
<stop offset="1" stop-color="#705AB8"/>
</linearGradient>
<linearGradient id="paint11_linear_0_2839" x1="10.1404" y1="40.4133" x2="12.1081" y2="40.4133" gradientUnits="userSpaceOnUse">
<stop stop-color="#8980EB"/>
<stop offset="1" stop-color="#705AB8"/>
</linearGradient>
<linearGradient id="paint12_linear_0_2839" x1="70.0569" y1="39.469" x2="71.8874" y2="39.469" gradientUnits="userSpaceOnUse">
<stop stop-color="#8980EB"/>
<stop offset="1" stop-color="#705AB8"/>
</linearGradient>
<linearGradient id="paint13_linear_0_2839" x1="27.2326" y1="13.9475" x2="41.1535" y2="13.9475" gradientUnits="userSpaceOnUse">
<stop stop-color="#8980EB"/>
<stop offset="1" stop-color="#705AB8"/>
</linearGradient>
<linearGradient id="paint14_linear_0_2839" x1="67.0253" y1="73.5264" x2="68.0427" y2="75.4459" gradientUnits="userSpaceOnUse">
<stop stop-color="#8980EB"/>
<stop offset="1" stop-color="#705AB8"/>
</linearGradient>
<linearGradient id="paint15_linear_0_2839" x1="70.276" y1="73.344" x2="71.0417" y2="74.7887" gradientUnits="userSpaceOnUse">
<stop stop-color="#8980EB"/>
<stop offset="1" stop-color="#705AB8"/>
</linearGradient>
<linearGradient id="paint16_linear_0_2839" x1="34.9666" y1="10.752" x2="35.9198" y2="12.6076" gradientUnits="userSpaceOnUse">
<stop stop-color="#8980EB"/>
<stop offset="1" stop-color="#705AB8"/>
</linearGradient>
<linearGradient id="paint17_linear_0_2839" x1="40.9619" y1="23.4541" x2="40.9619" y2="83.2281" gradientUnits="userSpaceOnUse">
<stop offset="0.2103" stop-color="#98ABD2"/>
<stop offset="0.4881" stop-color="#72719D"/>
<stop offset="1" stop-color="#DAE1EF"/>
</linearGradient>
<linearGradient id="paint18_linear_0_2839" x1="0.0002" y1="70.6453" x2="81.9237" y2="70.6453" gradientUnits="userSpaceOnUse">
<stop offset="0.2103" stop-color="#98ABD2"/>
<stop offset="0.4881" stop-color="#72719D"/>
<stop offset="1" stop-color="#DAE1EF"/>
</linearGradient>
<linearGradient id="paint19_linear_0_2839" x1="40.9619" y1="86.8433" x2="40.9619" y2="61.9346" gradientUnits="userSpaceOnUse">
<stop stop-color="#8980EB"/>
<stop offset="1" stop-color="#705AB8"/>
</linearGradient>
<linearGradient id="paint20_linear_0_2839" x1="62.5821" y1="82.0925" x2="59.944" y2="51.1121" gradientUnits="userSpaceOnUse">
<stop stop-color="#705AB8"/>
<stop offset="1" stop-color="white"/>
</linearGradient>
</defs>
</svg>
