<svg width="76" height="97" viewBox="0 0 76 97" fill="none" xmlns="http://www.w3.org/2000/svg">
<g opacity="0.3">
<path d="M37.979 0.000976562L0.000976562 21.927V74.243L37.979 96.169L75.958 74.243V21.927L37.979 0.000976562Z" fill="url(#paint0_linear_0_2790)"/>
<path d="M6.8689 70.2772V25.8932L37.9799 7.93115L69.0899 25.8932V70.2772L37.9799 88.2392L6.8689 70.2772Z" fill="url(#paint1_linear_0_2790)"/>
<path d="M9.15796 68.9562V27.2142L37.98 10.5752L66.8 27.2142V68.9562L37.98 85.5952L9.15796 68.9562Z" fill="#736FA8"/>
<path opacity="0.5" d="M0.949087 22.0659C0.480087 23.4719 4.51608 25.2009 7.35908 24.5839C10.2021 23.9669 36.9311 8.28291 37.5791 6.87991C37.7591 6.48891 37.7891 1.00391 37.5791 1.00391C36.6391 1.00391 1.17809 21.3789 0.949087 22.0659Z" fill="white"/>
<path opacity="0.5" d="M74.8269 22.0659C75.2949 23.4719 71.26 25.2009 68.417 24.5839C65.574 23.9669 39.0979 8.13491 38.1969 6.87991C37.7319 6.23091 37.5789 1.00391 38.1969 1.00391C39.137 1.00391 74.5979 21.3789 74.8269 22.0659Z" fill="white"/>
<path opacity="0.5" d="M0.912082 51.8192C0.657082 53.3832 0.0350824 73.1862 0.912082 73.3392C1.78908 73.4922 5.91008 70.6682 6.13908 69.3712C6.36808 68.0742 6.44408 54.4902 6.13908 53.1932C5.83308 51.8952 1.33708 49.2132 0.912082 51.8192Z" fill="url(#paint2_linear_0_2790)"/>
<path opacity="0.5" d="M74.899 51.8192C75.154 53.3832 75.776 73.1862 74.899 73.3392C74.022 73.4922 69.901 70.6682 69.672 69.3712C69.443 68.0742 69.367 54.4902 69.672 53.1932C69.978 51.8952 74.474 49.2132 74.899 51.8192Z" fill="url(#paint3_linear_0_2790)"/>
<path opacity="0.5" d="M1.86501 73.8792C2.32501 74.5562 36.528 94.7792 37.043 94.7792C37.302 94.7792 37.645 89.7532 37.645 89.1932C37.645 87.6302 7.39801 71.5672 6.86801 71.4182C6.08701 71.1982 1.39901 73.1922 1.86501 73.8792Z" fill="url(#paint4_linear_0_2790)"/>
<path opacity="0.5" d="M74.155 74.4078C73.695 75.0848 38.851 95.2408 38.336 95.2408C38.224 95.2408 38.218 88.9868 38.45 88.7538C39.555 87.6488 68.402 71.5668 68.931 71.4178C69.712 71.1978 74.621 73.7208 74.155 74.4078Z" fill="url(#paint5_linear_0_2790)"/>
<path opacity="0.5" d="M10.4789 67.8451C8.44094 56.2791 9.57694 55.5501 23.9229 50.6641C38.2699 45.7791 62.5389 33.1821 64.6699 38.6511C66.7999 44.1201 66.0699 67.3901 65.5859 68.6631C65.1019 69.9361 40.048 84.3331 37.9799 84.3671C35.9109 84.4011 10.7079 69.1441 10.4789 67.8451Z" fill="url(#paint6_linear_0_2790)"/>
<path opacity="0.3" d="M66.18 27.5031C65.674 27.3811 39.629 12.3281 38.159 12.4391C36.764 12.5451 18.616 21.0321 11.176 27.4451C9.192 29.1551 9.91699 54.6921 11.748 54.2221C13.58 53.7521 14.944 43.4321 35.1 37.6331C54.947 31.9231 63.58 36.8631 65.733 37.7481C66.341 37.9981 67.332 27.7821 66.18 27.5031Z" fill="white"/>
<path opacity="0.5" d="M6.8689 70.2771V25.8931L37.9789 7.93213L69.0889 25.8931V70.2781L66.7999 68.9561C66.7999 68.9561 66.9389 30.3741 66.1089 29.1641C63.1499 24.8461 40.1349 14.3481 36.3579 15.5171C32.4929 16.7131 12.0299 25.4251 9.7409 29.0881C8.9699 30.3211 9.1589 68.9571 9.1589 68.9571L6.8689 70.2771Z" fill="url(#paint7_linear_0_2790)"/>
<path opacity="0.2" d="M43.793 31.9518C51.544 35.4848 63.22 35.5468 64.288 34.8728C65.356 34.1998 66.067 29.2248 64.388 28.3858C62.709 27.5458 49.407 20.4628 45.896 21.2258C42.387 21.9898 42.423 31.3268 43.793 31.9518Z" fill="white"/>
<path d="M0.000976562 37.865C0.000976562 37.748 0.328975 23.11 0.948975 22.066C1.56897 21.022 37.161 1.284 38.196 1.004C39.231 0.722998 52.563 8.42101 52.563 8.42101L37.978 0L0.000976562 21.927V37.865Z" fill="url(#paint8_linear_0_2790)"/>
<path d="M51.573 15.7788C51.573 15.7788 68.257 25.2708 68.486 26.3388C68.715 27.4068 69.09 56.0918 69.09 56.0918C69.09 56.0918 69.248 27.1148 69.09 25.8918C68.932 24.6688 51.573 15.7788 51.573 15.7788Z" fill="white"/>
<path d="M6.86912 50.2171C6.86912 50.2171 6.31512 26.2221 6.59612 25.4431C6.87712 24.6651 37.9791 7.93115 37.9791 7.93115C37.9791 7.93115 7.94712 25.0991 7.32912 26.1871C6.71112 27.2751 6.86912 50.2171 6.86912 50.2171Z" fill="white"/>
<path d="M0.00100708 74.243L37.979 96.17L75.957 74.243V62.327C75.957 62.327 75.639 72.73 74.863 74.026C74.087 75.322 40.068 95.107 38.335 95.241C36.602 95.375 1.822 74.713 0.911003 73.339C3.09944e-06 71.965 0 47.584 0 47.584V74.243H0.00100708Z" fill="url(#paint9_linear_0_2790)"/>
<path d="M6.86892 58.916C6.86892 58.916 6.76192 69.152 7.32892 70.012C7.89692 70.871 22.6539 79.391 22.6539 79.391C22.6539 79.391 6.66492 71.126 6.51592 70.592C6.36692 70.058 6.86892 58.916 6.86892 58.916Z" fill="white"/>
<path opacity="0.5" d="M19.7191 79.5982C18.5981 79.6012 15.4571 80.8591 16.1361 81.6011C16.6841 82.2001 35.5101 93.6161 37.6451 94.4011C38.3421 94.6571 38.2751 90.2072 37.3401 88.7692C36.9401 88.1542 23.1921 79.5892 19.7191 79.5982Z" fill="white"/>
<path d="M51.353 8.63516C50.442 8.88116 53.49 12.7182 54.94 13.0612C56.39 13.4042 58.3739 12.3742 57.6869 11.6682C57.0009 10.9632 52.765 8.25416 51.353 8.63516Z" fill="white"/>
<path d="M58.108 12.4388C56.726 12.8088 59.275 18.8698 60.366 19.9478C61.457 21.0258 71.15 22.9158 70.927 21.1688C70.705 19.4228 60.049 11.9198 58.108 12.4388Z" fill="white"/>
<path opacity="0.5" d="M55.4931 79.6999C54.6751 83.2719 54.8061 85.3779 55.2641 85.4009C55.7221 85.4239 72.3301 75.4289 72.7831 74.9889C73.2361 74.5489 70.1211 71.6799 68.8381 71.8769C67.5551 72.0739 55.7991 78.3649 55.4931 79.6999Z" fill="url(#paint10_linear_0_2790)"/>
<path opacity="0.5" d="M8.88597 26.9121C8.48497 25.7091 7.25697 25.7161 7.14497 27.0571C7.03297 28.3981 6.84097 53.2691 7.32897 53.3071C7.81697 53.3451 8.84697 52.1241 8.88597 51.5521C8.92397 50.9801 9.07597 27.4841 8.88597 26.9121Z" fill="url(#paint11_linear_0_2790)"/>
<path opacity="0.5" d="M67.0741 27.065C67.0081 27.539 66.7691 51.018 67.0741 51.018C67.3791 51.018 68.7531 49.911 68.7531 49.339C68.7531 48.767 68.4101 26.569 68.2571 26.454C68.1041 26.34 67.1271 26.681 67.0741 27.065Z" fill="url(#paint12_linear_0_2790)"/>
<path opacity="0.5" d="M37.979 10.1898C37.979 10.6518 24.596 18.2888 24.281 18.2888C23.966 18.2888 24.081 16.2288 24.51 15.9418C24.939 15.6558 37.883 7.87178 37.979 8.12878C38.075 8.38678 37.979 9.80579 37.979 10.1898Z" fill="url(#paint13_linear_0_2790)"/>
<path d="M65.6019 72.0591C64.7479 72.0261 61.8609 73.7051 62.0799 74.5261C62.2989 75.3471 64.0659 76.2331 64.5349 75.7581C65.0039 75.2831 66.1619 72.0801 65.6019 72.0591Z" fill="#394773"/>
<path d="M66.7019 72.6363C66.4079 72.9073 65.7679 73.8693 66.3779 74.3383C66.9869 74.8083 68.7819 73.5693 68.5169 73.2053C68.2509 72.8403 67.0819 72.2863 66.7019 72.6363Z" fill="#394773"/>
<path opacity="0.5" d="M62.503 73.7022C61.791 74.6662 64.711 75.3062 65.091 74.4952C65.471 73.6842 66.081 71.9742 65.602 72.0592C65.124 72.1442 62.892 73.1762 62.503 73.7022Z" fill="url(#paint14_linear_0_2790)"/>
<path d="M62.0919 74.29C62.0919 74.29 62.3299 75.111 63.1959 75.619C63.8759 76.018 64.4619 75.928 64.6339 75.633C64.6339 75.633 64.1029 76.326 63.2179 75.913C61.8329 75.265 62.0919 74.29 62.0919 74.29Z" fill="#DAE1EF"/>
<path opacity="0.5" d="M67.0269 72.6612C66.3679 73.3712 66.8799 74.3952 67.2499 74.3382C67.6199 74.2802 68.7239 73.5512 68.5159 73.2052C68.3089 72.8582 67.1709 72.5062 67.0269 72.6612Z" fill="url(#paint15_linear_0_2790)"/>
<path d="M66.702 72.6362C66.702 72.6362 66.096 73.4692 66.339 73.9492C66.582 74.4292 66.926 74.4272 66.926 74.4272C66.926 74.4272 66.142 74.8832 65.998 74.3482C65.749 73.4222 66.702 72.6362 66.702 72.6362Z" fill="#DAE1EF"/>
<path d="M34.069 9.93004C32.023 9.39004 30.37 10.715 29.473 11.733C28.576 12.751 29.076 13.357 30.204 13.156C31.332 12.956 34.932 10.158 34.069 9.93004Z" fill="#394773"/>
<path opacity="0.5" d="M34.069 9.92998C32.685 9.45798 30.935 10.375 30.384 10.863C29.834 11.351 30.915 12.734 31.66 12.439C32.406 12.144 34.7 10.146 34.069 9.92998Z" fill="url(#paint16_linear_0_2790)"/>
<path d="M29.9869 11.2061C29.9869 11.2061 27.6749 12.7201 27.9349 13.4711C28.1939 14.2221 30.9659 12.8531 30.9659 12.8531C30.9659 12.8531 29.5289 13.3221 29.2039 12.6841C28.8769 12.0451 29.9869 11.2061 29.9869 11.2061Z" fill="white"/>
<path d="M8.19392 70.5822C7.10492 70.8542 10.3319 73.0702 11.0949 73.1842C11.8579 73.2992 11.1059 71.3552 10.7359 71.0212C10.4639 70.7762 8.80392 70.4302 8.19392 70.5822Z" fill="white"/>
</g>
<path fill-rule="evenodd" clip-rule="evenodd" d="M28.0995 48.2544H25.9325V48.2544H19.8574C18.8316 48.2544 18 49.086 18 50.1118V50.9253C18 51.3266 18.13 51.7172 18.3705 52.0384L22.628 57.7257C22.9787 58.1942 23.5297 58.47 24.1149 58.47H26.2421C27.2679 58.47 28.0995 57.6384 28.0995 56.6126V50.1118C28.0995 50.1098 28.0995 50.1078 28.0995 50.1058V48.2544Z" fill="#848BA2"/>
<path d="M23.0338 41.7916L35.0098 57.2098C35.3617 57.6628 35.9031 57.9278 36.4767 57.9278H38.5471C39.5729 57.9278 40.4045 57.0963 40.4045 56.0705V48.6964C40.4045 48.2842 40.2674 47.8838 40.0148 47.5581L33.3392 38.951C32.9874 38.4974 32.4456 38.2319 31.8715 38.2319H24.5007C23.4749 38.2319 22.6433 39.0635 22.6433 40.0893V40.6523C22.6433 41.0649 22.7807 41.4658 23.0338 41.7916Z" fill="#848BA2"/>
<path d="M40.1338 47.4954V40.5888C40.1338 40.0382 40.3093 39.5019 40.635 39.0579C41.1226 38.3929 41.8979 38 42.7226 38H43.6623C44.4865 38 45.263 38.3861 45.7603 39.0432L57.0908 54.0119C57.4368 54.469 57.6241 55.0266 57.6241 55.5999V55.6823C57.6241 56.3052 57.3894 56.9053 56.9669 57.363C56.4978 57.8712 55.8377 58.1602 55.1461 58.1602H49.1091C48.3039 58.1602 47.543 57.7916 47.044 57.1597L40.7 49.1261C40.3333 48.6617 40.1338 48.0871 40.1338 47.4954Z" fill="#848BA2"/>
<defs>
<linearGradient id="paint0_linear_0_2790" x1="37.9794" y1="97.8211" x2="37.9794" y2="15.3563" gradientUnits="userSpaceOnUse">
<stop offset="0.2103" stop-color="#98ABD2"/>
<stop offset="0.4881" stop-color="#72719D"/>
<stop offset="1" stop-color="#DAE1EF"/>
</linearGradient>
<linearGradient id="paint1_linear_0_2790" x1="37.9793" y1="12.8982" x2="37.9793" y2="88.0248" gradientUnits="userSpaceOnUse">
<stop offset="0.2103" stop-color="#98ABD2"/>
<stop offset="0.4881" stop-color="#72719D"/>
<stop offset="1" stop-color="#DAE1EF"/>
</linearGradient>
<linearGradient id="paint2_linear_0_2790" x1="3.39958" y1="83.1836" x2="3.39958" y2="37.7189" gradientUnits="userSpaceOnUse">
<stop stop-color="#705AB8"/>
<stop offset="1" stop-color="white"/>
</linearGradient>
<linearGradient id="paint3_linear_0_2790" x1="72.4113" y1="83.1836" x2="72.4113" y2="37.7189" gradientUnits="userSpaceOnUse">
<stop stop-color="#705AB8"/>
<stop offset="1" stop-color="white"/>
</linearGradient>
<linearGradient id="paint4_linear_0_2790" x1="10.3275" y1="66.2179" x2="28.7061" y2="96.0266" gradientUnits="userSpaceOnUse">
<stop stop-color="#705AB8"/>
<stop offset="1" stop-color="white"/>
</linearGradient>
<linearGradient id="paint5_linear_0_2790" x1="51.2757" y1="69.9751" x2="64.4396" y2="109.009" gradientUnits="userSpaceOnUse">
<stop stop-color="#705AB8"/>
<stop offset="1" stop-color="white"/>
</linearGradient>
<linearGradient id="paint6_linear_0_2790" x1="37.9035" y1="90.7644" x2="37.9035" y2="27.9098" gradientUnits="userSpaceOnUse">
<stop stop-color="#705AB8"/>
<stop offset="1" stop-color="white"/>
</linearGradient>
<linearGradient id="paint7_linear_0_2790" x1="6.869" y1="39.1043" x2="69.0896" y2="39.1043" gradientUnits="userSpaceOnUse">
<stop stop-color="#8980EB"/>
<stop offset="1" stop-color="#705AB8"/>
</linearGradient>
<linearGradient id="paint8_linear_0_2790" x1="0.000976562" y1="18.9329" x2="52.5642" y2="18.9329" gradientUnits="userSpaceOnUse">
<stop stop-color="#728EE3"/>
<stop offset="1" stop-color="#836888"/>
</linearGradient>
<linearGradient id="paint9_linear_0_2790" x1="0.001" y1="71.8766" x2="75.9578" y2="71.8766" gradientUnits="userSpaceOnUse">
<stop stop-color="#728EE3"/>
<stop offset="1" stop-color="#836888"/>
</linearGradient>
<linearGradient id="paint10_linear_0_2790" x1="54.8999" y1="78.6337" x2="72.8278" y2="78.6337" gradientUnits="userSpaceOnUse">
<stop stop-color="#8980EB"/>
<stop offset="1" stop-color="#705AB8"/>
</linearGradient>
<linearGradient id="paint11_linear_0_2790" x1="7.01217" y1="39.6689" x2="8.97967" y2="39.6689" gradientUnits="userSpaceOnUse">
<stop stop-color="#8980EB"/>
<stop offset="1" stop-color="#705AB8"/>
</linearGradient>
<linearGradient id="paint12_linear_0_2790" x1="66.9224" y1="38.7248" x2="68.7527" y2="38.7248" gradientUnits="userSpaceOnUse">
<stop stop-color="#8980EB"/>
<stop offset="1" stop-color="#705AB8"/>
</linearGradient>
<linearGradient id="paint13_linear_0_2790" x1="24.1025" y1="13.2059" x2="38.022" y2="13.2059" gradientUnits="userSpaceOnUse">
<stop stop-color="#8980EB"/>
<stop offset="1" stop-color="#705AB8"/>
</linearGradient>
<linearGradient id="paint14_linear_0_2790" x1="63.891" y1="72.7787" x2="64.9082" y2="74.698" gradientUnits="userSpaceOnUse">
<stop stop-color="#8980EB"/>
<stop offset="1" stop-color="#705AB8"/>
</linearGradient>
<linearGradient id="paint15_linear_0_2790" x1="67.1411" y1="72.596" x2="67.9067" y2="74.0405" gradientUnits="userSpaceOnUse">
<stop stop-color="#8980EB"/>
<stop offset="1" stop-color="#705AB8"/>
</linearGradient>
<linearGradient id="paint16_linear_0_2790" x1="31.8356" y1="10.0106" x2="32.7887" y2="11.8662" gradientUnits="userSpaceOnUse">
<stop stop-color="#8980EB"/>
<stop offset="1" stop-color="#705AB8"/>
</linearGradient>
</defs>
</svg>
