<svg width="12" height="12" viewBox="0 0 12 12" fill="none" xmlns="http://www.w3.org/2000/svg">
<g clip-path="url(#clip0_0_4173)">
<path d="M11.0526 5.05263H6.94737V0.947367C6.94737 0.424969 6.5224 0 6 0C5.4776 0 5.05263 0.424969 5.05263 0.947367V5.05263H0.947367C0.424969 5.05263 0 5.4776 0 6C0 6.5224 0.424969 6.94737 0.947367 6.94737H5.05263V11.0526C5.05263 11.575 5.4776 12 6 12C6.5224 12 6.94737 11.575 6.94737 11.0526V6.94737H11.0526C11.575 6.94737 12 6.5224 12 6C12 5.4776 11.575 5.05263 11.0526 5.05263Z" fill="#F9FF38"/>
</g>
<defs>
<clipPath id="clip0_0_4173">
<rect width="12" height="12" fill="white"/>
</clipPath>
</defs>
</svg>
