<svg width="42" height="38" viewBox="0 0 42 38" fill="none" xmlns="http://www.w3.org/2000/svg">
<g filter="url(#filter0_d_0_2653)">
<path fill-rule="evenodd" clip-rule="evenodd" d="M17.9848 9C15.9535 9 14.1426 10.4303 14.1426 12.3804C14.1426 14.3306 15.9535 15.7609 17.9848 15.7609C20.0162 15.7609 21.8271 14.3306 21.8271 12.3804C21.8271 10.4303 20.0162 9 17.9848 9ZM25.694 11.7428C23.988 11.7428 22.4409 12.947 22.4409 14.618C22.4409 16.2891 23.988 17.4932 25.694 17.4932C27.3999 17.4932 28.947 16.2891 28.947 14.618C28.947 12.947 27.3999 11.7428 25.694 11.7428ZM28.9468 19.6528C30.222 20.3443 31 21.5748 31 22.9009V23.1997C31 23.3132 31.0001 23.4146 30.9887 23.5068C30.8922 24.2877 30.1972 24.9043 29.3169 24.99C29.2141 25 29.1009 25 28.9745 25H28.9708H25.6063C25.4478 25 25.3686 25 25.3355 24.9548C25.3024 24.9097 25.2987 24.8192 25.3926 24.6933C26.5248 23.1735 26.1046 20.4286 25.169 19.0366C25.077 18.8997 25.0564 18.8168 25.091 18.7679C25.1255 18.719 25.208 18.7222 25.3731 18.7286H25.3732C26.4862 18.7717 27.9601 19.1179 28.9468 19.6528ZM13.5667 17.6875C16.279 16.0632 19.6907 16.0632 22.403 17.6875C23.9973 18.6424 24.9697 20.3415 24.9697 22.1726V22.5945V22.598C24.9697 22.7615 24.9697 22.8959 24.9561 23.0171C24.8401 24.0542 24.0045 24.8731 22.9462 24.9868C22.8217 25.0002 22.6834 25.0002 22.515 25.0001H13.4547C13.2862 25.0002 13.148 25.0002 13.0234 24.9868C11.9652 24.8731 11.1296 24.0542 11.0135 23.0171C10.9999 22.8951 10.9999 22.7596 11 22.5945L11 22.1726C11 20.3415 11.9724 18.6424 13.5667 17.6875Z" fill="url(#paint0_linear_0_2653)"/>
</g>
<defs>
<filter id="filter0_d_0_2653" x="0.5" y="0.5" width="41" height="37" filterUnits="userSpaceOnUse" color-interpolation-filters="sRGB">
<feFlood flood-opacity="0" result="BackgroundImageFix"/>
<feColorMatrix in="SourceAlpha" type="matrix" values="0 0 0 0 0 0 0 0 0 0 0 0 0 0 0 0 0 0 127 0" result="hardAlpha"/>
<feOffset dy="2"/>
<feGaussianBlur stdDeviation="5.25"/>
<feComposite in2="hardAlpha" operator="out"/>
<feColorMatrix type="matrix" values="0 0 0 0 0.976471 0 0 0 0 1 0 0 0 0 0.219608 0 0 0 0.5 0"/>
<feBlend mode="normal" in2="BackgroundImageFix" result="effect1_dropShadow_0_2653"/>
<feBlend mode="normal" in="SourceGraphic" in2="effect1_dropShadow_0_2653" result="shape"/>
</filter>
<linearGradient id="paint0_linear_0_2653" x1="21" y1="14.7778" x2="21" y2="25.0001" gradientUnits="userSpaceOnUse">
<stop stop-color="white"/>
<stop offset="1" stop-color="#F9FF38"/>
</linearGradient>
</defs>
</svg>
