<svg width="576" height="591" viewBox="0 0 576 591" fill="none" xmlns="http://www.w3.org/2000/svg">
<g clip-path="url(#clip0_1029_255)">
<rect width="576" height="591" rx="12" fill="black"/>
<g filter="url(#filter0_bi_1029_255)">
<rect width="576" height="591" rx="11.2753" fill="#02080E" fill-opacity="0.75"/>
</g>
<rect x="15" y="20" width="546" height="550" rx="11.2753" fill="white" fill-opacity="0.03"/>
<rect x="15" y="20" width="546" height="550" rx="11.2753" fill="url(#paint0_linear_1029_255)" fill-opacity="0.06"/>
<rect x="15.4698" y="20.4698" width="545.06" height="549.06" rx="10.8055" stroke="url(#paint1_linear_1029_255)" stroke-opacity="0.24" stroke-width="0.939609"/>
<g filter="url(#filter1_i_1029_255)">
<path d="M61 133H514.094V489.425C514.094 493.056 511.15 496 507.519 496H67.575C63.9437 496 61 493.056 61 489.425V133Z" fill="#253B29" fill-opacity="0.32"/>
</g>
<path d="M61.5 133.5H513.594V489.425C513.594 492.78 510.874 495.5 507.519 495.5H67.575C64.2199 495.5 61.5 492.78 61.5 489.425V133.5Z" stroke="url(#paint2_linear_1029_255)"/>
<path d="M187.494 273V260.274H189.708L196.098 270.21V260.274H197.988V273H195.828L189.402 263.118V273H187.494ZM204.792 273.108C203.796 273.108 202.962 272.904 202.29 272.496C201.618 272.088 201.108 271.524 200.76 270.804C200.424 270.072 200.256 269.232 200.256 268.284C200.256 267.324 200.43 266.478 200.778 265.746C201.138 265.014 201.654 264.438 202.326 264.018C203.01 263.598 203.832 263.388 204.792 263.388C205.524 263.388 206.16 263.526 206.7 263.802C207.24 264.066 207.684 264.426 208.032 264.882C208.392 265.338 208.656 265.848 208.824 266.412C208.992 266.964 209.064 267.54 209.04 268.14C209.04 268.272 209.034 268.398 209.022 268.518C209.01 268.638 208.998 268.764 208.986 268.896H202.128C202.164 269.376 202.284 269.814 202.488 270.21C202.704 270.606 203.004 270.924 203.388 271.164C203.772 271.392 204.246 271.506 204.81 271.506C205.122 271.506 205.422 271.47 205.71 271.398C206.01 271.314 206.274 271.188 206.502 271.02C206.742 270.84 206.91 270.612 207.006 270.336H208.878C208.722 270.972 208.44 271.5 208.032 271.92C207.636 272.328 207.15 272.628 206.574 272.82C206.01 273.012 205.416 273.108 204.792 273.108ZM202.164 267.42H207.204C207.192 266.952 207.084 266.538 206.88 266.178C206.676 265.806 206.394 265.518 206.034 265.314C205.674 265.098 205.242 264.99 204.738 264.99C204.186 264.99 203.724 265.104 203.352 265.332C202.992 265.56 202.71 265.86 202.506 266.232C202.314 266.592 202.2 266.988 202.164 267.42ZM212.932 273L209.98 263.514H212.05L214.138 271.056L216.334 263.514H218.656L220.852 271.056L222.904 263.514H224.974L222.022 273H219.664L217.468 265.746L215.29 273H212.932ZM231.562 273V260.274H236.152C237.1 260.274 237.916 260.424 238.6 260.724C239.296 261.024 239.83 261.492 240.202 262.128C240.574 262.752 240.76 263.562 240.76 264.558C240.76 265.518 240.544 266.322 240.112 266.97C239.692 267.618 239.116 268.11 238.384 268.446C237.652 268.77 236.818 268.932 235.882 268.932H233.47V273H231.562ZM233.47 267.204H235.81C236.722 267.204 237.454 266.994 238.006 266.574C238.558 266.142 238.834 265.452 238.834 264.504C238.834 263.676 238.606 263.058 238.15 262.65C237.694 262.23 237.004 262.02 236.08 262.02H233.47V267.204ZM245.353 273.108C244.921 273.108 244.501 273.054 244.093 272.946C243.697 272.826 243.343 272.652 243.031 272.424C242.719 272.184 242.467 271.89 242.275 271.542C242.095 271.182 242.005 270.762 242.005 270.282C242.005 269.706 242.113 269.232 242.329 268.86C242.557 268.476 242.857 268.182 243.229 267.978C243.601 267.762 244.027 267.612 244.507 267.528C244.999 267.432 245.509 267.384 246.037 267.384H248.359C248.359 266.916 248.287 266.508 248.143 266.16C247.999 265.8 247.771 265.524 247.459 265.332C247.159 265.128 246.757 265.026 246.253 265.026C245.953 265.026 245.665 265.062 245.389 265.134C245.125 265.194 244.897 265.296 244.705 265.44C244.513 265.584 244.381 265.776 244.309 266.016H242.365C242.437 265.56 242.599 265.17 242.851 264.846C243.103 264.51 243.415 264.234 243.787 264.018C244.159 263.802 244.555 263.646 244.975 263.55C245.407 263.442 245.845 263.388 246.289 263.388C247.657 263.388 248.641 263.79 249.241 264.594C249.853 265.386 250.159 266.478 250.159 267.87V273H248.557L248.485 271.794C248.209 272.166 247.879 272.448 247.495 272.64C247.123 272.832 246.751 272.958 246.379 273.018C246.007 273.078 245.665 273.108 245.353 273.108ZM245.641 271.542C246.181 271.542 246.655 271.452 247.063 271.272C247.471 271.08 247.789 270.81 248.017 270.462C248.245 270.102 248.359 269.682 248.359 269.202V268.806H246.667C246.319 268.806 245.977 268.818 245.641 268.842C245.317 268.854 245.017 268.902 244.741 268.986C244.477 269.058 244.261 269.184 244.093 269.364C243.937 269.544 243.859 269.802 243.859 270.138C243.859 270.462 243.943 270.726 244.111 270.93C244.279 271.134 244.501 271.29 244.777 271.398C245.053 271.494 245.341 271.542 245.641 271.542ZM256.56 277.284C255.828 277.284 255.12 277.182 254.436 276.978C253.752 276.786 253.128 276.444 252.564 275.952L253.302 274.476C253.734 274.824 254.208 275.1 254.724 275.304C255.252 275.508 255.81 275.61 256.398 275.61C257.37 275.61 258.072 275.346 258.504 274.818C258.936 274.29 259.152 273.6 259.152 272.748V271.83C258.936 272.13 258.666 272.382 258.342 272.586C258.03 272.778 257.682 272.916 257.298 273C256.914 273.096 256.524 273.144 256.128 273.144C255.204 273.144 254.466 272.958 253.914 272.586C253.374 272.202 252.984 271.68 252.744 271.02C252.516 270.36 252.402 269.598 252.402 268.734V263.514H254.274V268.284C254.274 268.668 254.298 269.052 254.346 269.436C254.394 269.82 254.496 270.168 254.652 270.48C254.808 270.78 255.036 271.026 255.336 271.218C255.636 271.398 256.044 271.488 256.56 271.488C257.208 271.488 257.718 271.332 258.09 271.02C258.462 270.696 258.726 270.276 258.882 269.76C259.038 269.232 259.116 268.662 259.116 268.05V263.514H260.97V272.55C260.97 273.294 260.88 273.96 260.7 274.548C260.532 275.136 260.262 275.634 259.89 276.042C259.53 276.45 259.074 276.756 258.522 276.96C257.982 277.176 257.328 277.284 256.56 277.284ZM263.23 273V263.514H264.976L265.084 264.63C265.3 264.318 265.54 264.078 265.804 263.91C266.08 263.73 266.374 263.598 266.686 263.514C266.998 263.43 267.316 263.388 267.64 263.388C268.276 263.388 268.798 263.52 269.206 263.784C269.626 264.048 269.95 264.408 270.178 264.864C270.406 264.54 270.664 264.27 270.952 264.054C271.24 263.826 271.558 263.658 271.906 263.55C272.254 263.442 272.626 263.388 273.022 263.388C273.73 263.388 274.3 263.544 274.732 263.856C275.176 264.156 275.494 264.564 275.686 265.08C275.89 265.596 275.992 266.19 275.992 266.862V273H274.12V267.6C274.12 267.312 274.108 267.024 274.084 266.736C274.06 266.448 273.988 266.178 273.868 265.926C273.76 265.662 273.598 265.452 273.382 265.296C273.178 265.128 272.884 265.044 272.5 265.044C272.128 265.044 271.816 265.128 271.564 265.296C271.324 265.464 271.126 265.692 270.97 265.98C270.826 266.256 270.718 266.556 270.646 266.88C270.586 267.204 270.556 267.528 270.556 267.852V273H268.684V267.582C268.684 267.306 268.672 267.024 268.648 266.736C268.624 266.448 268.564 266.178 268.468 265.926C268.372 265.662 268.21 265.452 267.982 265.296C267.766 265.128 267.472 265.044 267.1 265.044C266.56 265.044 266.14 265.2 265.84 265.512C265.552 265.812 265.354 266.184 265.246 266.628C265.138 267.06 265.084 267.474 265.084 267.87V273H263.23ZM282.347 273.108C281.351 273.108 280.517 272.904 279.845 272.496C279.173 272.088 278.663 271.524 278.315 270.804C277.979 270.072 277.811 269.232 277.811 268.284C277.811 267.324 277.985 266.478 278.333 265.746C278.693 265.014 279.209 264.438 279.881 264.018C280.565 263.598 281.387 263.388 282.347 263.388C283.079 263.388 283.715 263.526 284.255 263.802C284.795 264.066 285.239 264.426 285.587 264.882C285.947 265.338 286.211 265.848 286.379 266.412C286.547 266.964 286.619 267.54 286.595 268.14C286.595 268.272 286.589 268.398 286.577 268.518C286.565 268.638 286.553 268.764 286.541 268.896H279.683C279.719 269.376 279.839 269.814 280.043 270.21C280.259 270.606 280.559 270.924 280.943 271.164C281.327 271.392 281.801 271.506 282.365 271.506C282.677 271.506 282.977 271.47 283.265 271.398C283.565 271.314 283.829 271.188 284.057 271.02C284.297 270.84 284.465 270.612 284.561 270.336H286.433C286.277 270.972 285.995 271.5 285.587 271.92C285.191 272.328 284.705 272.628 284.129 272.82C283.565 273.012 282.971 273.108 282.347 273.108ZM279.719 267.42H284.759C284.747 266.952 284.639 266.538 284.435 266.178C284.231 265.806 283.949 265.518 283.589 265.314C283.229 265.098 282.797 264.99 282.293 264.99C281.741 264.99 281.279 265.104 280.907 265.332C280.547 265.56 280.265 265.86 280.061 266.232C279.869 266.592 279.755 266.988 279.719 267.42ZM288.507 273V263.514H290.271L290.361 264.846C290.601 264.498 290.889 264.222 291.225 264.018C291.561 263.802 291.921 263.646 292.305 263.55C292.689 263.442 293.061 263.388 293.421 263.388C294.333 263.388 295.047 263.586 295.563 263.982C296.091 264.366 296.463 264.888 296.679 265.548C296.907 266.196 297.021 266.934 297.021 267.762V273H295.149V268.14C295.149 267.756 295.125 267.378 295.077 267.006C295.029 266.634 294.927 266.304 294.771 266.016C294.627 265.716 294.417 265.482 294.141 265.314C293.865 265.134 293.493 265.044 293.025 265.044C292.449 265.044 291.963 265.2 291.567 265.512C291.171 265.824 290.871 266.244 290.667 266.772C290.463 267.3 290.361 267.894 290.361 268.554V273H288.507ZM302.902 273.108C301.882 273.108 301.15 272.832 300.706 272.28C300.274 271.716 300.058 270.93 300.058 269.922V265.17H298.546V263.514H300.058V260.76H301.912V263.514H304.81V265.17H301.912V269.616C301.912 269.952 301.942 270.258 302.002 270.534C302.074 270.81 302.206 271.026 302.398 271.182C302.59 271.338 302.866 271.422 303.226 271.434C303.502 271.434 303.742 271.386 303.946 271.29C304.162 271.194 304.336 271.086 304.468 270.966L305.188 272.352C304.96 272.532 304.72 272.682 304.468 272.802C304.228 272.91 303.976 272.988 303.712 273.036C303.448 273.084 303.178 273.108 302.902 273.108ZM311.824 273V260.274H316.72C317.404 260.274 318.028 260.346 318.592 260.49C319.156 260.622 319.648 260.844 320.068 261.156C320.488 261.456 320.812 261.864 321.04 262.38C321.268 262.896 321.382 263.532 321.382 264.288C321.382 264.972 321.262 265.56 321.022 266.052C320.782 266.544 320.452 266.952 320.032 267.276C319.612 267.6 319.138 267.846 318.61 268.014L321.328 273H319.222L316.702 268.32H313.732V273H311.824ZM313.732 266.61H316.324C316.756 266.61 317.158 266.58 317.53 266.52C317.914 266.448 318.25 266.328 318.538 266.16C318.826 265.98 319.048 265.74 319.204 265.44C319.372 265.128 319.456 264.732 319.456 264.252C319.468 263.7 319.36 263.262 319.132 262.938C318.916 262.602 318.592 262.368 318.16 262.236C317.728 262.092 317.206 262.02 316.594 262.02H313.732V266.61ZM327.488 273.108C326.492 273.108 325.658 272.904 324.986 272.496C324.314 272.088 323.804 271.524 323.456 270.804C323.12 270.072 322.952 269.232 322.952 268.284C322.952 267.324 323.126 266.478 323.474 265.746C323.834 265.014 324.35 264.438 325.022 264.018C325.706 263.598 326.528 263.388 327.488 263.388C328.22 263.388 328.856 263.526 329.396 263.802C329.936 264.066 330.38 264.426 330.728 264.882C331.088 265.338 331.352 265.848 331.52 266.412C331.688 266.964 331.76 267.54 331.736 268.14C331.736 268.272 331.73 268.398 331.718 268.518C331.706 268.638 331.694 268.764 331.682 268.896H324.824C324.86 269.376 324.98 269.814 325.184 270.21C325.4 270.606 325.7 270.924 326.084 271.164C326.468 271.392 326.942 271.506 327.506 271.506C327.818 271.506 328.118 271.47 328.406 271.398C328.706 271.314 328.97 271.188 329.198 271.02C329.438 270.84 329.606 270.612 329.702 270.336H331.574C331.418 270.972 331.136 271.5 330.728 271.92C330.332 272.328 329.846 272.628 329.27 272.82C328.706 273.012 328.112 273.108 327.488 273.108ZM324.86 267.42H329.9C329.888 266.952 329.78 266.538 329.576 266.178C329.372 265.806 329.09 265.518 328.73 265.314C328.37 265.098 327.938 264.99 327.434 264.99C326.882 264.99 326.42 265.104 326.048 265.332C325.688 265.56 325.406 265.86 325.202 266.232C325.01 266.592 324.896 266.988 324.86 267.42ZM337.945 273.108C336.949 273.108 336.115 272.904 335.443 272.496C334.783 272.088 334.285 271.524 333.949 270.804C333.625 270.072 333.463 269.232 333.463 268.284C333.463 267.348 333.631 266.514 333.967 265.782C334.315 265.038 334.831 264.456 335.515 264.036C336.211 263.604 337.069 263.388 338.089 263.388C338.785 263.388 339.403 263.508 339.943 263.748C340.483 263.976 340.921 264.318 341.257 264.774C341.605 265.218 341.833 265.776 341.941 266.448H340.087C339.931 265.956 339.667 265.602 339.295 265.386C338.935 265.17 338.509 265.062 338.017 265.062C337.357 265.062 336.829 265.218 336.433 265.53C336.049 265.842 335.767 266.244 335.587 266.736C335.407 267.228 335.317 267.744 335.317 268.284C335.317 268.848 335.407 269.37 335.587 269.85C335.779 270.33 336.067 270.72 336.451 271.02C336.847 271.308 337.363 271.452 337.999 271.452C338.479 271.452 338.923 271.35 339.331 271.146C339.739 270.93 340.003 270.57 340.123 270.066H342.031C341.923 270.762 341.671 271.338 341.275 271.794C340.879 272.238 340.387 272.568 339.799 272.784C339.223 273 338.605 273.108 337.945 273.108ZM348.001 273.108C347.005 273.108 346.171 272.904 345.499 272.496C344.827 272.088 344.317 271.524 343.969 270.804C343.633 270.072 343.465 269.232 343.465 268.284C343.465 267.324 343.639 266.478 343.987 265.746C344.347 265.014 344.863 264.438 345.535 264.018C346.219 263.598 347.041 263.388 348.001 263.388C348.733 263.388 349.369 263.526 349.909 263.802C350.449 264.066 350.893 264.426 351.241 264.882C351.601 265.338 351.865 265.848 352.033 266.412C352.201 266.964 352.273 267.54 352.249 268.14C352.249 268.272 352.243 268.398 352.231 268.518C352.219 268.638 352.207 268.764 352.195 268.896H345.337C345.373 269.376 345.493 269.814 345.697 270.21C345.913 270.606 346.213 270.924 346.597 271.164C346.981 271.392 347.455 271.506 348.019 271.506C348.331 271.506 348.631 271.47 348.919 271.398C349.219 271.314 349.483 271.188 349.711 271.02C349.951 270.84 350.119 270.612 350.215 270.336H352.087C351.931 270.972 351.649 271.5 351.241 271.92C350.845 272.328 350.359 272.628 349.783 272.82C349.219 273.012 348.625 273.108 348.001 273.108ZM345.373 267.42H350.413C350.401 266.952 350.293 266.538 350.089 266.178C349.885 265.806 349.603 265.518 349.243 265.314C348.883 265.098 348.451 264.99 347.947 264.99C347.395 264.99 346.933 265.104 346.561 265.332C346.201 265.56 345.919 265.86 345.715 266.232C345.523 266.592 345.409 266.988 345.373 267.42ZM354.161 273V263.514H356.015V273H354.161ZM355.079 262.254C354.719 262.254 354.425 262.146 354.197 261.93C353.981 261.702 353.873 261.414 353.873 261.066C353.873 260.718 353.987 260.436 354.215 260.22C354.443 259.992 354.731 259.878 355.079 259.878C355.403 259.878 355.685 259.992 355.925 260.22C356.177 260.436 356.303 260.718 356.303 261.066C356.303 261.414 356.183 261.702 355.943 261.93C355.715 262.146 355.427 262.254 355.079 262.254ZM360.812 273L357.266 263.514H359.336L362.072 271.326L364.79 263.514H366.878L363.332 273H360.812ZM372.259 273.108C371.263 273.108 370.429 272.904 369.757 272.496C369.085 272.088 368.575 271.524 368.227 270.804C367.891 270.072 367.723 269.232 367.723 268.284C367.723 267.324 367.897 266.478 368.245 265.746C368.605 265.014 369.121 264.438 369.793 264.018C370.477 263.598 371.299 263.388 372.259 263.388C372.991 263.388 373.627 263.526 374.167 263.802C374.707 264.066 375.151 264.426 375.499 264.882C375.859 265.338 376.123 265.848 376.291 266.412C376.459 266.964 376.531 267.54 376.507 268.14C376.507 268.272 376.501 268.398 376.489 268.518C376.477 268.638 376.465 268.764 376.453 268.896H369.595C369.631 269.376 369.751 269.814 369.955 270.21C370.171 270.606 370.471 270.924 370.855 271.164C371.239 271.392 371.713 271.506 372.277 271.506C372.589 271.506 372.889 271.47 373.177 271.398C373.477 271.314 373.741 271.188 373.969 271.02C374.209 270.84 374.377 270.612 374.473 270.336H376.345C376.189 270.972 375.907 271.5 375.499 271.92C375.103 272.328 374.617 272.628 374.041 272.82C373.477 273.012 372.883 273.108 372.259 273.108ZM369.631 267.42H374.671C374.659 266.952 374.551 266.538 374.347 266.178C374.143 265.806 373.861 265.518 373.501 265.314C373.141 265.098 372.709 264.99 372.205 264.99C371.653 264.99 371.191 265.104 370.819 265.332C370.459 265.56 370.177 265.86 369.973 266.232C369.781 266.592 369.667 266.988 369.631 267.42ZM382.253 273.108C381.305 273.108 380.519 272.898 379.895 272.478C379.283 272.046 378.821 271.464 378.509 270.732C378.209 270 378.059 269.178 378.059 268.266C378.059 267.342 378.215 266.514 378.527 265.782C378.839 265.038 379.313 264.456 379.949 264.036C380.585 263.604 381.389 263.388 382.361 263.388C382.721 263.388 383.081 263.43 383.441 263.514C383.813 263.598 384.155 263.73 384.467 263.91C384.791 264.078 385.067 264.306 385.295 264.594V260.274H387.149V273H385.367L385.295 271.704C385.079 272.028 384.809 272.298 384.485 272.514C384.173 272.718 383.825 272.868 383.441 272.964C383.057 273.06 382.661 273.108 382.253 273.108ZM382.559 271.452C383.171 271.452 383.675 271.302 384.071 271.002C384.479 270.702 384.785 270.306 384.989 269.814C385.193 269.322 385.295 268.788 385.295 268.212C385.295 267.624 385.193 267.096 384.989 266.628C384.797 266.148 384.497 265.77 384.089 265.494C383.693 265.206 383.183 265.062 382.559 265.062C381.911 265.062 381.395 265.212 381.011 265.512C380.627 265.8 380.345 266.19 380.165 266.682C379.997 267.174 379.913 267.714 379.913 268.302C379.913 268.734 379.961 269.142 380.057 269.526C380.153 269.898 380.303 270.234 380.507 270.534C380.723 270.822 380.999 271.05 381.335 271.218C381.671 271.374 382.079 271.452 382.559 271.452Z" fill="white" fill-opacity="0.35"/>
<path d="M215.236 185.112C214.219 185.112 213.365 184.897 212.674 184.468C211.993 184.039 211.479 183.446 211.134 182.69C210.789 181.934 210.616 181.061 210.616 180.072C210.616 179.083 210.789 178.205 211.134 177.44C211.489 176.675 212.007 176.077 212.688 175.648C213.379 175.209 214.233 174.99 215.25 174.99C215.987 174.99 216.631 175.111 217.182 175.354C217.733 175.587 218.176 175.923 218.512 176.362C218.857 176.791 219.086 177.305 219.198 177.902H217.742C217.602 177.426 217.317 177.048 216.888 176.768C216.459 176.488 215.908 176.348 215.236 176.348C214.489 176.348 213.887 176.521 213.43 176.866C212.982 177.211 212.655 177.664 212.45 178.224C212.245 178.775 212.142 179.372 212.142 180.016C212.142 180.679 212.249 181.295 212.464 181.864C212.679 182.433 213.019 182.891 213.486 183.236C213.953 183.581 214.55 183.754 215.278 183.754C215.726 183.754 216.123 183.693 216.468 183.572C216.813 183.441 217.103 183.259 217.336 183.026C217.569 182.783 217.728 182.503 217.812 182.186H219.366C219.245 182.793 218.997 183.315 218.624 183.754C218.251 184.193 217.779 184.529 217.21 184.762C216.641 184.995 215.983 185.112 215.236 185.112ZM220.78 185V175.102H222.222V178.658C222.418 178.406 222.642 178.196 222.894 178.028C223.156 177.86 223.436 177.734 223.734 177.65C224.033 177.566 224.332 177.524 224.63 177.524C225.34 177.524 225.895 177.678 226.296 177.986C226.698 178.285 226.982 178.691 227.15 179.204C227.318 179.717 227.402 180.296 227.402 180.94V185H225.946V181.276C225.946 180.977 225.923 180.683 225.876 180.394C225.839 180.105 225.764 179.843 225.652 179.61C225.54 179.367 225.368 179.176 225.134 179.036C224.91 178.887 224.607 178.812 224.224 178.812C223.86 178.812 223.548 178.891 223.286 179.05C223.034 179.209 222.829 179.423 222.67 179.694C222.521 179.955 222.409 180.245 222.334 180.562C222.26 180.87 222.222 181.178 222.222 181.486V185H220.78ZM229.12 185V177.622H230.478L230.548 178.686C230.735 178.397 230.95 178.168 231.192 178C231.435 177.832 231.701 177.711 231.99 177.636C232.28 177.561 232.583 177.524 232.9 177.524C232.984 177.524 233.064 177.524 233.138 177.524C233.213 177.524 233.283 177.524 233.348 177.524V178.91H232.9C232.368 178.91 231.925 179.017 231.57 179.232C231.225 179.447 230.968 179.745 230.8 180.128C230.642 180.511 230.562 180.949 230.562 181.444V185H229.12ZM234.439 185V177.622H235.881V185H234.439ZM235.153 176.642C234.873 176.642 234.644 176.558 234.467 176.39C234.299 176.213 234.215 175.989 234.215 175.718C234.215 175.447 234.303 175.228 234.481 175.06C234.658 174.883 234.882 174.794 235.153 174.794C235.405 174.794 235.624 174.883 235.811 175.06C236.007 175.228 236.105 175.447 236.105 175.718C236.105 175.989 236.011 176.213 235.825 176.39C235.647 176.558 235.423 176.642 235.153 176.642ZM240.423 185.084C240.078 185.084 239.733 185.051 239.387 184.986C239.042 184.921 238.72 184.804 238.421 184.636C238.123 184.468 237.871 184.244 237.665 183.964C237.46 183.675 237.329 183.32 237.273 182.9H238.743C238.818 183.124 238.949 183.306 239.135 183.446C239.331 183.586 239.546 183.689 239.779 183.754C240.022 183.819 240.26 183.852 240.493 183.852C240.633 183.852 240.787 183.843 240.955 183.824C241.133 183.805 241.301 183.763 241.459 183.698C241.618 183.633 241.749 183.539 241.851 183.418C241.954 183.287 242.005 183.115 242.005 182.9C242.005 182.732 241.959 182.592 241.865 182.48C241.781 182.368 241.66 182.279 241.501 182.214C241.352 182.139 241.17 182.083 240.955 182.046C240.535 181.953 240.083 181.864 239.597 181.78C239.121 181.687 238.701 181.528 238.337 181.304C238.207 181.22 238.09 181.127 237.987 181.024C237.885 180.912 237.796 180.786 237.721 180.646C237.647 180.506 237.591 180.357 237.553 180.198C237.516 180.039 237.497 179.867 237.497 179.68C237.497 179.297 237.572 178.971 237.721 178.7C237.88 178.429 238.095 178.21 238.365 178.042C238.636 177.865 238.944 177.734 239.289 177.65C239.635 177.566 239.999 177.524 240.381 177.524C240.876 177.524 241.324 177.603 241.725 177.762C242.127 177.921 242.458 178.154 242.719 178.462C242.981 178.77 243.135 179.157 243.181 179.624H241.823C241.767 179.372 241.604 179.171 241.333 179.022C241.072 178.863 240.741 178.784 240.339 178.784C240.199 178.784 240.045 178.793 239.877 178.812C239.719 178.831 239.565 178.873 239.415 178.938C239.266 179.003 239.145 179.097 239.051 179.218C238.958 179.33 238.911 179.479 238.911 179.666C238.911 179.843 238.953 179.993 239.037 180.114C239.131 180.235 239.261 180.333 239.429 180.408C239.607 180.483 239.807 180.543 240.031 180.59C240.349 180.665 240.689 180.735 241.053 180.8C241.427 180.865 241.73 180.935 241.963 181.01C242.271 181.094 242.533 181.215 242.747 181.374C242.971 181.533 243.139 181.733 243.251 181.976C243.373 182.219 243.433 182.513 243.433 182.858C243.433 183.306 243.345 183.675 243.167 183.964C242.99 184.244 242.752 184.468 242.453 184.636C242.164 184.804 241.837 184.921 241.473 184.986C241.119 185.051 240.769 185.084 240.423 185.084ZM249.686 185L247.082 175.102H248.748L250.82 183.572L252.85 175.102H254.964L256.98 183.572L259.052 175.102H260.634L258.044 185H255.888L253.872 176.67L251.856 185H249.686ZM263.533 185.084C263.197 185.084 262.87 185.042 262.553 184.958C262.245 184.865 261.969 184.729 261.727 184.552C261.484 184.365 261.288 184.137 261.139 183.866C260.999 183.586 260.929 183.259 260.929 182.886C260.929 182.438 261.013 182.069 261.181 181.78C261.358 181.481 261.591 181.253 261.881 181.094C262.17 180.926 262.501 180.809 262.875 180.744C263.257 180.669 263.654 180.632 264.065 180.632H265.871C265.871 180.268 265.815 179.951 265.703 179.68C265.591 179.4 265.413 179.185 265.171 179.036C264.937 178.877 264.625 178.798 264.233 178.798C263.999 178.798 263.775 178.826 263.561 178.882C263.355 178.929 263.178 179.008 263.029 179.12C262.879 179.232 262.777 179.381 262.721 179.568H261.209C261.265 179.213 261.391 178.91 261.587 178.658C261.783 178.397 262.025 178.182 262.315 178.014C262.604 177.846 262.912 177.725 263.239 177.65C263.575 177.566 263.915 177.524 264.261 177.524C265.325 177.524 266.09 177.837 266.557 178.462C267.033 179.078 267.271 179.927 267.271 181.01V185H266.025L265.969 184.062C265.754 184.351 265.497 184.571 265.199 184.72C264.909 184.869 264.62 184.967 264.331 185.014C264.041 185.061 263.775 185.084 263.533 185.084ZM263.757 183.866C264.177 183.866 264.545 183.796 264.863 183.656C265.18 183.507 265.427 183.297 265.605 183.026C265.782 182.746 265.871 182.419 265.871 182.046V181.738H264.555C264.284 181.738 264.018 181.747 263.757 181.766C263.505 181.775 263.271 181.813 263.057 181.878C262.851 181.934 262.683 182.032 262.553 182.172C262.431 182.312 262.371 182.513 262.371 182.774C262.371 183.026 262.436 183.231 262.567 183.39C262.697 183.549 262.87 183.67 263.085 183.754C263.299 183.829 263.523 183.866 263.757 183.866ZM271.857 185.084C271.064 185.084 270.494 184.869 270.149 184.44C269.813 184.001 269.645 183.39 269.645 182.606V178.91H268.469V177.622H269.645V175.48H271.087V177.622H273.341V178.91H271.087V182.368C271.087 182.629 271.11 182.867 271.157 183.082C271.213 183.297 271.316 183.465 271.465 183.586C271.614 183.707 271.829 183.773 272.109 183.782C272.324 183.782 272.51 183.745 272.669 183.67C272.837 183.595 272.972 183.511 273.075 183.418L273.635 184.496C273.458 184.636 273.271 184.753 273.075 184.846C272.888 184.93 272.692 184.991 272.487 185.028C272.282 185.065 272.072 185.084 271.857 185.084ZM277.433 185.084C277.088 185.084 276.742 185.051 276.397 184.986C276.052 184.921 275.73 184.804 275.431 184.636C275.132 184.468 274.88 184.244 274.675 183.964C274.47 183.675 274.339 183.32 274.283 182.9H275.753C275.828 183.124 275.958 183.306 276.145 183.446C276.341 183.586 276.556 183.689 276.789 183.754C277.032 183.819 277.27 183.852 277.503 183.852C277.643 183.852 277.797 183.843 277.965 183.824C278.142 183.805 278.31 183.763 278.469 183.698C278.628 183.633 278.758 183.539 278.861 183.418C278.964 183.287 279.015 183.115 279.015 182.9C279.015 182.732 278.968 182.592 278.875 182.48C278.791 182.368 278.67 182.279 278.511 182.214C278.362 182.139 278.18 182.083 277.965 182.046C277.545 181.953 277.092 181.864 276.607 181.78C276.131 181.687 275.711 181.528 275.347 181.304C275.216 181.22 275.1 181.127 274.997 181.024C274.894 180.912 274.806 180.786 274.731 180.646C274.656 180.506 274.6 180.357 274.563 180.198C274.526 180.039 274.507 179.867 274.507 179.68C274.507 179.297 274.582 178.971 274.731 178.7C274.89 178.429 275.104 178.21 275.375 178.042C275.646 177.865 275.954 177.734 276.299 177.65C276.644 177.566 277.008 177.524 277.391 177.524C277.886 177.524 278.334 177.603 278.735 177.762C279.136 177.921 279.468 178.154 279.729 178.462C279.99 178.77 280.144 179.157 280.191 179.624H278.833C278.777 179.372 278.614 179.171 278.343 179.022C278.082 178.863 277.75 178.784 277.349 178.784C277.209 178.784 277.055 178.793 276.887 178.812C276.728 178.831 276.574 178.873 276.425 178.938C276.276 179.003 276.154 179.097 276.061 179.218C275.968 179.33 275.921 179.479 275.921 179.666C275.921 179.843 275.963 179.993 276.047 180.114C276.14 180.235 276.271 180.333 276.439 180.408C276.616 180.483 276.817 180.543 277.041 180.59C277.358 180.665 277.699 180.735 278.063 180.8C278.436 180.865 278.74 180.935 278.973 181.01C279.281 181.094 279.542 181.215 279.757 181.374C279.981 181.533 280.149 181.733 280.261 181.976C280.382 182.219 280.443 182.513 280.443 182.858C280.443 183.306 280.354 183.675 280.177 183.964C280 184.244 279.762 184.468 279.463 184.636C279.174 184.804 278.847 184.921 278.483 184.986C278.128 185.051 277.778 185.084 277.433 185.084ZM285.102 185.084C284.336 185.084 283.688 184.93 283.156 184.622C282.624 184.305 282.218 183.861 281.938 183.292C281.667 182.723 281.532 182.065 281.532 181.318C281.532 180.562 281.672 179.904 281.952 179.344C282.232 178.775 282.638 178.331 283.17 178.014C283.702 177.687 284.35 177.524 285.116 177.524C285.881 177.524 286.53 177.687 287.062 178.014C287.594 178.331 287.995 178.775 288.266 179.344C288.536 179.913 288.672 180.576 288.672 181.332C288.672 182.069 288.532 182.723 288.252 183.292C287.981 183.861 287.58 184.305 287.048 184.622C286.525 184.93 285.876 185.084 285.102 185.084ZM285.102 183.796C285.606 183.796 286.012 183.684 286.32 183.46C286.637 183.236 286.87 182.937 287.02 182.564C287.169 182.181 287.244 181.766 287.244 181.318C287.244 180.87 287.169 180.459 287.02 180.086C286.87 179.713 286.637 179.414 286.32 179.19C286.012 178.957 285.606 178.84 285.102 178.84C284.607 178.84 284.201 178.957 283.884 179.19C283.566 179.414 283.333 179.713 283.184 180.086C283.044 180.459 282.974 180.87 282.974 181.318C282.974 181.775 283.044 182.191 283.184 182.564C283.333 182.937 283.566 183.236 283.884 183.46C284.201 183.684 284.607 183.796 285.102 183.796ZM290.152 185V177.622H291.524L291.594 178.658C291.78 178.387 292.004 178.173 292.266 178.014C292.527 177.846 292.807 177.725 293.106 177.65C293.404 177.566 293.694 177.524 293.974 177.524C294.683 177.524 295.238 177.678 295.64 177.986C296.05 178.285 296.34 178.691 296.508 179.204C296.685 179.708 296.774 180.282 296.774 180.926V185H295.318V181.22C295.318 180.921 295.299 180.627 295.262 180.338C295.224 180.049 295.145 179.792 295.024 179.568C294.912 179.335 294.748 179.153 294.534 179.022C294.319 178.882 294.03 178.812 293.666 178.812C293.218 178.812 292.84 178.933 292.532 179.176C292.224 179.419 291.99 179.745 291.832 180.156C291.673 180.567 291.594 181.029 291.594 181.542V185H290.152ZM298.729 178.574L298.491 175.102H299.947L299.709 178.574H298.729ZM304.476 185.084C304.131 185.084 303.785 185.051 303.44 184.986C303.095 184.921 302.773 184.804 302.474 184.636C302.175 184.468 301.923 184.244 301.718 183.964C301.513 183.675 301.382 183.32 301.326 182.9H302.796C302.871 183.124 303.001 183.306 303.188 183.446C303.384 183.586 303.599 183.689 303.832 183.754C304.075 183.819 304.313 183.852 304.546 183.852C304.686 183.852 304.84 183.843 305.008 183.824C305.185 183.805 305.353 183.763 305.512 183.698C305.671 183.633 305.801 183.539 305.904 183.418C306.007 183.287 306.058 183.115 306.058 182.9C306.058 182.732 306.011 182.592 305.918 182.48C305.834 182.368 305.713 182.279 305.554 182.214C305.405 182.139 305.223 182.083 305.008 182.046C304.588 181.953 304.135 181.864 303.65 181.78C303.174 181.687 302.754 181.528 302.39 181.304C302.259 181.22 302.143 181.127 302.04 181.024C301.937 180.912 301.849 180.786 301.774 180.646C301.699 180.506 301.643 180.357 301.606 180.198C301.569 180.039 301.55 179.867 301.55 179.68C301.55 179.297 301.625 178.971 301.774 178.7C301.933 178.429 302.147 178.21 302.418 178.042C302.689 177.865 302.997 177.734 303.342 177.65C303.687 177.566 304.051 177.524 304.434 177.524C304.929 177.524 305.377 177.603 305.778 177.762C306.179 177.921 306.511 178.154 306.772 178.462C307.033 178.77 307.187 179.157 307.234 179.624H305.876C305.82 179.372 305.657 179.171 305.386 179.022C305.125 178.863 304.793 178.784 304.392 178.784C304.252 178.784 304.098 178.793 303.93 178.812C303.771 178.831 303.617 178.873 303.468 178.938C303.319 179.003 303.197 179.097 303.104 179.218C303.011 179.33 302.964 179.479 302.964 179.666C302.964 179.843 303.006 179.993 303.09 180.114C303.183 180.235 303.314 180.333 303.482 180.408C303.659 180.483 303.86 180.543 304.084 180.59C304.401 180.665 304.742 180.735 305.106 180.8C305.479 180.865 305.783 180.935 306.016 181.01C306.324 181.094 306.585 181.215 306.8 181.374C307.024 181.533 307.192 181.733 307.304 181.976C307.425 182.219 307.486 182.513 307.486 182.858C307.486 183.306 307.397 183.675 307.22 183.964C307.043 184.244 306.805 184.468 306.506 184.636C306.217 184.804 305.89 184.921 305.526 184.986C305.171 185.051 304.821 185.084 304.476 185.084ZM315.048 185.084C314.712 185.084 314.386 185.042 314.068 184.958C313.76 184.865 313.485 184.729 313.242 184.552C313 184.365 312.804 184.137 312.654 183.866C312.514 183.586 312.444 183.259 312.444 182.886C312.444 182.438 312.528 182.069 312.696 181.78C312.874 181.481 313.107 181.253 313.396 181.094C313.686 180.926 314.017 180.809 314.39 180.744C314.773 180.669 315.17 180.632 315.58 180.632H317.386C317.386 180.268 317.33 179.951 317.218 179.68C317.106 179.4 316.929 179.185 316.686 179.036C316.453 178.877 316.14 178.798 315.748 178.798C315.515 178.798 315.291 178.826 315.076 178.882C314.871 178.929 314.694 179.008 314.544 179.12C314.395 179.232 314.292 179.381 314.236 179.568H312.724C312.78 179.213 312.906 178.91 313.102 178.658C313.298 178.397 313.541 178.182 313.83 178.014C314.12 177.846 314.428 177.725 314.754 177.65C315.09 177.566 315.431 177.524 315.776 177.524C316.84 177.524 317.606 177.837 318.072 178.462C318.548 179.078 318.786 179.927 318.786 181.01V185H317.54L317.484 184.062C317.27 184.351 317.013 184.571 316.714 184.72C316.425 184.869 316.136 184.967 315.846 185.014C315.557 185.061 315.291 185.084 315.048 185.084ZM315.272 183.866C315.692 183.866 316.061 183.796 316.378 183.656C316.696 183.507 316.943 183.297 317.12 183.026C317.298 182.746 317.386 182.419 317.386 182.046V181.738H316.07C315.8 181.738 315.534 181.747 315.272 181.766C315.02 181.775 314.787 181.813 314.572 181.878C314.367 181.934 314.199 182.032 314.068 182.172C313.947 182.312 313.886 182.513 313.886 182.774C313.886 183.026 313.952 183.231 314.082 183.39C314.213 183.549 314.386 183.67 314.6 183.754C314.815 183.829 315.039 183.866 315.272 183.866ZM323.723 185.084C322.948 185.084 322.299 184.925 321.777 184.608C321.263 184.291 320.876 183.852 320.615 183.292C320.363 182.723 320.237 182.069 320.237 181.332C320.237 180.604 320.367 179.955 320.629 179.386C320.899 178.807 321.301 178.355 321.833 178.028C322.374 177.692 323.041 177.524 323.835 177.524C324.376 177.524 324.857 177.617 325.277 177.804C325.697 177.981 326.037 178.247 326.299 178.602C326.569 178.947 326.747 179.381 326.831 179.904H325.389C325.267 179.521 325.062 179.246 324.773 179.078C324.493 178.91 324.161 178.826 323.779 178.826C323.265 178.826 322.855 178.947 322.547 179.19C322.248 179.433 322.029 179.745 321.889 180.128C321.749 180.511 321.679 180.912 321.679 181.332C321.679 181.771 321.749 182.177 321.889 182.55C322.038 182.923 322.262 183.227 322.561 183.46C322.869 183.684 323.27 183.796 323.765 183.796C324.138 183.796 324.483 183.717 324.801 183.558C325.118 183.39 325.323 183.11 325.417 182.718H326.901C326.817 183.259 326.621 183.707 326.313 184.062C326.005 184.407 325.622 184.664 325.165 184.832C324.717 185 324.236 185.084 323.723 185.084ZM331.639 185.084C330.864 185.084 330.215 184.925 329.693 184.608C329.179 184.291 328.792 183.852 328.531 183.292C328.279 182.723 328.153 182.069 328.153 181.332C328.153 180.604 328.283 179.955 328.545 179.386C328.815 178.807 329.217 178.355 329.749 178.028C330.29 177.692 330.957 177.524 331.751 177.524C332.292 177.524 332.773 177.617 333.193 177.804C333.613 177.981 333.953 178.247 334.215 178.602C334.485 178.947 334.663 179.381 334.747 179.904H333.305C333.183 179.521 332.978 179.246 332.689 179.078C332.409 178.91 332.077 178.826 331.695 178.826C331.181 178.826 330.771 178.947 330.463 179.19C330.164 179.433 329.945 179.745 329.805 180.128C329.665 180.511 329.595 180.912 329.595 181.332C329.595 181.771 329.665 182.177 329.805 182.55C329.954 182.923 330.178 183.227 330.477 183.46C330.785 183.684 331.186 183.796 331.681 183.796C332.054 183.796 332.399 183.717 332.717 183.558C333.034 183.39 333.239 183.11 333.333 182.718H334.817C334.733 183.259 334.537 183.707 334.229 184.062C333.921 184.407 333.538 184.664 333.081 184.832C332.633 185 332.152 185.084 331.639 185.084ZM339.502 185.084C338.737 185.084 338.088 184.93 337.556 184.622C337.024 184.305 336.618 183.861 336.338 183.292C336.067 182.723 335.932 182.065 335.932 181.318C335.932 180.562 336.072 179.904 336.352 179.344C336.632 178.775 337.038 178.331 337.57 178.014C338.102 177.687 338.751 177.524 339.516 177.524C340.281 177.524 340.93 177.687 341.462 178.014C341.994 178.331 342.395 178.775 342.666 179.344C342.937 179.913 343.072 180.576 343.072 181.332C343.072 182.069 342.932 182.723 342.652 183.292C342.381 183.861 341.98 184.305 341.448 184.622C340.925 184.93 340.277 185.084 339.502 185.084ZM339.502 183.796C340.006 183.796 340.412 183.684 340.72 183.46C341.037 183.236 341.271 182.937 341.42 182.564C341.569 182.181 341.644 181.766 341.644 181.318C341.644 180.87 341.569 180.459 341.42 180.086C341.271 179.713 341.037 179.414 340.72 179.19C340.412 178.957 340.006 178.84 339.502 178.84C339.007 178.84 338.601 178.957 338.284 179.19C337.967 179.414 337.733 179.713 337.584 180.086C337.444 180.459 337.374 180.87 337.374 181.318C337.374 181.775 337.444 182.191 337.584 182.564C337.733 182.937 337.967 183.236 338.284 183.46C338.601 183.684 339.007 183.796 339.502 183.796ZM347.716 185.084C346.68 185.084 345.887 184.813 345.336 184.272C344.795 183.721 344.524 182.886 344.524 181.766V177.622H345.966V181.682C345.966 182.121 346.027 182.499 346.148 182.816C346.279 183.133 346.475 183.376 346.736 183.544C346.997 183.712 347.329 183.796 347.73 183.796C348.15 183.796 348.486 183.712 348.738 183.544C348.999 183.367 349.186 183.119 349.298 182.802C349.419 182.485 349.48 182.111 349.48 181.682V177.622H350.922V181.766C350.922 182.905 350.642 183.745 350.082 184.286C349.531 184.818 348.743 185.084 347.716 185.084ZM352.659 185V177.622H354.031L354.101 178.658C354.288 178.387 354.512 178.173 354.773 178.014C355.035 177.846 355.315 177.725 355.613 177.65C355.912 177.566 356.201 177.524 356.481 177.524C357.191 177.524 357.746 177.678 358.147 177.986C358.558 178.285 358.847 178.691 359.015 179.204C359.193 179.708 359.281 180.282 359.281 180.926V185H357.825V181.22C357.825 180.921 357.807 180.627 357.769 180.338C357.732 180.049 357.653 179.792 357.531 179.568C357.419 179.335 357.256 179.153 357.041 179.022C356.827 178.882 356.537 178.812 356.173 178.812C355.725 178.812 355.347 178.933 355.039 179.176C354.731 179.419 354.498 179.745 354.339 180.156C354.181 180.567 354.101 181.029 354.101 181.542V185H352.659ZM364.107 185C363.529 185 363.057 184.921 362.693 184.762C362.329 184.594 362.059 184.333 361.881 183.978C361.713 183.623 361.629 183.161 361.629 182.592V178.91H360.467V177.622H361.629V175.494H363.071V177.622H364.933V178.91H363.071V182.41C363.071 182.849 363.151 183.18 363.309 183.404C363.468 183.619 363.799 183.726 364.303 183.726H364.877V185H364.107Z" fill="white" fill-opacity="0.35"/>
<path d="M260.236 428.112C259.219 428.112 258.365 427.897 257.674 427.468C256.993 427.039 256.479 426.446 256.134 425.69C255.789 424.934 255.616 424.061 255.616 423.072C255.616 422.083 255.789 421.205 256.134 420.44C256.489 419.675 257.007 419.077 257.688 418.648C258.379 418.209 259.233 417.99 260.25 417.99C260.987 417.99 261.631 418.111 262.182 418.354C262.733 418.587 263.176 418.923 263.512 419.362C263.857 419.791 264.086 420.305 264.198 420.902H262.742C262.602 420.426 262.317 420.048 261.888 419.768C261.459 419.488 260.908 419.348 260.236 419.348C259.489 419.348 258.887 419.521 258.43 419.866C257.982 420.211 257.655 420.664 257.45 421.224C257.245 421.775 257.142 422.372 257.142 423.016C257.142 423.679 257.249 424.295 257.464 424.864C257.679 425.433 258.019 425.891 258.486 426.236C258.953 426.581 259.55 426.754 260.278 426.754C260.726 426.754 261.123 426.693 261.468 426.572C261.813 426.441 262.103 426.259 262.336 426.026C262.569 425.783 262.728 425.503 262.812 425.186H264.366C264.245 425.793 263.997 426.315 263.624 426.754C263.251 427.193 262.779 427.529 262.21 427.762C261.641 427.995 260.983 428.112 260.236 428.112ZM268.944 428.084C267.908 428.084 267.115 427.813 266.564 427.272C266.023 426.721 265.752 425.886 265.752 424.766V420.622H267.194V424.682C267.194 425.121 267.255 425.499 267.376 425.816C267.507 426.133 267.703 426.376 267.964 426.544C268.226 426.712 268.557 426.796 268.958 426.796C269.378 426.796 269.714 426.712 269.966 426.544C270.228 426.367 270.414 426.119 270.526 425.802C270.648 425.485 270.708 425.111 270.708 424.682V420.622H272.15V424.766C272.15 425.905 271.87 426.745 271.31 427.286C270.76 427.818 269.971 428.084 268.944 428.084ZM276.646 428.084C276.301 428.084 275.955 428.051 275.61 427.986C275.265 427.921 274.943 427.804 274.644 427.636C274.345 427.468 274.093 427.244 273.888 426.964C273.683 426.675 273.552 426.32 273.496 425.9H274.966C275.041 426.124 275.171 426.306 275.358 426.446C275.554 426.586 275.769 426.689 276.002 426.754C276.245 426.819 276.483 426.852 276.716 426.852C276.856 426.852 277.01 426.843 277.178 426.824C277.355 426.805 277.523 426.763 277.682 426.698C277.841 426.633 277.971 426.539 278.074 426.418C278.177 426.287 278.228 426.115 278.228 425.9C278.228 425.732 278.181 425.592 278.088 425.48C278.004 425.368 277.883 425.279 277.724 425.214C277.575 425.139 277.393 425.083 277.178 425.046C276.758 424.953 276.305 424.864 275.82 424.78C275.344 424.687 274.924 424.528 274.56 424.304C274.429 424.22 274.313 424.127 274.21 424.024C274.107 423.912 274.019 423.786 273.944 423.646C273.869 423.506 273.813 423.357 273.776 423.198C273.739 423.039 273.72 422.867 273.72 422.68C273.72 422.297 273.795 421.971 273.944 421.7C274.103 421.429 274.317 421.21 274.588 421.042C274.859 420.865 275.167 420.734 275.512 420.65C275.857 420.566 276.221 420.524 276.604 420.524C277.099 420.524 277.547 420.603 277.948 420.762C278.349 420.921 278.681 421.154 278.942 421.462C279.203 421.77 279.357 422.157 279.404 422.624H278.046C277.99 422.372 277.827 422.171 277.556 422.022C277.295 421.863 276.963 421.784 276.562 421.784C276.422 421.784 276.268 421.793 276.1 421.812C275.941 421.831 275.787 421.873 275.638 421.938C275.489 422.003 275.367 422.097 275.274 422.218C275.181 422.33 275.134 422.479 275.134 422.666C275.134 422.843 275.176 422.993 275.26 423.114C275.353 423.235 275.484 423.333 275.652 423.408C275.829 423.483 276.03 423.543 276.254 423.59C276.571 423.665 276.912 423.735 277.276 423.8C277.649 423.865 277.953 423.935 278.186 424.01C278.494 424.094 278.755 424.215 278.97 424.374C279.194 424.533 279.362 424.733 279.474 424.976C279.595 425.219 279.656 425.513 279.656 425.858C279.656 426.306 279.567 426.675 279.39 426.964C279.213 427.244 278.975 427.468 278.676 427.636C278.387 427.804 278.06 427.921 277.696 427.986C277.341 428.051 276.991 428.084 276.646 428.084ZM283.881 428.084C283.087 428.084 282.518 427.869 282.173 427.44C281.837 427.001 281.669 426.39 281.669 425.606V421.91H280.493V420.622H281.669V418.48H283.111V420.622H285.365V421.91H283.111V425.368C283.111 425.629 283.134 425.867 283.181 426.082C283.237 426.297 283.339 426.465 283.489 426.586C283.638 426.707 283.853 426.773 284.133 426.782C284.347 426.782 284.534 426.745 284.693 426.67C284.861 426.595 284.996 426.511 285.099 426.418L285.659 427.496C285.481 427.636 285.295 427.753 285.099 427.846C284.912 427.93 284.716 427.991 284.511 428.028C284.305 428.065 284.095 428.084 283.881 428.084ZM289.988 428.084C289.223 428.084 288.574 427.93 288.042 427.622C287.51 427.305 287.104 426.861 286.824 426.292C286.554 425.723 286.418 425.065 286.418 424.318C286.418 423.562 286.558 422.904 286.838 422.344C287.118 421.775 287.524 421.331 288.056 421.014C288.588 420.687 289.237 420.524 290.002 420.524C290.768 420.524 291.416 420.687 291.948 421.014C292.48 421.331 292.882 421.775 293.152 422.344C293.423 422.913 293.558 423.576 293.558 424.332C293.558 425.069 293.418 425.723 293.138 426.292C292.868 426.861 292.466 427.305 291.934 427.622C291.412 427.93 290.763 428.084 289.988 428.084ZM289.988 426.796C290.492 426.796 290.898 426.684 291.206 426.46C291.524 426.236 291.757 425.937 291.906 425.564C292.056 425.181 292.13 424.766 292.13 424.318C292.13 423.87 292.056 423.459 291.906 423.086C291.757 422.713 291.524 422.414 291.206 422.19C290.898 421.957 290.492 421.84 289.988 421.84C289.494 421.84 289.088 421.957 288.77 422.19C288.453 422.414 288.22 422.713 288.07 423.086C287.93 423.459 287.86 423.87 287.86 424.318C287.86 424.775 287.93 425.191 288.07 425.564C288.22 425.937 288.453 426.236 288.77 426.46C289.088 426.684 289.494 426.796 289.988 426.796ZM295.038 428V420.622H296.396L296.48 421.49C296.648 421.247 296.835 421.061 297.04 420.93C297.255 420.79 297.484 420.687 297.726 420.622C297.969 420.557 298.216 420.524 298.468 420.524C298.963 420.524 299.369 420.627 299.686 420.832C300.013 421.037 300.265 421.317 300.442 421.672C300.62 421.42 300.82 421.21 301.044 421.042C301.268 420.865 301.516 420.734 301.786 420.65C302.057 420.566 302.346 420.524 302.654 420.524C303.205 420.524 303.648 420.645 303.984 420.888C304.33 421.121 304.577 421.439 304.726 421.84C304.885 422.241 304.964 422.703 304.964 423.226V428H303.508V423.8C303.508 423.576 303.499 423.352 303.48 423.128C303.462 422.904 303.406 422.694 303.312 422.498C303.228 422.293 303.102 422.129 302.934 422.008C302.776 421.877 302.547 421.812 302.248 421.812C301.959 421.812 301.716 421.877 301.52 422.008C301.334 422.139 301.18 422.316 301.058 422.54C300.946 422.755 300.862 422.988 300.806 423.24C300.76 423.492 300.736 423.744 300.736 423.996V428H299.28V423.786C299.28 423.571 299.271 423.352 299.252 423.128C299.234 422.904 299.187 422.694 299.112 422.498C299.038 422.293 298.912 422.129 298.734 422.008C298.566 421.877 298.338 421.812 298.048 421.812C297.628 421.812 297.302 421.933 297.068 422.176C296.844 422.409 296.69 422.699 296.606 423.044C296.522 423.38 296.48 423.702 296.48 424.01V428H295.038ZM309.907 428.084C309.133 428.084 308.484 427.925 307.961 427.608C307.439 427.291 307.042 426.852 306.771 426.292C306.51 425.723 306.379 425.069 306.379 424.332C306.379 423.585 306.515 422.927 306.785 422.358C307.065 421.789 307.467 421.341 307.989 421.014C308.521 420.687 309.161 420.524 309.907 420.524C310.477 420.524 310.971 420.631 311.391 420.846C311.811 421.051 312.157 421.331 312.427 421.686C312.707 422.041 312.913 422.437 313.043 422.876C313.174 423.305 313.23 423.753 313.211 424.22C313.211 424.323 313.207 424.421 313.197 424.514C313.188 424.607 313.179 424.705 313.169 424.808H307.835C307.863 425.181 307.957 425.522 308.115 425.83C308.283 426.138 308.517 426.385 308.815 426.572C309.114 426.749 309.483 426.838 309.921 426.838C310.164 426.838 310.397 426.81 310.621 426.754C310.855 426.689 311.06 426.591 311.237 426.46C311.424 426.32 311.555 426.143 311.629 425.928H313.085C312.964 426.423 312.745 426.833 312.427 427.16C312.119 427.477 311.741 427.711 311.293 427.86C310.855 428.009 310.393 428.084 309.907 428.084ZM307.863 423.66H311.783C311.774 423.296 311.69 422.974 311.531 422.694C311.373 422.405 311.153 422.181 310.873 422.022C310.593 421.854 310.257 421.77 309.865 421.77C309.436 421.77 309.077 421.859 308.787 422.036C308.507 422.213 308.288 422.447 308.129 422.736C307.98 423.016 307.891 423.324 307.863 423.66ZM314.698 428V420.622H316.056L316.126 421.686C316.313 421.397 316.528 421.168 316.77 421C317.013 420.832 317.279 420.711 317.568 420.636C317.858 420.561 318.161 420.524 318.478 420.524C318.562 420.524 318.642 420.524 318.716 420.524C318.791 420.524 318.861 420.524 318.926 420.524V421.91H318.478C317.946 421.91 317.503 422.017 317.148 422.232C316.803 422.447 316.546 422.745 316.378 423.128C316.22 423.511 316.14 423.949 316.14 424.444V428H314.698Z" fill="white" fill-opacity="0.35"/>
<path d="M227.772 451.072C227.484 451.072 227.204 451.036 226.932 450.964C226.668 450.884 226.432 450.768 226.224 450.616C226.016 450.456 225.848 450.26 225.72 450.028C225.6 449.788 225.54 449.508 225.54 449.188C225.54 448.804 225.612 448.488 225.756 448.24C225.908 447.984 226.108 447.788 226.356 447.652C226.604 447.508 226.888 447.408 227.208 447.352C227.536 447.288 227.876 447.256 228.228 447.256H229.776C229.776 446.944 229.728 446.672 229.632 446.44C229.536 446.2 229.384 446.016 229.176 445.888C228.976 445.752 228.708 445.684 228.372 445.684C228.172 445.684 227.98 445.708 227.796 445.756C227.62 445.796 227.468 445.864 227.34 445.96C227.212 446.056 227.124 446.184 227.076 446.344H225.78C225.828 446.04 225.936 445.78 226.104 445.564C226.272 445.34 226.48 445.156 226.728 445.012C226.976 444.868 227.24 444.764 227.52 444.7C227.808 444.628 228.1 444.592 228.396 444.592C229.308 444.592 229.964 444.86 230.364 445.396C230.772 445.924 230.976 446.652 230.976 447.58V451H229.908L229.86 450.196C229.676 450.444 229.456 450.632 229.2 450.76C228.952 450.888 228.704 450.972 228.456 451.012C228.208 451.052 227.98 451.072 227.772 451.072ZM227.964 450.028C228.324 450.028 228.64 449.968 228.912 449.848C229.184 449.72 229.396 449.54 229.548 449.308C229.7 449.068 229.776 448.788 229.776 448.468V448.204H228.648C228.416 448.204 228.188 448.212 227.964 448.228C227.748 448.236 227.548 448.268 227.364 448.324C227.188 448.372 227.044 448.456 226.932 448.576C226.828 448.696 226.776 448.868 226.776 449.092C226.776 449.308 226.832 449.484 226.944 449.62C227.056 449.756 227.204 449.86 227.388 449.932C227.572 449.996 227.764 450.028 227.964 450.028ZM232.459 451V442.516H233.695V451H232.459ZM235.225 453.304V444.676H236.401L236.461 445.576C236.685 445.248 236.977 445.004 237.337 444.844C237.697 444.676 238.089 444.592 238.513 444.592C239.145 444.592 239.665 444.736 240.073 445.024C240.481 445.304 240.785 445.692 240.985 446.188C241.185 446.676 241.285 447.224 241.285 447.832C241.285 448.456 241.181 449.012 240.973 449.5C240.773 449.988 240.461 450.372 240.037 450.652C239.621 450.932 239.093 451.072 238.453 451.072C238.149 451.072 237.869 451.04 237.613 450.976C237.365 450.912 237.145 450.82 236.953 450.7C236.769 450.572 236.605 450.424 236.461 450.256V453.304H235.225ZM238.297 449.968C238.729 449.968 239.073 449.872 239.329 449.68C239.585 449.48 239.769 449.22 239.881 448.9C239.993 448.58 240.049 448.232 240.049 447.856C240.049 447.464 239.989 447.108 239.869 446.788C239.757 446.46 239.569 446.2 239.305 446.008C239.049 445.808 238.705 445.708 238.273 445.708C237.881 445.708 237.549 445.808 237.277 446.008C237.005 446.2 236.797 446.46 236.653 446.788C236.517 447.116 236.449 447.472 236.449 447.856C236.449 448.248 236.513 448.608 236.641 448.936C236.777 449.256 236.981 449.508 237.253 449.692C237.533 449.876 237.881 449.968 238.297 449.968ZM242.561 451V442.516H243.797V445.564C243.965 445.348 244.157 445.168 244.373 445.024C244.597 444.88 244.837 444.772 245.093 444.7C245.349 444.628 245.605 444.592 245.861 444.592C246.469 444.592 246.945 444.724 247.289 444.988C247.633 445.244 247.877 445.592 248.021 446.032C248.165 446.472 248.237 446.968 248.237 447.52V451H246.989V447.808C246.989 447.552 246.969 447.3 246.929 447.052C246.897 446.804 246.833 446.58 246.737 446.38C246.641 446.172 246.493 446.008 246.293 445.888C246.101 445.76 245.841 445.696 245.513 445.696C245.201 445.696 244.933 445.764 244.709 445.9C244.493 446.036 244.317 446.22 244.181 446.452C244.053 446.676 243.957 446.924 243.893 447.196C243.829 447.46 243.797 447.724 243.797 447.988V451H242.561ZM251.725 451.072C251.437 451.072 251.157 451.036 250.885 450.964C250.621 450.884 250.385 450.768 250.177 450.616C249.969 450.456 249.801 450.26 249.673 450.028C249.553 449.788 249.493 449.508 249.493 449.188C249.493 448.804 249.565 448.488 249.709 448.24C249.861 447.984 250.061 447.788 250.309 447.652C250.557 447.508 250.841 447.408 251.161 447.352C251.489 447.288 251.829 447.256 252.181 447.256H253.729C253.729 446.944 253.681 446.672 253.585 446.44C253.489 446.2 253.337 446.016 253.129 445.888C252.929 445.752 252.661 445.684 252.325 445.684C252.125 445.684 251.933 445.708 251.749 445.756C251.573 445.796 251.421 445.864 251.293 445.96C251.165 446.056 251.077 446.184 251.029 446.344H249.733C249.781 446.04 249.889 445.78 250.057 445.564C250.225 445.34 250.433 445.156 250.681 445.012C250.929 444.868 251.193 444.764 251.473 444.7C251.761 444.628 252.053 444.592 252.349 444.592C253.261 444.592 253.917 444.86 254.317 445.396C254.725 445.924 254.929 446.652 254.929 447.58V451H253.861L253.813 450.196C253.629 450.444 253.409 450.632 253.153 450.76C252.905 450.888 252.657 450.972 252.409 451.012C252.161 451.052 251.933 451.072 251.725 451.072ZM251.917 450.028C252.277 450.028 252.593 449.968 252.865 449.848C253.137 449.72 253.349 449.54 253.501 449.308C253.653 449.068 253.729 448.788 253.729 448.468V448.204H252.601C252.369 448.204 252.141 448.212 251.917 448.228C251.701 448.236 251.501 448.268 251.317 448.324C251.141 448.372 250.997 448.456 250.885 448.576C250.781 448.696 250.729 448.868 250.729 449.092C250.729 449.308 250.785 449.484 250.897 449.62C251.009 449.756 251.157 449.86 251.341 449.932C251.525 449.996 251.717 450.028 251.917 450.028ZM259.16 451.072C258.496 451.072 257.94 450.936 257.492 450.664C257.052 450.392 256.72 450.016 256.496 449.536C256.28 449.048 256.172 448.488 256.172 447.856C256.172 447.232 256.284 446.676 256.508 446.188C256.74 445.692 257.084 445.304 257.54 445.024C258.004 444.736 258.576 444.592 259.256 444.592C259.72 444.592 260.132 444.672 260.492 444.832C260.852 444.984 261.144 445.212 261.368 445.516C261.6 445.812 261.752 446.184 261.824 446.632H260.588C260.484 446.304 260.308 446.068 260.06 445.924C259.82 445.78 259.536 445.708 259.208 445.708C258.768 445.708 258.416 445.812 258.152 446.02C257.896 446.228 257.708 446.496 257.588 446.824C257.468 447.152 257.408 447.496 257.408 447.856C257.408 448.232 257.468 448.58 257.588 448.9C257.716 449.22 257.908 449.48 258.164 449.68C258.428 449.872 258.772 449.968 259.196 449.968C259.516 449.968 259.812 449.9 260.084 449.764C260.356 449.62 260.532 449.38 260.612 449.044H261.884C261.812 449.508 261.644 449.892 261.38 450.196C261.116 450.492 260.788 450.712 260.396 450.856C260.012 451 259.6 451.072 259.16 451.072ZM265.9 451.072C265.244 451.072 264.688 450.94 264.232 450.676C263.776 450.404 263.428 450.024 263.188 449.536C262.956 449.048 262.84 448.484 262.84 447.844C262.84 447.196 262.96 446.632 263.2 446.152C263.44 445.664 263.788 445.284 264.244 445.012C264.7 444.732 265.256 444.592 265.912 444.592C266.568 444.592 267.124 444.732 267.58 445.012C268.036 445.284 268.38 445.664 268.612 446.152C268.844 446.64 268.96 447.208 268.96 447.856C268.96 448.488 268.84 449.048 268.6 449.536C268.368 450.024 268.024 450.404 267.568 450.676C267.12 450.94 266.564 451.072 265.9 451.072ZM265.9 449.968C266.332 449.968 266.68 449.872 266.944 449.68C267.216 449.488 267.416 449.232 267.544 448.912C267.672 448.584 267.736 448.228 267.736 447.844C267.736 447.46 267.672 447.108 267.544 446.788C267.416 446.468 267.216 446.212 266.944 446.02C266.68 445.82 266.332 445.72 265.9 445.72C265.476 445.72 265.128 445.82 264.856 446.02C264.584 446.212 264.384 446.468 264.256 446.788C264.136 447.108 264.076 447.46 264.076 447.844C264.076 448.236 264.136 448.592 264.256 448.912C264.384 449.232 264.584 449.488 264.856 449.68C265.128 449.872 265.476 449.968 265.9 449.968ZM270.229 451V444.676H271.393L271.453 445.588C271.613 445.34 271.797 445.144 272.005 445C272.213 444.856 272.441 444.752 272.689 444.688C272.937 444.624 273.197 444.592 273.469 444.592C273.541 444.592 273.609 444.592 273.673 444.592C273.737 444.592 273.797 444.592 273.853 444.592V445.78H273.469C273.013 445.78 272.633 445.872 272.329 446.056C272.033 446.24 271.813 446.496 271.669 446.824C271.533 447.152 271.465 447.528 271.465 447.952V451H270.229ZM274.787 453.304V444.676H275.963L276.023 445.576C276.247 445.248 276.539 445.004 276.899 444.844C277.259 444.676 277.651 444.592 278.075 444.592C278.707 444.592 279.227 444.736 279.635 445.024C280.043 445.304 280.347 445.692 280.547 446.188C280.747 446.676 280.847 447.224 280.847 447.832C280.847 448.456 280.743 449.012 280.535 449.5C280.335 449.988 280.023 450.372 279.599 450.652C279.183 450.932 278.655 451.072 278.015 451.072C277.711 451.072 277.431 451.04 277.175 450.976C276.927 450.912 276.707 450.82 276.515 450.7C276.331 450.572 276.167 450.424 276.023 450.256V453.304H274.787ZM277.859 449.968C278.291 449.968 278.635 449.872 278.891 449.68C279.147 449.48 279.331 449.22 279.443 448.9C279.555 448.58 279.611 448.232 279.611 447.856C279.611 447.464 279.551 447.108 279.431 446.788C279.319 446.46 279.131 446.2 278.867 446.008C278.611 445.808 278.267 445.708 277.835 445.708C277.443 445.708 277.111 445.808 276.839 446.008C276.567 446.2 276.359 446.46 276.215 446.788C276.079 447.116 276.011 447.472 276.011 447.856C276.011 448.248 276.075 448.608 276.203 448.936C276.339 449.256 276.543 449.508 276.815 449.692C277.095 449.876 277.443 449.968 277.859 449.968ZM287.115 453.16C286.347 453.16 285.655 453.036 285.039 452.788C284.431 452.54 283.911 452.192 283.479 451.744C283.055 451.296 282.727 450.768 282.495 450.16C282.271 449.544 282.159 448.872 282.159 448.144C282.159 447.296 282.279 446.524 282.519 445.828C282.767 445.124 283.127 444.516 283.599 444.004C284.071 443.492 284.647 443.096 285.327 442.816C286.007 442.536 286.787 442.396 287.667 442.396C288.419 442.396 289.087 442.52 289.671 442.768C290.263 443.008 290.763 443.352 291.171 443.8C291.579 444.24 291.891 444.76 292.107 445.36C292.323 445.96 292.431 446.62 292.431 447.34C292.423 447.676 292.387 448.036 292.323 448.42C292.267 448.796 292.159 449.148 291.999 449.476C291.839 449.804 291.615 450.072 291.327 450.28C291.039 450.48 290.667 450.58 290.211 450.58C289.827 450.58 289.507 450.484 289.251 450.292C288.995 450.1 288.827 449.844 288.747 449.524C288.595 449.772 288.419 449.972 288.219 450.124C288.027 450.268 287.819 450.372 287.595 450.436C287.371 450.492 287.131 450.52 286.875 450.52C286.387 450.512 285.987 450.388 285.675 450.148C285.371 449.9 285.147 449.588 285.003 449.212C284.859 448.828 284.787 448.436 284.787 448.036C284.795 447.66 284.851 447.296 284.955 446.944C285.067 446.592 285.227 446.276 285.435 445.996C285.651 445.708 285.915 445.484 286.227 445.324C286.547 445.156 286.915 445.076 287.331 445.084C287.547 445.084 287.751 445.112 287.943 445.168C288.143 445.224 288.319 445.316 288.471 445.444C288.631 445.572 288.755 445.744 288.843 445.96L289.143 445.336L289.911 445.42C289.823 445.9 289.747 446.368 289.683 446.824C289.627 447.272 289.583 447.704 289.551 448.12C289.535 448.336 289.535 448.556 289.551 448.78C289.567 448.996 289.623 449.18 289.719 449.332C289.823 449.476 289.995 449.548 290.235 449.548C290.483 449.548 290.675 449.468 290.811 449.308C290.955 449.148 291.063 448.952 291.135 448.72C291.207 448.48 291.251 448.244 291.267 448.012C291.291 447.772 291.303 447.576 291.303 447.424C291.303 446.88 291.227 446.372 291.075 445.9C290.931 445.42 290.707 445.004 290.403 444.652C290.099 444.3 289.715 444.024 289.251 443.824C288.795 443.624 288.255 443.524 287.631 443.524C286.927 443.524 286.311 443.64 285.783 443.872C285.255 444.104 284.811 444.428 284.451 444.844C284.099 445.26 283.831 445.744 283.647 446.296C283.471 446.84 283.383 447.424 283.383 448.048C283.383 448.792 283.531 449.464 283.827 450.064C284.131 450.656 284.571 451.12 285.147 451.456C285.723 451.8 286.415 451.972 287.223 451.972C287.423 451.972 287.591 451.968 287.727 451.96C287.863 451.952 287.991 451.936 288.111 451.912C288.239 451.896 288.387 451.872 288.555 451.84L288.663 452.98C288.383 453.044 288.127 453.088 287.895 453.112C287.671 453.144 287.411 453.16 287.115 453.16ZM287.091 449.5C287.411 449.5 287.671 449.42 287.871 449.26C288.079 449.1 288.235 448.892 288.339 448.636C288.451 448.38 288.519 448.108 288.543 447.82C288.575 447.548 288.551 447.284 288.471 447.028C288.391 446.772 288.259 446.56 288.075 446.392C287.891 446.224 287.643 446.14 287.331 446.14C286.995 446.14 286.723 446.236 286.515 446.428C286.307 446.62 286.151 446.86 286.047 447.148C285.951 447.436 285.903 447.724 285.903 448.012C285.903 448.148 285.919 448.304 285.951 448.48C285.991 448.648 286.051 448.808 286.131 448.96C286.219 449.112 286.339 449.24 286.491 449.344C286.651 449.448 286.851 449.5 287.091 449.5ZM296.815 453.868C296.367 453.868 295.951 453.796 295.567 453.652C295.183 453.516 294.855 453.296 294.583 452.992C294.319 452.696 294.139 452.316 294.043 451.852H295.327C295.383 452.068 295.491 452.24 295.651 452.368C295.811 452.504 295.999 452.6 296.215 452.656C296.431 452.712 296.647 452.74 296.863 452.74C297.271 452.74 297.599 452.656 297.847 452.488C298.095 452.32 298.271 452.092 298.375 451.804C298.487 451.524 298.543 451.204 298.543 450.844V450.112C298.407 450.344 298.227 450.532 298.003 450.676C297.779 450.82 297.539 450.924 297.283 450.988C297.035 451.044 296.779 451.072 296.515 451.072C295.867 451.072 295.339 450.928 294.931 450.64C294.523 450.352 294.219 449.968 294.019 449.488C293.827 449 293.731 448.46 293.731 447.868C293.731 447.26 293.831 446.708 294.031 446.212C294.239 445.716 294.555 445.324 294.979 445.036C295.403 444.74 295.939 444.592 296.587 444.592C296.963 444.592 297.327 444.66 297.679 444.796C298.031 444.924 298.323 445.132 298.555 445.42L298.627 444.676H299.791V450.7C299.791 451.348 299.687 451.908 299.479 452.38C299.271 452.86 298.947 453.228 298.507 453.484C298.067 453.74 297.503 453.868 296.815 453.868ZM296.743 449.968C297.143 449.968 297.475 449.872 297.739 449.68C298.011 449.48 298.215 449.216 298.351 448.888C298.487 448.56 298.555 448.2 298.555 447.808C298.555 447.408 298.487 447.052 298.351 446.74C298.215 446.42 298.015 446.168 297.751 445.984C297.487 445.8 297.147 445.708 296.731 445.708C296.299 445.708 295.955 445.808 295.699 446.008C295.443 446.2 295.255 446.46 295.135 446.788C295.023 447.108 294.967 447.464 294.967 447.856C294.967 448.256 295.027 448.616 295.147 448.936C295.267 449.256 295.455 449.508 295.711 449.692C295.975 449.876 296.319 449.968 296.743 449.968ZM301.307 451V444.676H302.471L302.543 445.42C302.687 445.212 302.847 445.052 303.023 444.94C303.207 444.82 303.403 444.732 303.611 444.676C303.819 444.62 304.031 444.592 304.247 444.592C304.671 444.592 305.019 444.68 305.291 444.856C305.571 445.032 305.787 445.272 305.939 445.576C306.091 445.36 306.263 445.18 306.455 445.036C306.647 444.884 306.859 444.772 307.091 444.7C307.323 444.628 307.571 444.592 307.835 444.592C308.307 444.592 308.687 444.696 308.975 444.904C309.271 445.104 309.483 445.376 309.611 445.72C309.747 446.064 309.815 446.46 309.815 446.908V451H308.567V447.4C308.567 447.208 308.559 447.016 308.543 446.824C308.527 446.632 308.479 446.452 308.399 446.284C308.327 446.108 308.219 445.968 308.075 445.864C307.939 445.752 307.743 445.696 307.487 445.696C307.239 445.696 307.031 445.752 306.863 445.864C306.703 445.976 306.571 446.128 306.467 446.32C306.371 446.504 306.299 446.704 306.251 446.92C306.211 447.136 306.191 447.352 306.191 447.568V451H304.943V447.388C304.943 447.204 304.935 447.016 304.919 446.824C304.903 446.632 304.863 446.452 304.799 446.284C304.735 446.108 304.627 445.968 304.475 445.864C304.331 445.752 304.135 445.696 303.887 445.696C303.527 445.696 303.247 445.8 303.047 446.008C302.855 446.208 302.723 446.456 302.651 446.752C302.579 447.04 302.543 447.316 302.543 447.58V451H301.307ZM313.284 451.072C312.996 451.072 312.716 451.036 312.444 450.964C312.18 450.884 311.944 450.768 311.736 450.616C311.528 450.456 311.36 450.26 311.232 450.028C311.112 449.788 311.052 449.508 311.052 449.188C311.052 448.804 311.124 448.488 311.268 448.24C311.42 447.984 311.62 447.788 311.868 447.652C312.116 447.508 312.4 447.408 312.72 447.352C313.048 447.288 313.388 447.256 313.74 447.256H315.288C315.288 446.944 315.24 446.672 315.144 446.44C315.048 446.2 314.896 446.016 314.688 445.888C314.488 445.752 314.22 445.684 313.884 445.684C313.684 445.684 313.492 445.708 313.308 445.756C313.132 445.796 312.98 445.864 312.852 445.96C312.724 446.056 312.636 446.184 312.588 446.344H311.292C311.34 446.04 311.448 445.78 311.616 445.564C311.784 445.34 311.992 445.156 312.24 445.012C312.488 444.868 312.752 444.764 313.032 444.7C313.32 444.628 313.612 444.592 313.908 444.592C314.82 444.592 315.476 444.86 315.876 445.396C316.284 445.924 316.488 446.652 316.488 447.58V451H315.42L315.372 450.196C315.188 450.444 314.968 450.632 314.712 450.76C314.464 450.888 314.216 450.972 313.968 451.012C313.72 451.052 313.492 451.072 313.284 451.072ZM313.476 450.028C313.836 450.028 314.152 449.968 314.424 449.848C314.696 449.72 314.908 449.54 315.06 449.308C315.212 449.068 315.288 448.788 315.288 448.468V448.204H314.16C313.928 448.204 313.7 448.212 313.476 448.228C313.26 448.236 313.06 448.268 312.876 448.324C312.7 448.372 312.556 448.456 312.444 448.576C312.34 448.696 312.288 448.868 312.288 449.092C312.288 449.308 312.344 449.484 312.456 449.62C312.568 449.756 312.716 449.86 312.9 449.932C313.084 449.996 313.276 450.028 313.476 450.028ZM317.971 451V444.676H319.207V451H317.971ZM318.583 443.836C318.343 443.836 318.147 443.764 317.995 443.62C317.851 443.468 317.779 443.276 317.779 443.044C317.779 442.812 317.855 442.624 318.007 442.48C318.159 442.328 318.351 442.252 318.583 442.252C318.799 442.252 318.987 442.328 319.147 442.48C319.315 442.624 319.399 442.812 319.399 443.044C319.399 443.276 319.319 443.468 319.159 443.62C319.007 443.764 318.815 443.836 318.583 443.836ZM320.736 451V442.516H321.972V451H320.736ZM324.33 451.12C324.09 451.12 323.89 451.044 323.73 450.892C323.578 450.74 323.502 450.54 323.502 450.292C323.502 450.044 323.582 449.844 323.742 449.692C323.902 449.532 324.098 449.452 324.33 449.452C324.562 449.452 324.754 449.532 324.906 449.692C325.066 449.844 325.146 450.044 325.146 450.292C325.146 450.54 325.066 450.74 324.906 450.892C324.754 451.044 324.562 451.12 324.33 451.12ZM329.402 451.072C328.738 451.072 328.182 450.936 327.734 450.664C327.294 450.392 326.962 450.016 326.738 449.536C326.522 449.048 326.414 448.488 326.414 447.856C326.414 447.232 326.526 446.676 326.75 446.188C326.982 445.692 327.326 445.304 327.782 445.024C328.246 444.736 328.818 444.592 329.498 444.592C329.962 444.592 330.374 444.672 330.734 444.832C331.094 444.984 331.386 445.212 331.61 445.516C331.842 445.812 331.994 446.184 332.066 446.632H330.83C330.726 446.304 330.55 446.068 330.302 445.924C330.062 445.78 329.778 445.708 329.45 445.708C329.01 445.708 328.658 445.812 328.394 446.02C328.138 446.228 327.95 446.496 327.83 446.824C327.71 447.152 327.65 447.496 327.65 447.856C327.65 448.232 327.71 448.58 327.83 448.9C327.958 449.22 328.15 449.48 328.406 449.68C328.67 449.872 329.014 449.968 329.438 449.968C329.758 449.968 330.054 449.9 330.326 449.764C330.598 449.62 330.774 449.38 330.854 449.044H332.126C332.054 449.508 331.886 449.892 331.622 450.196C331.358 450.492 331.03 450.712 330.638 450.856C330.254 451 329.842 451.072 329.402 451.072ZM336.142 451.072C335.486 451.072 334.93 450.94 334.474 450.676C334.018 450.404 333.67 450.024 333.43 449.536C333.198 449.048 333.082 448.484 333.082 447.844C333.082 447.196 333.202 446.632 333.442 446.152C333.682 445.664 334.03 445.284 334.486 445.012C334.942 444.732 335.498 444.592 336.154 444.592C336.81 444.592 337.366 444.732 337.822 445.012C338.278 445.284 338.622 445.664 338.854 446.152C339.086 446.64 339.202 447.208 339.202 447.856C339.202 448.488 339.082 449.048 338.842 449.536C338.61 450.024 338.266 450.404 337.81 450.676C337.362 450.94 336.806 451.072 336.142 451.072ZM336.142 449.968C336.574 449.968 336.922 449.872 337.186 449.68C337.458 449.488 337.658 449.232 337.786 448.912C337.914 448.584 337.978 448.228 337.978 447.844C337.978 447.46 337.914 447.108 337.786 446.788C337.658 446.468 337.458 446.212 337.186 446.02C336.922 445.82 336.574 445.72 336.142 445.72C335.718 445.72 335.37 445.82 335.098 446.02C334.826 446.212 334.626 446.468 334.498 446.788C334.378 447.108 334.318 447.46 334.318 447.844C334.318 448.236 334.378 448.592 334.498 448.912C334.626 449.232 334.826 449.488 335.098 449.68C335.37 449.872 335.718 449.968 336.142 449.968ZM340.471 451V444.676H341.635L341.707 445.42C341.851 445.212 342.011 445.052 342.187 444.94C342.371 444.82 342.567 444.732 342.775 444.676C342.983 444.62 343.195 444.592 343.411 444.592C343.835 444.592 344.183 444.68 344.455 444.856C344.735 445.032 344.951 445.272 345.103 445.576C345.255 445.36 345.427 445.18 345.619 445.036C345.811 444.884 346.023 444.772 346.255 444.7C346.487 444.628 346.735 444.592 346.999 444.592C347.471 444.592 347.851 444.696 348.139 444.904C348.435 445.104 348.647 445.376 348.775 445.72C348.911 446.064 348.979 446.46 348.979 446.908V451H347.731V447.4C347.731 447.208 347.723 447.016 347.707 446.824C347.691 446.632 347.643 446.452 347.563 446.284C347.491 446.108 347.383 445.968 347.239 445.864C347.103 445.752 346.907 445.696 346.651 445.696C346.403 445.696 346.195 445.752 346.027 445.864C345.867 445.976 345.735 446.128 345.631 446.32C345.535 446.504 345.463 446.704 345.415 446.92C345.375 447.136 345.355 447.352 345.355 447.568V451H344.107V447.388C344.107 447.204 344.099 447.016 344.083 446.824C344.067 446.632 344.027 446.452 343.963 446.284C343.899 446.108 343.791 445.968 343.639 445.864C343.495 445.752 343.299 445.696 343.051 445.696C342.691 445.696 342.411 445.8 342.211 446.008C342.019 446.208 341.887 446.456 341.815 446.752C341.743 447.04 341.707 447.316 341.707 447.58V451H340.471Z" fill="#F7931A"/>
<path d="M169.42 342.48C166.54 342.48 163.84 342 161.32 341.04C158.8 340.04 156.64 338.58 154.84 336.66C153.08 334.7 151.84 332.24 151.12 329.28H144.22L145.6 322.62H150.28C150.28 322.1 150.28 321.66 150.28 321.3C150.28 320.9 150.28 320.52 150.28 320.16C150.28 319.76 150.3 319.32 150.34 318.84H144.46L145.78 312.12H151.36C152.8 307.88 155.1 304.64 158.26 302.4C161.42 300.16 165.16 299.04 169.48 299.04C172.12 299.04 174.5 299.36 176.62 300C178.78 300.64 180.8 301.88 182.68 303.72L178.54 309.54C177.66 308.66 176.52 307.92 175.12 307.32C173.76 306.72 172.1 306.42 170.14 306.42C168.5 306.42 167 306.68 165.64 307.2C164.32 307.72 163.2 308.42 162.28 309.3C161.36 310.14 160.68 311.08 160.24 312.12H175L173.74 318.84H158.56C158.56 319.2 158.54 319.6 158.5 320.04C158.46 320.48 158.44 320.92 158.44 321.36C158.48 321.8 158.52 322.22 158.56 322.62H173.26L171.94 329.28H160.36C161.2 330.96 162.46 332.3 164.14 333.3C165.82 334.3 167.76 334.8 169.96 334.8C171.76 334.8 173.4 334.54 174.88 334.02C176.4 333.5 177.74 332.66 178.9 331.5L183.22 337.26C181.46 339.1 179.42 340.44 177.1 341.28C174.78 342.08 172.22 342.48 169.42 342.48ZM203.612 342V334.92L215.372 325.14C216.212 324.42 217.172 323.62 218.252 322.74C219.372 321.82 220.432 320.84 221.432 319.8C222.472 318.76 223.312 317.66 223.952 316.5C224.632 315.34 224.972 314.14 224.972 312.9C224.972 311.18 224.432 309.78 223.352 308.7C222.312 307.62 220.772 307.08 218.732 307.08C216.812 307.08 215.292 307.52 214.172 308.4C213.092 309.24 212.412 310.32 212.132 311.64H203.852C204.092 308.8 204.932 306.46 206.372 304.62C207.852 302.74 209.712 301.34 211.952 300.42C214.192 299.5 216.552 299.04 219.032 299.04C221.712 299.04 224.152 299.54 226.352 300.54C228.552 301.54 230.292 303 231.572 304.92C232.852 306.8 233.492 309.14 233.492 311.94C233.492 314.34 233.032 316.52 232.112 318.48C231.232 320.4 230.012 322.2 228.452 323.88C226.892 325.52 225.132 327.1 223.172 328.62L216.452 334.08H233.432V342H203.612ZM240.064 342L256.264 307.5H235.984V299.52H266.044V305.94L249.604 342H240.064ZM285.348 342.48C283.348 342.48 281.408 342.26 279.528 341.82C277.648 341.34 275.928 340.6 274.368 339.6C272.848 338.56 271.628 337.2 270.708 335.52C269.828 333.84 269.388 331.82 269.388 329.46C269.388 327.9 269.608 326.5 270.048 325.26C270.528 323.98 271.208 322.86 272.088 321.9C273.008 320.9 274.108 320.1 275.388 319.5C274.308 318.82 273.428 318.02 272.748 317.1C272.068 316.14 271.568 315.1 271.248 313.98C270.928 312.86 270.768 311.72 270.768 310.56C270.768 308.44 271.188 306.66 272.028 305.22C272.868 303.74 273.988 302.56 275.388 301.68C276.788 300.76 278.368 300.1 280.128 299.7C281.888 299.26 283.668 299.04 285.468 299.04C287.308 299.04 289.088 299.26 290.808 299.7C292.528 300.1 294.088 300.78 295.488 301.74C296.888 302.66 298.008 303.88 298.848 305.4C299.688 306.88 300.108 308.68 300.108 310.8C300.108 311.88 299.928 312.98 299.568 314.1C299.248 315.18 298.728 316.18 298.008 317.1C297.328 318.02 296.448 318.8 295.368 319.44C296.648 320 297.748 320.76 298.668 321.72C299.588 322.68 300.288 323.82 300.768 325.14C301.248 326.46 301.488 327.94 301.488 329.58C301.488 331.94 301.028 333.94 300.108 335.58C299.188 337.22 297.948 338.56 296.388 339.6C294.828 340.6 293.088 341.34 291.168 341.82C289.288 342.26 287.348 342.48 285.348 342.48ZM285.408 334.74C286.288 334.74 287.168 334.64 288.048 334.44C288.928 334.24 289.728 333.92 290.448 333.48C291.168 333 291.728 332.42 292.128 331.74C292.568 331.02 292.788 330.14 292.788 329.1C292.788 327.82 292.468 326.78 291.828 325.98C291.188 325.14 290.308 324.52 289.188 324.12C288.108 323.68 286.848 323.46 285.408 323.46C284.008 323.46 282.728 323.68 281.568 324.12C280.448 324.52 279.568 325.14 278.928 325.98C278.288 326.78 277.968 327.82 277.968 329.1C277.968 330.14 278.188 331.02 278.628 331.74C279.068 332.42 279.628 333 280.308 333.48C281.028 333.92 281.828 334.24 282.708 334.44C283.588 334.64 284.488 334.74 285.408 334.74ZM285.468 316.92C286.748 316.92 287.828 316.72 288.708 316.32C289.628 315.88 290.328 315.28 290.808 314.52C291.328 313.72 291.588 312.84 291.588 311.88C291.588 310.68 291.328 309.7 290.808 308.94C290.288 308.14 289.548 307.54 288.588 307.14C287.668 306.7 286.568 306.48 285.288 306.48C284.048 306.48 282.968 306.7 282.048 307.14C281.168 307.54 280.468 308.12 279.948 308.88C279.468 309.64 279.228 310.56 279.228 311.64C279.228 312.72 279.488 313.66 280.008 314.46C280.528 315.26 281.248 315.88 282.168 316.32C283.128 316.72 284.228 316.92 285.468 316.92ZM323.748 342.48C320.748 342.48 318.188 341.92 316.068 340.8C313.948 339.68 312.208 338.14 310.848 336.18C309.488 334.22 308.488 332 307.848 329.52C307.248 327 306.948 324.36 306.948 321.6C306.948 318.56 307.288 315.7 307.968 313.02C308.648 310.3 309.708 307.9 311.148 305.82C312.588 303.7 314.408 302.04 316.608 300.84C318.848 299.64 321.528 299.04 324.648 299.04C327.048 299.04 329.228 299.46 331.188 300.3C333.188 301.14 334.868 302.42 336.228 304.14C337.588 305.82 338.468 307.98 338.868 310.62H330.708C330.228 309.46 329.408 308.54 328.248 307.86C327.128 307.18 325.808 306.84 324.288 306.84C322.888 306.84 321.668 307.1 320.628 307.62C319.588 308.1 318.688 308.78 317.928 309.66C317.208 310.5 316.608 311.46 316.128 312.54C315.648 313.62 315.308 314.76 315.108 315.96C314.908 317.12 314.808 318.28 314.808 319.44C315.768 318.12 316.868 317.08 318.108 316.32C319.388 315.56 320.668 315.04 321.948 314.76C323.228 314.44 324.388 314.28 325.428 314.28C328.268 314.28 330.708 314.84 332.748 315.96C334.788 317.08 336.348 318.66 337.428 320.7C338.548 322.7 339.108 325.08 339.108 327.84C339.108 330.8 338.448 333.38 337.128 335.58C335.808 337.78 333.988 339.48 331.668 340.68C329.388 341.88 326.748 342.48 323.748 342.48ZM323.808 334.62C325.248 334.62 326.448 334.32 327.408 333.72C328.408 333.12 329.168 332.34 329.688 331.38C330.208 330.38 330.468 329.32 330.468 328.2C330.468 327 330.208 325.92 329.688 324.96C329.168 323.96 328.428 323.16 327.468 322.56C326.508 321.96 325.328 321.66 323.928 321.66C322.608 321.66 321.388 321.96 320.268 322.56C319.188 323.12 318.348 323.9 317.748 324.9C317.148 325.86 316.848 326.96 316.848 328.2C316.848 329.32 317.128 330.38 317.688 331.38C318.248 332.34 319.048 333.12 320.088 333.72C321.128 334.32 322.368 334.62 323.808 334.62ZM350.089 342.78C348.649 342.78 347.429 342.34 346.429 341.46C345.429 340.58 344.929 339.32 344.929 337.68C344.929 336 345.429 334.68 346.429 333.72C347.469 332.76 348.689 332.28 350.089 332.28C351.489 332.28 352.689 332.76 353.689 333.72C354.689 334.64 355.189 335.94 355.189 337.62C355.189 339.3 354.689 340.58 353.689 341.46C352.689 342.34 351.489 342.78 350.089 342.78ZM376.624 342.42C374.584 342.42 372.624 342.18 370.744 341.7C368.864 341.22 367.144 340.46 365.584 339.42C364.024 338.38 362.724 337.06 361.684 335.46C360.644 333.82 360.004 331.86 359.764 329.58H368.284C368.564 330.7 369.104 331.64 369.904 332.4C370.744 333.12 371.744 333.64 372.904 333.96C374.104 334.28 375.364 334.44 376.684 334.44C377.564 334.44 378.424 334.36 379.264 334.2C380.144 334.04 380.924 333.76 381.604 333.36C382.324 332.96 382.884 332.42 383.284 331.74C383.684 331.06 383.884 330.2 383.884 329.16C383.884 328.2 383.704 327.4 383.344 326.76C382.984 326.12 382.504 325.6 381.904 325.2C381.304 324.8 380.584 324.52 379.744 324.36C378.944 324.2 378.084 324.12 377.164 324.12H372.244V316.8H375.544C376.584 316.8 377.524 316.7 378.364 316.5C379.204 316.26 379.904 315.94 380.464 315.54C381.064 315.1 381.524 314.58 381.844 313.98C382.164 313.34 382.324 312.62 382.324 311.82C382.324 310.62 382.064 309.68 381.544 309C381.024 308.28 380.304 307.76 379.384 307.44C378.464 307.12 377.404 306.96 376.204 306.96C375.084 306.96 374.024 307.14 373.024 307.5C372.064 307.82 371.264 308.3 370.624 308.94C369.984 309.58 369.564 310.36 369.364 311.28H361.024C361.264 309.12 361.844 307.28 362.764 305.76C363.684 304.2 364.864 302.92 366.304 301.92C367.744 300.92 369.344 300.2 371.104 299.76C372.904 299.28 374.764 299.04 376.684 299.04C378.524 299.04 380.284 299.24 381.964 299.64C383.644 300.04 385.144 300.7 386.464 301.62C387.824 302.5 388.904 303.68 389.704 305.16C390.504 306.64 390.904 308.42 390.904 310.5C390.904 311.78 390.684 312.98 390.244 314.1C389.844 315.22 389.244 316.22 388.444 317.1C387.684 317.94 386.784 318.64 385.744 319.2C387.304 319.64 388.584 320.36 389.584 321.36C390.584 322.36 391.324 323.54 391.804 324.9C392.324 326.26 392.584 327.72 392.584 329.28C392.584 331.84 392.104 333.98 391.144 335.7C390.224 337.38 388.984 338.72 387.424 339.72C385.864 340.68 384.144 341.38 382.264 341.82C380.384 342.22 378.504 342.42 376.624 342.42ZM412.821 342.48C410.381 342.48 408.121 342.08 406.041 341.28C403.961 340.44 402.201 339.16 400.761 337.44C399.361 335.72 398.461 333.56 398.061 330.96H406.461C406.901 332.16 407.761 333.08 409.041 333.72C410.321 334.32 411.681 334.62 413.121 334.62C414.761 334.62 416.141 334.3 417.261 333.66C418.421 332.98 419.341 332.1 420.021 331.02C420.701 329.9 421.201 328.68 421.521 327.36C421.841 326 422.021 324.62 422.061 323.22C422.061 323.06 422.061 322.9 422.061 322.74C422.061 322.54 422.061 322.36 422.061 322.2C421.181 323.48 420.121 324.48 418.881 325.2C417.641 325.92 416.361 326.42 415.041 326.7C413.721 326.98 412.461 327.12 411.261 327.12C408.741 327.12 406.461 326.6 404.421 325.56C402.381 324.48 400.761 322.94 399.561 320.94C398.401 318.94 397.821 316.52 397.821 313.68C397.821 310.52 398.541 307.86 399.981 305.7C401.421 303.5 403.321 301.84 405.681 300.72C408.081 299.6 410.701 299.04 413.541 299.04C416.661 299.04 419.281 299.66 421.401 300.9C423.521 302.14 425.201 303.82 426.441 305.94C427.681 308.06 428.561 310.42 429.081 313.02C429.641 315.62 429.921 318.28 429.921 321C429.921 323.96 429.601 326.74 428.961 329.34C428.361 331.9 427.381 334.18 426.021 336.18C424.701 338.14 422.941 339.68 420.741 340.8C418.581 341.92 415.941 342.48 412.821 342.48ZM413.181 319.92C414.741 319.92 416.021 319.6 417.021 318.96C418.061 318.32 418.841 317.52 419.361 316.56C419.921 315.56 420.201 314.52 420.201 313.44C420.201 312.08 419.881 310.92 419.241 309.96C418.641 308.96 417.821 308.2 416.781 307.68C415.781 307.12 414.621 306.84 413.301 306.84C411.861 306.84 410.621 307.14 409.581 307.74C408.541 308.34 407.741 309.14 407.181 310.14C406.621 311.14 406.341 312.22 406.341 313.38C406.341 315.22 406.921 316.78 408.081 318.06C409.281 319.3 410.981 319.92 413.181 319.92Z" fill="#F9DD4B"/>
<rect x="61" y="94" width="453" height="41" fill="#364942"/>
<path d="M305.74 218.221L305.74 218.221C305.059 217.666 304.053 217.761 303.491 218.437L303.491 218.437L292.911 231.151L289.033 225.917C288.509 225.21 287.51 225.06 286.799 225.576C286.085 226.094 285.928 227.093 286.454 227.803L286.921 227.457L286.454 227.803L291.548 234.678L291.549 234.678C291.842 235.074 292.301 235.312 292.793 235.325C293.285 235.339 293.757 235.128 294.072 234.749L305.959 220.464C306.524 219.784 306.425 218.779 305.74 218.221Z" fill="#45FF6E" stroke="#45FF6E" stroke-width="1.16442"/>
</g>
<defs>
<filter id="filter0_bi_1029_255" x="-28.846" y="-28.846" width="633.692" height="648.692" filterUnits="userSpaceOnUse" color-interpolation-filters="sRGB">
<feFlood flood-opacity="0" result="BackgroundImageFix"/>
<feGaussianBlur in="BackgroundImageFix" stdDeviation="14.423"/>
<feComposite in2="SourceAlpha" operator="in" result="effect1_backgroundBlur_1029_255"/>
<feBlend mode="normal" in="SourceGraphic" in2="effect1_backgroundBlur_1029_255" result="shape"/>
<feColorMatrix in="SourceAlpha" type="matrix" values="0 0 0 0 0 0 0 0 0 0 0 0 0 0 0 0 0 0 127 0" result="hardAlpha"/>
<feOffset dy="0.939609"/>
<feComposite in2="hardAlpha" operator="arithmetic" k2="-1" k3="1"/>
<feColorMatrix type="matrix" values="0 0 0 0 1 0 0 0 0 1 0 0 0 0 1 0 0 0 0.12 0"/>
<feBlend mode="normal" in2="shape" result="effect2_innerShadow_1029_255"/>
</filter>
<filter id="filter1_i_1029_255" x="61" y="133" width="453.094" height="363.548" filterUnits="userSpaceOnUse" color-interpolation-filters="sRGB">
<feFlood flood-opacity="0" result="BackgroundImageFix"/>
<feBlend mode="normal" in="SourceGraphic" in2="BackgroundImageFix" result="shape"/>
<feColorMatrix in="SourceAlpha" type="matrix" values="0 0 0 0 0 0 0 0 0 0 0 0 0 0 0 0 0 0 127 0" result="hardAlpha"/>
<feOffset dy="0.547916"/>
<feGaussianBlur stdDeviation="0.273958"/>
<feComposite in2="hardAlpha" operator="arithmetic" k2="-1" k3="1"/>
<feColorMatrix type="matrix" values="0 0 0 0 1 0 0 0 0 1 0 0 0 0 1 0 0 0 0.12 0"/>
<feBlend mode="normal" in2="shape" result="effect1_innerShadow_1029_255"/>
</filter>
<linearGradient id="paint0_linear_1029_255" x1="55.1017" y1="634.706" x2="619.568" y2="360.899" gradientUnits="userSpaceOnUse">
<stop stop-color="#F9FF38"/>
<stop offset="1" stop-color="#061D31"/>
</linearGradient>
<linearGradient id="paint1_linear_1029_255" x1="55.1017" y1="634.706" x2="619.568" y2="360.899" gradientUnits="userSpaceOnUse">
<stop stop-color="#F9FF38"/>
<stop offset="1" stop-color="#061D31"/>
</linearGradient>
<linearGradient id="paint2_linear_1029_255" x1="287.547" y1="133" x2="287.547" y2="496" gradientUnits="userSpaceOnUse">
<stop stop-opacity="0"/>
<stop offset="1" stop-color="#646F2A"/>
</linearGradient>
<clipPath id="clip0_1029_255">
<rect width="576" height="591" rx="12" fill="white"/>
</clipPath>
</defs>
</svg>
